G04 #@! TF.GenerationSoftware,KiCad,Pcbnew,5.1.4+dfsg1-1*
G04 #@! TF.CreationDate,2019-09-03T18:12:51+09:00*
G04 #@! TF.ProjectId,axp192breakout,61787031-3932-4627-9265-616b6f75742e,rev?*
G04 #@! TF.SameCoordinates,Original*
G04 #@! TF.FileFunction,Paste,Top*
G04 #@! TF.FilePolarity,Positive*
%FSLAX46Y46*%
G04 Gerber Fmt 4.6, Leading zero omitted, Abs format (unit mm)*
G04 Created by KiCad (PCBNEW 5.1.4+dfsg1-1) date 2019-09-03 18:12:51*
%MOMM*%
%LPD*%
G04 APERTURE LIST*
%ADD10C,0.100000*%
%ADD11C,0.590000*%
%ADD12R,1.400000X0.400000*%
%ADD13R,1.520000X1.520000*%
%ADD14R,0.650000X2.000000*%
%ADD15R,2.000000X0.650000*%
%ADD16C,0.200000*%
%ADD17C,0.295204*%
%ADD18C,0.331171*%
%ADD19C,0.846537*%
%ADD20C,0.875000*%
G04 APERTURE END LIST*
D10*
G36*
X94886958Y-120190710D02*
G01*
X94901276Y-120192834D01*
X94915317Y-120196351D01*
X94928946Y-120201228D01*
X94942031Y-120207417D01*
X94954447Y-120214858D01*
X94966073Y-120223481D01*
X94976798Y-120233202D01*
X94986519Y-120243927D01*
X94995142Y-120255553D01*
X95002583Y-120267969D01*
X95008772Y-120281054D01*
X95013649Y-120294683D01*
X95017166Y-120308724D01*
X95019290Y-120323042D01*
X95020000Y-120337500D01*
X95020000Y-120632500D01*
X95019290Y-120646958D01*
X95017166Y-120661276D01*
X95013649Y-120675317D01*
X95008772Y-120688946D01*
X95002583Y-120702031D01*
X94995142Y-120714447D01*
X94986519Y-120726073D01*
X94976798Y-120736798D01*
X94966073Y-120746519D01*
X94954447Y-120755142D01*
X94942031Y-120762583D01*
X94928946Y-120768772D01*
X94915317Y-120773649D01*
X94901276Y-120777166D01*
X94886958Y-120779290D01*
X94872500Y-120780000D01*
X94527500Y-120780000D01*
X94513042Y-120779290D01*
X94498724Y-120777166D01*
X94484683Y-120773649D01*
X94471054Y-120768772D01*
X94457969Y-120762583D01*
X94445553Y-120755142D01*
X94433927Y-120746519D01*
X94423202Y-120736798D01*
X94413481Y-120726073D01*
X94404858Y-120714447D01*
X94397417Y-120702031D01*
X94391228Y-120688946D01*
X94386351Y-120675317D01*
X94382834Y-120661276D01*
X94380710Y-120646958D01*
X94380000Y-120632500D01*
X94380000Y-120337500D01*
X94380710Y-120323042D01*
X94382834Y-120308724D01*
X94386351Y-120294683D01*
X94391228Y-120281054D01*
X94397417Y-120267969D01*
X94404858Y-120255553D01*
X94413481Y-120243927D01*
X94423202Y-120233202D01*
X94433927Y-120223481D01*
X94445553Y-120214858D01*
X94457969Y-120207417D01*
X94471054Y-120201228D01*
X94484683Y-120196351D01*
X94498724Y-120192834D01*
X94513042Y-120190710D01*
X94527500Y-120190000D01*
X94872500Y-120190000D01*
X94886958Y-120190710D01*
X94886958Y-120190710D01*
G37*
D11*
X94700000Y-120485000D03*
D10*
G36*
X94886958Y-119220710D02*
G01*
X94901276Y-119222834D01*
X94915317Y-119226351D01*
X94928946Y-119231228D01*
X94942031Y-119237417D01*
X94954447Y-119244858D01*
X94966073Y-119253481D01*
X94976798Y-119263202D01*
X94986519Y-119273927D01*
X94995142Y-119285553D01*
X95002583Y-119297969D01*
X95008772Y-119311054D01*
X95013649Y-119324683D01*
X95017166Y-119338724D01*
X95019290Y-119353042D01*
X95020000Y-119367500D01*
X95020000Y-119662500D01*
X95019290Y-119676958D01*
X95017166Y-119691276D01*
X95013649Y-119705317D01*
X95008772Y-119718946D01*
X95002583Y-119732031D01*
X94995142Y-119744447D01*
X94986519Y-119756073D01*
X94976798Y-119766798D01*
X94966073Y-119776519D01*
X94954447Y-119785142D01*
X94942031Y-119792583D01*
X94928946Y-119798772D01*
X94915317Y-119803649D01*
X94901276Y-119807166D01*
X94886958Y-119809290D01*
X94872500Y-119810000D01*
X94527500Y-119810000D01*
X94513042Y-119809290D01*
X94498724Y-119807166D01*
X94484683Y-119803649D01*
X94471054Y-119798772D01*
X94457969Y-119792583D01*
X94445553Y-119785142D01*
X94433927Y-119776519D01*
X94423202Y-119766798D01*
X94413481Y-119756073D01*
X94404858Y-119744447D01*
X94397417Y-119732031D01*
X94391228Y-119718946D01*
X94386351Y-119705317D01*
X94382834Y-119691276D01*
X94380710Y-119676958D01*
X94380000Y-119662500D01*
X94380000Y-119367500D01*
X94380710Y-119353042D01*
X94382834Y-119338724D01*
X94386351Y-119324683D01*
X94391228Y-119311054D01*
X94397417Y-119297969D01*
X94404858Y-119285553D01*
X94413481Y-119273927D01*
X94423202Y-119263202D01*
X94433927Y-119253481D01*
X94445553Y-119244858D01*
X94457969Y-119237417D01*
X94471054Y-119231228D01*
X94484683Y-119226351D01*
X94498724Y-119222834D01*
X94513042Y-119220710D01*
X94527500Y-119220000D01*
X94872500Y-119220000D01*
X94886958Y-119220710D01*
X94886958Y-119220710D01*
G37*
D11*
X94700000Y-119515000D03*
D10*
G36*
X90613758Y-121854710D02*
G01*
X90628076Y-121856834D01*
X90642117Y-121860351D01*
X90655746Y-121865228D01*
X90668831Y-121871417D01*
X90681247Y-121878858D01*
X90692873Y-121887481D01*
X90703598Y-121897202D01*
X90713319Y-121907927D01*
X90721942Y-121919553D01*
X90729383Y-121931969D01*
X90735572Y-121945054D01*
X90740449Y-121958683D01*
X90743966Y-121972724D01*
X90746090Y-121987042D01*
X90746800Y-122001500D01*
X90746800Y-122346500D01*
X90746090Y-122360958D01*
X90743966Y-122375276D01*
X90740449Y-122389317D01*
X90735572Y-122402946D01*
X90729383Y-122416031D01*
X90721942Y-122428447D01*
X90713319Y-122440073D01*
X90703598Y-122450798D01*
X90692873Y-122460519D01*
X90681247Y-122469142D01*
X90668831Y-122476583D01*
X90655746Y-122482772D01*
X90642117Y-122487649D01*
X90628076Y-122491166D01*
X90613758Y-122493290D01*
X90599300Y-122494000D01*
X90304300Y-122494000D01*
X90289842Y-122493290D01*
X90275524Y-122491166D01*
X90261483Y-122487649D01*
X90247854Y-122482772D01*
X90234769Y-122476583D01*
X90222353Y-122469142D01*
X90210727Y-122460519D01*
X90200002Y-122450798D01*
X90190281Y-122440073D01*
X90181658Y-122428447D01*
X90174217Y-122416031D01*
X90168028Y-122402946D01*
X90163151Y-122389317D01*
X90159634Y-122375276D01*
X90157510Y-122360958D01*
X90156800Y-122346500D01*
X90156800Y-122001500D01*
X90157510Y-121987042D01*
X90159634Y-121972724D01*
X90163151Y-121958683D01*
X90168028Y-121945054D01*
X90174217Y-121931969D01*
X90181658Y-121919553D01*
X90190281Y-121907927D01*
X90200002Y-121897202D01*
X90210727Y-121887481D01*
X90222353Y-121878858D01*
X90234769Y-121871417D01*
X90247854Y-121865228D01*
X90261483Y-121860351D01*
X90275524Y-121856834D01*
X90289842Y-121854710D01*
X90304300Y-121854000D01*
X90599300Y-121854000D01*
X90613758Y-121854710D01*
X90613758Y-121854710D01*
G37*
D11*
X90451800Y-122174000D03*
D10*
G36*
X89643758Y-121854710D02*
G01*
X89658076Y-121856834D01*
X89672117Y-121860351D01*
X89685746Y-121865228D01*
X89698831Y-121871417D01*
X89711247Y-121878858D01*
X89722873Y-121887481D01*
X89733598Y-121897202D01*
X89743319Y-121907927D01*
X89751942Y-121919553D01*
X89759383Y-121931969D01*
X89765572Y-121945054D01*
X89770449Y-121958683D01*
X89773966Y-121972724D01*
X89776090Y-121987042D01*
X89776800Y-122001500D01*
X89776800Y-122346500D01*
X89776090Y-122360958D01*
X89773966Y-122375276D01*
X89770449Y-122389317D01*
X89765572Y-122402946D01*
X89759383Y-122416031D01*
X89751942Y-122428447D01*
X89743319Y-122440073D01*
X89733598Y-122450798D01*
X89722873Y-122460519D01*
X89711247Y-122469142D01*
X89698831Y-122476583D01*
X89685746Y-122482772D01*
X89672117Y-122487649D01*
X89658076Y-122491166D01*
X89643758Y-122493290D01*
X89629300Y-122494000D01*
X89334300Y-122494000D01*
X89319842Y-122493290D01*
X89305524Y-122491166D01*
X89291483Y-122487649D01*
X89277854Y-122482772D01*
X89264769Y-122476583D01*
X89252353Y-122469142D01*
X89240727Y-122460519D01*
X89230002Y-122450798D01*
X89220281Y-122440073D01*
X89211658Y-122428447D01*
X89204217Y-122416031D01*
X89198028Y-122402946D01*
X89193151Y-122389317D01*
X89189634Y-122375276D01*
X89187510Y-122360958D01*
X89186800Y-122346500D01*
X89186800Y-122001500D01*
X89187510Y-121987042D01*
X89189634Y-121972724D01*
X89193151Y-121958683D01*
X89198028Y-121945054D01*
X89204217Y-121931969D01*
X89211658Y-121919553D01*
X89220281Y-121907927D01*
X89230002Y-121897202D01*
X89240727Y-121887481D01*
X89252353Y-121878858D01*
X89264769Y-121871417D01*
X89277854Y-121865228D01*
X89291483Y-121860351D01*
X89305524Y-121856834D01*
X89319842Y-121854710D01*
X89334300Y-121854000D01*
X89629300Y-121854000D01*
X89643758Y-121854710D01*
X89643758Y-121854710D01*
G37*
D11*
X89481800Y-122174000D03*
D10*
G36*
X87713358Y-121854710D02*
G01*
X87727676Y-121856834D01*
X87741717Y-121860351D01*
X87755346Y-121865228D01*
X87768431Y-121871417D01*
X87780847Y-121878858D01*
X87792473Y-121887481D01*
X87803198Y-121897202D01*
X87812919Y-121907927D01*
X87821542Y-121919553D01*
X87828983Y-121931969D01*
X87835172Y-121945054D01*
X87840049Y-121958683D01*
X87843566Y-121972724D01*
X87845690Y-121987042D01*
X87846400Y-122001500D01*
X87846400Y-122346500D01*
X87845690Y-122360958D01*
X87843566Y-122375276D01*
X87840049Y-122389317D01*
X87835172Y-122402946D01*
X87828983Y-122416031D01*
X87821542Y-122428447D01*
X87812919Y-122440073D01*
X87803198Y-122450798D01*
X87792473Y-122460519D01*
X87780847Y-122469142D01*
X87768431Y-122476583D01*
X87755346Y-122482772D01*
X87741717Y-122487649D01*
X87727676Y-122491166D01*
X87713358Y-122493290D01*
X87698900Y-122494000D01*
X87403900Y-122494000D01*
X87389442Y-122493290D01*
X87375124Y-122491166D01*
X87361083Y-122487649D01*
X87347454Y-122482772D01*
X87334369Y-122476583D01*
X87321953Y-122469142D01*
X87310327Y-122460519D01*
X87299602Y-122450798D01*
X87289881Y-122440073D01*
X87281258Y-122428447D01*
X87273817Y-122416031D01*
X87267628Y-122402946D01*
X87262751Y-122389317D01*
X87259234Y-122375276D01*
X87257110Y-122360958D01*
X87256400Y-122346500D01*
X87256400Y-122001500D01*
X87257110Y-121987042D01*
X87259234Y-121972724D01*
X87262751Y-121958683D01*
X87267628Y-121945054D01*
X87273817Y-121931969D01*
X87281258Y-121919553D01*
X87289881Y-121907927D01*
X87299602Y-121897202D01*
X87310327Y-121887481D01*
X87321953Y-121878858D01*
X87334369Y-121871417D01*
X87347454Y-121865228D01*
X87361083Y-121860351D01*
X87375124Y-121856834D01*
X87389442Y-121854710D01*
X87403900Y-121854000D01*
X87698900Y-121854000D01*
X87713358Y-121854710D01*
X87713358Y-121854710D01*
G37*
D11*
X87551400Y-122174000D03*
D10*
G36*
X88683358Y-121854710D02*
G01*
X88697676Y-121856834D01*
X88711717Y-121860351D01*
X88725346Y-121865228D01*
X88738431Y-121871417D01*
X88750847Y-121878858D01*
X88762473Y-121887481D01*
X88773198Y-121897202D01*
X88782919Y-121907927D01*
X88791542Y-121919553D01*
X88798983Y-121931969D01*
X88805172Y-121945054D01*
X88810049Y-121958683D01*
X88813566Y-121972724D01*
X88815690Y-121987042D01*
X88816400Y-122001500D01*
X88816400Y-122346500D01*
X88815690Y-122360958D01*
X88813566Y-122375276D01*
X88810049Y-122389317D01*
X88805172Y-122402946D01*
X88798983Y-122416031D01*
X88791542Y-122428447D01*
X88782919Y-122440073D01*
X88773198Y-122450798D01*
X88762473Y-122460519D01*
X88750847Y-122469142D01*
X88738431Y-122476583D01*
X88725346Y-122482772D01*
X88711717Y-122487649D01*
X88697676Y-122491166D01*
X88683358Y-122493290D01*
X88668900Y-122494000D01*
X88373900Y-122494000D01*
X88359442Y-122493290D01*
X88345124Y-122491166D01*
X88331083Y-122487649D01*
X88317454Y-122482772D01*
X88304369Y-122476583D01*
X88291953Y-122469142D01*
X88280327Y-122460519D01*
X88269602Y-122450798D01*
X88259881Y-122440073D01*
X88251258Y-122428447D01*
X88243817Y-122416031D01*
X88237628Y-122402946D01*
X88232751Y-122389317D01*
X88229234Y-122375276D01*
X88227110Y-122360958D01*
X88226400Y-122346500D01*
X88226400Y-122001500D01*
X88227110Y-121987042D01*
X88229234Y-121972724D01*
X88232751Y-121958683D01*
X88237628Y-121945054D01*
X88243817Y-121931969D01*
X88251258Y-121919553D01*
X88259881Y-121907927D01*
X88269602Y-121897202D01*
X88280327Y-121887481D01*
X88291953Y-121878858D01*
X88304369Y-121871417D01*
X88317454Y-121865228D01*
X88331083Y-121860351D01*
X88345124Y-121856834D01*
X88359442Y-121854710D01*
X88373900Y-121854000D01*
X88668900Y-121854000D01*
X88683358Y-121854710D01*
X88683358Y-121854710D01*
G37*
D11*
X88521400Y-122174000D03*
D10*
G36*
X101177358Y-116279150D02*
G01*
X101191676Y-116281274D01*
X101205717Y-116284791D01*
X101219346Y-116289668D01*
X101232431Y-116295857D01*
X101244847Y-116303298D01*
X101256473Y-116311921D01*
X101267198Y-116321642D01*
X101276919Y-116332367D01*
X101285542Y-116343993D01*
X101292983Y-116356409D01*
X101299172Y-116369494D01*
X101304049Y-116383123D01*
X101307566Y-116397164D01*
X101309690Y-116411482D01*
X101310400Y-116425940D01*
X101310400Y-116720940D01*
X101309690Y-116735398D01*
X101307566Y-116749716D01*
X101304049Y-116763757D01*
X101299172Y-116777386D01*
X101292983Y-116790471D01*
X101285542Y-116802887D01*
X101276919Y-116814513D01*
X101267198Y-116825238D01*
X101256473Y-116834959D01*
X101244847Y-116843582D01*
X101232431Y-116851023D01*
X101219346Y-116857212D01*
X101205717Y-116862089D01*
X101191676Y-116865606D01*
X101177358Y-116867730D01*
X101162900Y-116868440D01*
X100817900Y-116868440D01*
X100803442Y-116867730D01*
X100789124Y-116865606D01*
X100775083Y-116862089D01*
X100761454Y-116857212D01*
X100748369Y-116851023D01*
X100735953Y-116843582D01*
X100724327Y-116834959D01*
X100713602Y-116825238D01*
X100703881Y-116814513D01*
X100695258Y-116802887D01*
X100687817Y-116790471D01*
X100681628Y-116777386D01*
X100676751Y-116763757D01*
X100673234Y-116749716D01*
X100671110Y-116735398D01*
X100670400Y-116720940D01*
X100670400Y-116425940D01*
X100671110Y-116411482D01*
X100673234Y-116397164D01*
X100676751Y-116383123D01*
X100681628Y-116369494D01*
X100687817Y-116356409D01*
X100695258Y-116343993D01*
X100703881Y-116332367D01*
X100713602Y-116321642D01*
X100724327Y-116311921D01*
X100735953Y-116303298D01*
X100748369Y-116295857D01*
X100761454Y-116289668D01*
X100775083Y-116284791D01*
X100789124Y-116281274D01*
X100803442Y-116279150D01*
X100817900Y-116278440D01*
X101162900Y-116278440D01*
X101177358Y-116279150D01*
X101177358Y-116279150D01*
G37*
D11*
X100990400Y-116573440D03*
D10*
G36*
X101177358Y-117249150D02*
G01*
X101191676Y-117251274D01*
X101205717Y-117254791D01*
X101219346Y-117259668D01*
X101232431Y-117265857D01*
X101244847Y-117273298D01*
X101256473Y-117281921D01*
X101267198Y-117291642D01*
X101276919Y-117302367D01*
X101285542Y-117313993D01*
X101292983Y-117326409D01*
X101299172Y-117339494D01*
X101304049Y-117353123D01*
X101307566Y-117367164D01*
X101309690Y-117381482D01*
X101310400Y-117395940D01*
X101310400Y-117690940D01*
X101309690Y-117705398D01*
X101307566Y-117719716D01*
X101304049Y-117733757D01*
X101299172Y-117747386D01*
X101292983Y-117760471D01*
X101285542Y-117772887D01*
X101276919Y-117784513D01*
X101267198Y-117795238D01*
X101256473Y-117804959D01*
X101244847Y-117813582D01*
X101232431Y-117821023D01*
X101219346Y-117827212D01*
X101205717Y-117832089D01*
X101191676Y-117835606D01*
X101177358Y-117837730D01*
X101162900Y-117838440D01*
X100817900Y-117838440D01*
X100803442Y-117837730D01*
X100789124Y-117835606D01*
X100775083Y-117832089D01*
X100761454Y-117827212D01*
X100748369Y-117821023D01*
X100735953Y-117813582D01*
X100724327Y-117804959D01*
X100713602Y-117795238D01*
X100703881Y-117784513D01*
X100695258Y-117772887D01*
X100687817Y-117760471D01*
X100681628Y-117747386D01*
X100676751Y-117733757D01*
X100673234Y-117719716D01*
X100671110Y-117705398D01*
X100670400Y-117690940D01*
X100670400Y-117395940D01*
X100671110Y-117381482D01*
X100673234Y-117367164D01*
X100676751Y-117353123D01*
X100681628Y-117339494D01*
X100687817Y-117326409D01*
X100695258Y-117313993D01*
X100703881Y-117302367D01*
X100713602Y-117291642D01*
X100724327Y-117281921D01*
X100735953Y-117273298D01*
X100748369Y-117265857D01*
X100761454Y-117259668D01*
X100775083Y-117254791D01*
X100789124Y-117251274D01*
X100803442Y-117249150D01*
X100817900Y-117248440D01*
X101162900Y-117248440D01*
X101177358Y-117249150D01*
X101177358Y-117249150D01*
G37*
D11*
X100990400Y-117543440D03*
D10*
G36*
X88538318Y-118191490D02*
G01*
X88552636Y-118193614D01*
X88566677Y-118197131D01*
X88580306Y-118202008D01*
X88593391Y-118208197D01*
X88605807Y-118215638D01*
X88617433Y-118224261D01*
X88628158Y-118233982D01*
X88637879Y-118244707D01*
X88646502Y-118256333D01*
X88653943Y-118268749D01*
X88660132Y-118281834D01*
X88665009Y-118295463D01*
X88668526Y-118309504D01*
X88670650Y-118323822D01*
X88671360Y-118338280D01*
X88671360Y-118633280D01*
X88670650Y-118647738D01*
X88668526Y-118662056D01*
X88665009Y-118676097D01*
X88660132Y-118689726D01*
X88653943Y-118702811D01*
X88646502Y-118715227D01*
X88637879Y-118726853D01*
X88628158Y-118737578D01*
X88617433Y-118747299D01*
X88605807Y-118755922D01*
X88593391Y-118763363D01*
X88580306Y-118769552D01*
X88566677Y-118774429D01*
X88552636Y-118777946D01*
X88538318Y-118780070D01*
X88523860Y-118780780D01*
X88178860Y-118780780D01*
X88164402Y-118780070D01*
X88150084Y-118777946D01*
X88136043Y-118774429D01*
X88122414Y-118769552D01*
X88109329Y-118763363D01*
X88096913Y-118755922D01*
X88085287Y-118747299D01*
X88074562Y-118737578D01*
X88064841Y-118726853D01*
X88056218Y-118715227D01*
X88048777Y-118702811D01*
X88042588Y-118689726D01*
X88037711Y-118676097D01*
X88034194Y-118662056D01*
X88032070Y-118647738D01*
X88031360Y-118633280D01*
X88031360Y-118338280D01*
X88032070Y-118323822D01*
X88034194Y-118309504D01*
X88037711Y-118295463D01*
X88042588Y-118281834D01*
X88048777Y-118268749D01*
X88056218Y-118256333D01*
X88064841Y-118244707D01*
X88074562Y-118233982D01*
X88085287Y-118224261D01*
X88096913Y-118215638D01*
X88109329Y-118208197D01*
X88122414Y-118202008D01*
X88136043Y-118197131D01*
X88150084Y-118193614D01*
X88164402Y-118191490D01*
X88178860Y-118190780D01*
X88523860Y-118190780D01*
X88538318Y-118191490D01*
X88538318Y-118191490D01*
G37*
D11*
X88351360Y-118485780D03*
D10*
G36*
X88538318Y-117221490D02*
G01*
X88552636Y-117223614D01*
X88566677Y-117227131D01*
X88580306Y-117232008D01*
X88593391Y-117238197D01*
X88605807Y-117245638D01*
X88617433Y-117254261D01*
X88628158Y-117263982D01*
X88637879Y-117274707D01*
X88646502Y-117286333D01*
X88653943Y-117298749D01*
X88660132Y-117311834D01*
X88665009Y-117325463D01*
X88668526Y-117339504D01*
X88670650Y-117353822D01*
X88671360Y-117368280D01*
X88671360Y-117663280D01*
X88670650Y-117677738D01*
X88668526Y-117692056D01*
X88665009Y-117706097D01*
X88660132Y-117719726D01*
X88653943Y-117732811D01*
X88646502Y-117745227D01*
X88637879Y-117756853D01*
X88628158Y-117767578D01*
X88617433Y-117777299D01*
X88605807Y-117785922D01*
X88593391Y-117793363D01*
X88580306Y-117799552D01*
X88566677Y-117804429D01*
X88552636Y-117807946D01*
X88538318Y-117810070D01*
X88523860Y-117810780D01*
X88178860Y-117810780D01*
X88164402Y-117810070D01*
X88150084Y-117807946D01*
X88136043Y-117804429D01*
X88122414Y-117799552D01*
X88109329Y-117793363D01*
X88096913Y-117785922D01*
X88085287Y-117777299D01*
X88074562Y-117767578D01*
X88064841Y-117756853D01*
X88056218Y-117745227D01*
X88048777Y-117732811D01*
X88042588Y-117719726D01*
X88037711Y-117706097D01*
X88034194Y-117692056D01*
X88032070Y-117677738D01*
X88031360Y-117663280D01*
X88031360Y-117368280D01*
X88032070Y-117353822D01*
X88034194Y-117339504D01*
X88037711Y-117325463D01*
X88042588Y-117311834D01*
X88048777Y-117298749D01*
X88056218Y-117286333D01*
X88064841Y-117274707D01*
X88074562Y-117263982D01*
X88085287Y-117254261D01*
X88096913Y-117245638D01*
X88109329Y-117238197D01*
X88122414Y-117232008D01*
X88136043Y-117227131D01*
X88150084Y-117223614D01*
X88164402Y-117221490D01*
X88178860Y-117220780D01*
X88523860Y-117220780D01*
X88538318Y-117221490D01*
X88538318Y-117221490D01*
G37*
D11*
X88351360Y-117515780D03*
D10*
G36*
X87573658Y-116182890D02*
G01*
X87587976Y-116185014D01*
X87602017Y-116188531D01*
X87615646Y-116193408D01*
X87628731Y-116199597D01*
X87641147Y-116207038D01*
X87652773Y-116215661D01*
X87663498Y-116225382D01*
X87673219Y-116236107D01*
X87681842Y-116247733D01*
X87689283Y-116260149D01*
X87695472Y-116273234D01*
X87700349Y-116286863D01*
X87703866Y-116300904D01*
X87705990Y-116315222D01*
X87706700Y-116329680D01*
X87706700Y-116674680D01*
X87705990Y-116689138D01*
X87703866Y-116703456D01*
X87700349Y-116717497D01*
X87695472Y-116731126D01*
X87689283Y-116744211D01*
X87681842Y-116756627D01*
X87673219Y-116768253D01*
X87663498Y-116778978D01*
X87652773Y-116788699D01*
X87641147Y-116797322D01*
X87628731Y-116804763D01*
X87615646Y-116810952D01*
X87602017Y-116815829D01*
X87587976Y-116819346D01*
X87573658Y-116821470D01*
X87559200Y-116822180D01*
X87264200Y-116822180D01*
X87249742Y-116821470D01*
X87235424Y-116819346D01*
X87221383Y-116815829D01*
X87207754Y-116810952D01*
X87194669Y-116804763D01*
X87182253Y-116797322D01*
X87170627Y-116788699D01*
X87159902Y-116778978D01*
X87150181Y-116768253D01*
X87141558Y-116756627D01*
X87134117Y-116744211D01*
X87127928Y-116731126D01*
X87123051Y-116717497D01*
X87119534Y-116703456D01*
X87117410Y-116689138D01*
X87116700Y-116674680D01*
X87116700Y-116329680D01*
X87117410Y-116315222D01*
X87119534Y-116300904D01*
X87123051Y-116286863D01*
X87127928Y-116273234D01*
X87134117Y-116260149D01*
X87141558Y-116247733D01*
X87150181Y-116236107D01*
X87159902Y-116225382D01*
X87170627Y-116215661D01*
X87182253Y-116207038D01*
X87194669Y-116199597D01*
X87207754Y-116193408D01*
X87221383Y-116188531D01*
X87235424Y-116185014D01*
X87249742Y-116182890D01*
X87264200Y-116182180D01*
X87559200Y-116182180D01*
X87573658Y-116182890D01*
X87573658Y-116182890D01*
G37*
D11*
X87411700Y-116502180D03*
D10*
G36*
X88543658Y-116182890D02*
G01*
X88557976Y-116185014D01*
X88572017Y-116188531D01*
X88585646Y-116193408D01*
X88598731Y-116199597D01*
X88611147Y-116207038D01*
X88622773Y-116215661D01*
X88633498Y-116225382D01*
X88643219Y-116236107D01*
X88651842Y-116247733D01*
X88659283Y-116260149D01*
X88665472Y-116273234D01*
X88670349Y-116286863D01*
X88673866Y-116300904D01*
X88675990Y-116315222D01*
X88676700Y-116329680D01*
X88676700Y-116674680D01*
X88675990Y-116689138D01*
X88673866Y-116703456D01*
X88670349Y-116717497D01*
X88665472Y-116731126D01*
X88659283Y-116744211D01*
X88651842Y-116756627D01*
X88643219Y-116768253D01*
X88633498Y-116778978D01*
X88622773Y-116788699D01*
X88611147Y-116797322D01*
X88598731Y-116804763D01*
X88585646Y-116810952D01*
X88572017Y-116815829D01*
X88557976Y-116819346D01*
X88543658Y-116821470D01*
X88529200Y-116822180D01*
X88234200Y-116822180D01*
X88219742Y-116821470D01*
X88205424Y-116819346D01*
X88191383Y-116815829D01*
X88177754Y-116810952D01*
X88164669Y-116804763D01*
X88152253Y-116797322D01*
X88140627Y-116788699D01*
X88129902Y-116778978D01*
X88120181Y-116768253D01*
X88111558Y-116756627D01*
X88104117Y-116744211D01*
X88097928Y-116731126D01*
X88093051Y-116717497D01*
X88089534Y-116703456D01*
X88087410Y-116689138D01*
X88086700Y-116674680D01*
X88086700Y-116329680D01*
X88087410Y-116315222D01*
X88089534Y-116300904D01*
X88093051Y-116286863D01*
X88097928Y-116273234D01*
X88104117Y-116260149D01*
X88111558Y-116247733D01*
X88120181Y-116236107D01*
X88129902Y-116225382D01*
X88140627Y-116215661D01*
X88152253Y-116207038D01*
X88164669Y-116199597D01*
X88177754Y-116193408D01*
X88191383Y-116188531D01*
X88205424Y-116185014D01*
X88219742Y-116182890D01*
X88234200Y-116182180D01*
X88529200Y-116182180D01*
X88543658Y-116182890D01*
X88543658Y-116182890D01*
G37*
D11*
X88381700Y-116502180D03*
D12*
X104284000Y-122712000D03*
X104284000Y-122062000D03*
X104284000Y-121412000D03*
X104284000Y-120762000D03*
X104284000Y-120112000D03*
D13*
X106934000Y-125412000D03*
X106934000Y-122612000D03*
X106934000Y-120212000D03*
X106934000Y-117412000D03*
D14*
X93651700Y-117652800D03*
X92301700Y-117652800D03*
D15*
X88011000Y-113425600D03*
X88011000Y-112075600D03*
D14*
X91908000Y-105933240D03*
X93258000Y-105933240D03*
D10*
G36*
X91834901Y-108385241D02*
G01*
X91839755Y-108385961D01*
X91844514Y-108387153D01*
X91849134Y-108388806D01*
X91853570Y-108390904D01*
X91857779Y-108393427D01*
X91861720Y-108396349D01*
X91865355Y-108399645D01*
X91868651Y-108403280D01*
X91871573Y-108407221D01*
X91874096Y-108411430D01*
X91876194Y-108415866D01*
X91877847Y-108420486D01*
X91879039Y-108425245D01*
X91879759Y-108430099D01*
X91880000Y-108435000D01*
X91880000Y-109185000D01*
X91879759Y-109189901D01*
X91879039Y-109194755D01*
X91877847Y-109199514D01*
X91876194Y-109204134D01*
X91874096Y-109208570D01*
X91871573Y-109212779D01*
X91868651Y-109216720D01*
X91865355Y-109220355D01*
X91861720Y-109223651D01*
X91857779Y-109226573D01*
X91853570Y-109229096D01*
X91849134Y-109231194D01*
X91844514Y-109232847D01*
X91839755Y-109234039D01*
X91834901Y-109234759D01*
X91830000Y-109235000D01*
X91730000Y-109235000D01*
X91725099Y-109234759D01*
X91720245Y-109234039D01*
X91715486Y-109232847D01*
X91710866Y-109231194D01*
X91706430Y-109229096D01*
X91702221Y-109226573D01*
X91698280Y-109223651D01*
X91694645Y-109220355D01*
X91691349Y-109216720D01*
X91688427Y-109212779D01*
X91685904Y-109208570D01*
X91683806Y-109204134D01*
X91682153Y-109199514D01*
X91680961Y-109194755D01*
X91680241Y-109189901D01*
X91680000Y-109185000D01*
X91680000Y-108435000D01*
X91680241Y-108430099D01*
X91680961Y-108425245D01*
X91682153Y-108420486D01*
X91683806Y-108415866D01*
X91685904Y-108411430D01*
X91688427Y-108407221D01*
X91691349Y-108403280D01*
X91694645Y-108399645D01*
X91698280Y-108396349D01*
X91702221Y-108393427D01*
X91706430Y-108390904D01*
X91710866Y-108388806D01*
X91715486Y-108387153D01*
X91720245Y-108385961D01*
X91725099Y-108385241D01*
X91730000Y-108385000D01*
X91830000Y-108385000D01*
X91834901Y-108385241D01*
X91834901Y-108385241D01*
G37*
D16*
X91780000Y-108810000D03*
D10*
G36*
X92234901Y-108385241D02*
G01*
X92239755Y-108385961D01*
X92244514Y-108387153D01*
X92249134Y-108388806D01*
X92253570Y-108390904D01*
X92257779Y-108393427D01*
X92261720Y-108396349D01*
X92265355Y-108399645D01*
X92268651Y-108403280D01*
X92271573Y-108407221D01*
X92274096Y-108411430D01*
X92276194Y-108415866D01*
X92277847Y-108420486D01*
X92279039Y-108425245D01*
X92279759Y-108430099D01*
X92280000Y-108435000D01*
X92280000Y-109185000D01*
X92279759Y-109189901D01*
X92279039Y-109194755D01*
X92277847Y-109199514D01*
X92276194Y-109204134D01*
X92274096Y-109208570D01*
X92271573Y-109212779D01*
X92268651Y-109216720D01*
X92265355Y-109220355D01*
X92261720Y-109223651D01*
X92257779Y-109226573D01*
X92253570Y-109229096D01*
X92249134Y-109231194D01*
X92244514Y-109232847D01*
X92239755Y-109234039D01*
X92234901Y-109234759D01*
X92230000Y-109235000D01*
X92130000Y-109235000D01*
X92125099Y-109234759D01*
X92120245Y-109234039D01*
X92115486Y-109232847D01*
X92110866Y-109231194D01*
X92106430Y-109229096D01*
X92102221Y-109226573D01*
X92098280Y-109223651D01*
X92094645Y-109220355D01*
X92091349Y-109216720D01*
X92088427Y-109212779D01*
X92085904Y-109208570D01*
X92083806Y-109204134D01*
X92082153Y-109199514D01*
X92080961Y-109194755D01*
X92080241Y-109189901D01*
X92080000Y-109185000D01*
X92080000Y-108435000D01*
X92080241Y-108430099D01*
X92080961Y-108425245D01*
X92082153Y-108420486D01*
X92083806Y-108415866D01*
X92085904Y-108411430D01*
X92088427Y-108407221D01*
X92091349Y-108403280D01*
X92094645Y-108399645D01*
X92098280Y-108396349D01*
X92102221Y-108393427D01*
X92106430Y-108390904D01*
X92110866Y-108388806D01*
X92115486Y-108387153D01*
X92120245Y-108385961D01*
X92125099Y-108385241D01*
X92130000Y-108385000D01*
X92230000Y-108385000D01*
X92234901Y-108385241D01*
X92234901Y-108385241D01*
G37*
D16*
X92180000Y-108810000D03*
D10*
G36*
X92634901Y-108385241D02*
G01*
X92639755Y-108385961D01*
X92644514Y-108387153D01*
X92649134Y-108388806D01*
X92653570Y-108390904D01*
X92657779Y-108393427D01*
X92661720Y-108396349D01*
X92665355Y-108399645D01*
X92668651Y-108403280D01*
X92671573Y-108407221D01*
X92674096Y-108411430D01*
X92676194Y-108415866D01*
X92677847Y-108420486D01*
X92679039Y-108425245D01*
X92679759Y-108430099D01*
X92680000Y-108435000D01*
X92680000Y-109185000D01*
X92679759Y-109189901D01*
X92679039Y-109194755D01*
X92677847Y-109199514D01*
X92676194Y-109204134D01*
X92674096Y-109208570D01*
X92671573Y-109212779D01*
X92668651Y-109216720D01*
X92665355Y-109220355D01*
X92661720Y-109223651D01*
X92657779Y-109226573D01*
X92653570Y-109229096D01*
X92649134Y-109231194D01*
X92644514Y-109232847D01*
X92639755Y-109234039D01*
X92634901Y-109234759D01*
X92630000Y-109235000D01*
X92530000Y-109235000D01*
X92525099Y-109234759D01*
X92520245Y-109234039D01*
X92515486Y-109232847D01*
X92510866Y-109231194D01*
X92506430Y-109229096D01*
X92502221Y-109226573D01*
X92498280Y-109223651D01*
X92494645Y-109220355D01*
X92491349Y-109216720D01*
X92488427Y-109212779D01*
X92485904Y-109208570D01*
X92483806Y-109204134D01*
X92482153Y-109199514D01*
X92480961Y-109194755D01*
X92480241Y-109189901D01*
X92480000Y-109185000D01*
X92480000Y-108435000D01*
X92480241Y-108430099D01*
X92480961Y-108425245D01*
X92482153Y-108420486D01*
X92483806Y-108415866D01*
X92485904Y-108411430D01*
X92488427Y-108407221D01*
X92491349Y-108403280D01*
X92494645Y-108399645D01*
X92498280Y-108396349D01*
X92502221Y-108393427D01*
X92506430Y-108390904D01*
X92510866Y-108388806D01*
X92515486Y-108387153D01*
X92520245Y-108385961D01*
X92525099Y-108385241D01*
X92530000Y-108385000D01*
X92630000Y-108385000D01*
X92634901Y-108385241D01*
X92634901Y-108385241D01*
G37*
D16*
X92580000Y-108810000D03*
D10*
G36*
X93034901Y-108385241D02*
G01*
X93039755Y-108385961D01*
X93044514Y-108387153D01*
X93049134Y-108388806D01*
X93053570Y-108390904D01*
X93057779Y-108393427D01*
X93061720Y-108396349D01*
X93065355Y-108399645D01*
X93068651Y-108403280D01*
X93071573Y-108407221D01*
X93074096Y-108411430D01*
X93076194Y-108415866D01*
X93077847Y-108420486D01*
X93079039Y-108425245D01*
X93079759Y-108430099D01*
X93080000Y-108435000D01*
X93080000Y-109185000D01*
X93079759Y-109189901D01*
X93079039Y-109194755D01*
X93077847Y-109199514D01*
X93076194Y-109204134D01*
X93074096Y-109208570D01*
X93071573Y-109212779D01*
X93068651Y-109216720D01*
X93065355Y-109220355D01*
X93061720Y-109223651D01*
X93057779Y-109226573D01*
X93053570Y-109229096D01*
X93049134Y-109231194D01*
X93044514Y-109232847D01*
X93039755Y-109234039D01*
X93034901Y-109234759D01*
X93030000Y-109235000D01*
X92930000Y-109235000D01*
X92925099Y-109234759D01*
X92920245Y-109234039D01*
X92915486Y-109232847D01*
X92910866Y-109231194D01*
X92906430Y-109229096D01*
X92902221Y-109226573D01*
X92898280Y-109223651D01*
X92894645Y-109220355D01*
X92891349Y-109216720D01*
X92888427Y-109212779D01*
X92885904Y-109208570D01*
X92883806Y-109204134D01*
X92882153Y-109199514D01*
X92880961Y-109194755D01*
X92880241Y-109189901D01*
X92880000Y-109185000D01*
X92880000Y-108435000D01*
X92880241Y-108430099D01*
X92880961Y-108425245D01*
X92882153Y-108420486D01*
X92883806Y-108415866D01*
X92885904Y-108411430D01*
X92888427Y-108407221D01*
X92891349Y-108403280D01*
X92894645Y-108399645D01*
X92898280Y-108396349D01*
X92902221Y-108393427D01*
X92906430Y-108390904D01*
X92910866Y-108388806D01*
X92915486Y-108387153D01*
X92920245Y-108385961D01*
X92925099Y-108385241D01*
X92930000Y-108385000D01*
X93030000Y-108385000D01*
X93034901Y-108385241D01*
X93034901Y-108385241D01*
G37*
D16*
X92980000Y-108810000D03*
D10*
G36*
X93434901Y-108385241D02*
G01*
X93439755Y-108385961D01*
X93444514Y-108387153D01*
X93449134Y-108388806D01*
X93453570Y-108390904D01*
X93457779Y-108393427D01*
X93461720Y-108396349D01*
X93465355Y-108399645D01*
X93468651Y-108403280D01*
X93471573Y-108407221D01*
X93474096Y-108411430D01*
X93476194Y-108415866D01*
X93477847Y-108420486D01*
X93479039Y-108425245D01*
X93479759Y-108430099D01*
X93480000Y-108435000D01*
X93480000Y-109185000D01*
X93479759Y-109189901D01*
X93479039Y-109194755D01*
X93477847Y-109199514D01*
X93476194Y-109204134D01*
X93474096Y-109208570D01*
X93471573Y-109212779D01*
X93468651Y-109216720D01*
X93465355Y-109220355D01*
X93461720Y-109223651D01*
X93457779Y-109226573D01*
X93453570Y-109229096D01*
X93449134Y-109231194D01*
X93444514Y-109232847D01*
X93439755Y-109234039D01*
X93434901Y-109234759D01*
X93430000Y-109235000D01*
X93330000Y-109235000D01*
X93325099Y-109234759D01*
X93320245Y-109234039D01*
X93315486Y-109232847D01*
X93310866Y-109231194D01*
X93306430Y-109229096D01*
X93302221Y-109226573D01*
X93298280Y-109223651D01*
X93294645Y-109220355D01*
X93291349Y-109216720D01*
X93288427Y-109212779D01*
X93285904Y-109208570D01*
X93283806Y-109204134D01*
X93282153Y-109199514D01*
X93280961Y-109194755D01*
X93280241Y-109189901D01*
X93280000Y-109185000D01*
X93280000Y-108435000D01*
X93280241Y-108430099D01*
X93280961Y-108425245D01*
X93282153Y-108420486D01*
X93283806Y-108415866D01*
X93285904Y-108411430D01*
X93288427Y-108407221D01*
X93291349Y-108403280D01*
X93294645Y-108399645D01*
X93298280Y-108396349D01*
X93302221Y-108393427D01*
X93306430Y-108390904D01*
X93310866Y-108388806D01*
X93315486Y-108387153D01*
X93320245Y-108385961D01*
X93325099Y-108385241D01*
X93330000Y-108385000D01*
X93430000Y-108385000D01*
X93434901Y-108385241D01*
X93434901Y-108385241D01*
G37*
D16*
X93380000Y-108810000D03*
D10*
G36*
X93834901Y-108385241D02*
G01*
X93839755Y-108385961D01*
X93844514Y-108387153D01*
X93849134Y-108388806D01*
X93853570Y-108390904D01*
X93857779Y-108393427D01*
X93861720Y-108396349D01*
X93865355Y-108399645D01*
X93868651Y-108403280D01*
X93871573Y-108407221D01*
X93874096Y-108411430D01*
X93876194Y-108415866D01*
X93877847Y-108420486D01*
X93879039Y-108425245D01*
X93879759Y-108430099D01*
X93880000Y-108435000D01*
X93880000Y-109185000D01*
X93879759Y-109189901D01*
X93879039Y-109194755D01*
X93877847Y-109199514D01*
X93876194Y-109204134D01*
X93874096Y-109208570D01*
X93871573Y-109212779D01*
X93868651Y-109216720D01*
X93865355Y-109220355D01*
X93861720Y-109223651D01*
X93857779Y-109226573D01*
X93853570Y-109229096D01*
X93849134Y-109231194D01*
X93844514Y-109232847D01*
X93839755Y-109234039D01*
X93834901Y-109234759D01*
X93830000Y-109235000D01*
X93730000Y-109235000D01*
X93725099Y-109234759D01*
X93720245Y-109234039D01*
X93715486Y-109232847D01*
X93710866Y-109231194D01*
X93706430Y-109229096D01*
X93702221Y-109226573D01*
X93698280Y-109223651D01*
X93694645Y-109220355D01*
X93691349Y-109216720D01*
X93688427Y-109212779D01*
X93685904Y-109208570D01*
X93683806Y-109204134D01*
X93682153Y-109199514D01*
X93680961Y-109194755D01*
X93680241Y-109189901D01*
X93680000Y-109185000D01*
X93680000Y-108435000D01*
X93680241Y-108430099D01*
X93680961Y-108425245D01*
X93682153Y-108420486D01*
X93683806Y-108415866D01*
X93685904Y-108411430D01*
X93688427Y-108407221D01*
X93691349Y-108403280D01*
X93694645Y-108399645D01*
X93698280Y-108396349D01*
X93702221Y-108393427D01*
X93706430Y-108390904D01*
X93710866Y-108388806D01*
X93715486Y-108387153D01*
X93720245Y-108385961D01*
X93725099Y-108385241D01*
X93730000Y-108385000D01*
X93830000Y-108385000D01*
X93834901Y-108385241D01*
X93834901Y-108385241D01*
G37*
D16*
X93780000Y-108810000D03*
D10*
G36*
X94234901Y-108385241D02*
G01*
X94239755Y-108385961D01*
X94244514Y-108387153D01*
X94249134Y-108388806D01*
X94253570Y-108390904D01*
X94257779Y-108393427D01*
X94261720Y-108396349D01*
X94265355Y-108399645D01*
X94268651Y-108403280D01*
X94271573Y-108407221D01*
X94274096Y-108411430D01*
X94276194Y-108415866D01*
X94277847Y-108420486D01*
X94279039Y-108425245D01*
X94279759Y-108430099D01*
X94280000Y-108435000D01*
X94280000Y-109185000D01*
X94279759Y-109189901D01*
X94279039Y-109194755D01*
X94277847Y-109199514D01*
X94276194Y-109204134D01*
X94274096Y-109208570D01*
X94271573Y-109212779D01*
X94268651Y-109216720D01*
X94265355Y-109220355D01*
X94261720Y-109223651D01*
X94257779Y-109226573D01*
X94253570Y-109229096D01*
X94249134Y-109231194D01*
X94244514Y-109232847D01*
X94239755Y-109234039D01*
X94234901Y-109234759D01*
X94230000Y-109235000D01*
X94130000Y-109235000D01*
X94125099Y-109234759D01*
X94120245Y-109234039D01*
X94115486Y-109232847D01*
X94110866Y-109231194D01*
X94106430Y-109229096D01*
X94102221Y-109226573D01*
X94098280Y-109223651D01*
X94094645Y-109220355D01*
X94091349Y-109216720D01*
X94088427Y-109212779D01*
X94085904Y-109208570D01*
X94083806Y-109204134D01*
X94082153Y-109199514D01*
X94080961Y-109194755D01*
X94080241Y-109189901D01*
X94080000Y-109185000D01*
X94080000Y-108435000D01*
X94080241Y-108430099D01*
X94080961Y-108425245D01*
X94082153Y-108420486D01*
X94083806Y-108415866D01*
X94085904Y-108411430D01*
X94088427Y-108407221D01*
X94091349Y-108403280D01*
X94094645Y-108399645D01*
X94098280Y-108396349D01*
X94102221Y-108393427D01*
X94106430Y-108390904D01*
X94110866Y-108388806D01*
X94115486Y-108387153D01*
X94120245Y-108385961D01*
X94125099Y-108385241D01*
X94130000Y-108385000D01*
X94230000Y-108385000D01*
X94234901Y-108385241D01*
X94234901Y-108385241D01*
G37*
D16*
X94180000Y-108810000D03*
D10*
G36*
X94634901Y-108385241D02*
G01*
X94639755Y-108385961D01*
X94644514Y-108387153D01*
X94649134Y-108388806D01*
X94653570Y-108390904D01*
X94657779Y-108393427D01*
X94661720Y-108396349D01*
X94665355Y-108399645D01*
X94668651Y-108403280D01*
X94671573Y-108407221D01*
X94674096Y-108411430D01*
X94676194Y-108415866D01*
X94677847Y-108420486D01*
X94679039Y-108425245D01*
X94679759Y-108430099D01*
X94680000Y-108435000D01*
X94680000Y-109185000D01*
X94679759Y-109189901D01*
X94679039Y-109194755D01*
X94677847Y-109199514D01*
X94676194Y-109204134D01*
X94674096Y-109208570D01*
X94671573Y-109212779D01*
X94668651Y-109216720D01*
X94665355Y-109220355D01*
X94661720Y-109223651D01*
X94657779Y-109226573D01*
X94653570Y-109229096D01*
X94649134Y-109231194D01*
X94644514Y-109232847D01*
X94639755Y-109234039D01*
X94634901Y-109234759D01*
X94630000Y-109235000D01*
X94530000Y-109235000D01*
X94525099Y-109234759D01*
X94520245Y-109234039D01*
X94515486Y-109232847D01*
X94510866Y-109231194D01*
X94506430Y-109229096D01*
X94502221Y-109226573D01*
X94498280Y-109223651D01*
X94494645Y-109220355D01*
X94491349Y-109216720D01*
X94488427Y-109212779D01*
X94485904Y-109208570D01*
X94483806Y-109204134D01*
X94482153Y-109199514D01*
X94480961Y-109194755D01*
X94480241Y-109189901D01*
X94480000Y-109185000D01*
X94480000Y-108435000D01*
X94480241Y-108430099D01*
X94480961Y-108425245D01*
X94482153Y-108420486D01*
X94483806Y-108415866D01*
X94485904Y-108411430D01*
X94488427Y-108407221D01*
X94491349Y-108403280D01*
X94494645Y-108399645D01*
X94498280Y-108396349D01*
X94502221Y-108393427D01*
X94506430Y-108390904D01*
X94510866Y-108388806D01*
X94515486Y-108387153D01*
X94520245Y-108385961D01*
X94525099Y-108385241D01*
X94530000Y-108385000D01*
X94630000Y-108385000D01*
X94634901Y-108385241D01*
X94634901Y-108385241D01*
G37*
D16*
X94580000Y-108810000D03*
D10*
G36*
X95034901Y-108385241D02*
G01*
X95039755Y-108385961D01*
X95044514Y-108387153D01*
X95049134Y-108388806D01*
X95053570Y-108390904D01*
X95057779Y-108393427D01*
X95061720Y-108396349D01*
X95065355Y-108399645D01*
X95068651Y-108403280D01*
X95071573Y-108407221D01*
X95074096Y-108411430D01*
X95076194Y-108415866D01*
X95077847Y-108420486D01*
X95079039Y-108425245D01*
X95079759Y-108430099D01*
X95080000Y-108435000D01*
X95080000Y-109185000D01*
X95079759Y-109189901D01*
X95079039Y-109194755D01*
X95077847Y-109199514D01*
X95076194Y-109204134D01*
X95074096Y-109208570D01*
X95071573Y-109212779D01*
X95068651Y-109216720D01*
X95065355Y-109220355D01*
X95061720Y-109223651D01*
X95057779Y-109226573D01*
X95053570Y-109229096D01*
X95049134Y-109231194D01*
X95044514Y-109232847D01*
X95039755Y-109234039D01*
X95034901Y-109234759D01*
X95030000Y-109235000D01*
X94930000Y-109235000D01*
X94925099Y-109234759D01*
X94920245Y-109234039D01*
X94915486Y-109232847D01*
X94910866Y-109231194D01*
X94906430Y-109229096D01*
X94902221Y-109226573D01*
X94898280Y-109223651D01*
X94894645Y-109220355D01*
X94891349Y-109216720D01*
X94888427Y-109212779D01*
X94885904Y-109208570D01*
X94883806Y-109204134D01*
X94882153Y-109199514D01*
X94880961Y-109194755D01*
X94880241Y-109189901D01*
X94880000Y-109185000D01*
X94880000Y-108435000D01*
X94880241Y-108430099D01*
X94880961Y-108425245D01*
X94882153Y-108420486D01*
X94883806Y-108415866D01*
X94885904Y-108411430D01*
X94888427Y-108407221D01*
X94891349Y-108403280D01*
X94894645Y-108399645D01*
X94898280Y-108396349D01*
X94902221Y-108393427D01*
X94906430Y-108390904D01*
X94910866Y-108388806D01*
X94915486Y-108387153D01*
X94920245Y-108385961D01*
X94925099Y-108385241D01*
X94930000Y-108385000D01*
X95030000Y-108385000D01*
X95034901Y-108385241D01*
X95034901Y-108385241D01*
G37*
D16*
X94980000Y-108810000D03*
D10*
G36*
X95434901Y-108385241D02*
G01*
X95439755Y-108385961D01*
X95444514Y-108387153D01*
X95449134Y-108388806D01*
X95453570Y-108390904D01*
X95457779Y-108393427D01*
X95461720Y-108396349D01*
X95465355Y-108399645D01*
X95468651Y-108403280D01*
X95471573Y-108407221D01*
X95474096Y-108411430D01*
X95476194Y-108415866D01*
X95477847Y-108420486D01*
X95479039Y-108425245D01*
X95479759Y-108430099D01*
X95480000Y-108435000D01*
X95480000Y-109185000D01*
X95479759Y-109189901D01*
X95479039Y-109194755D01*
X95477847Y-109199514D01*
X95476194Y-109204134D01*
X95474096Y-109208570D01*
X95471573Y-109212779D01*
X95468651Y-109216720D01*
X95465355Y-109220355D01*
X95461720Y-109223651D01*
X95457779Y-109226573D01*
X95453570Y-109229096D01*
X95449134Y-109231194D01*
X95444514Y-109232847D01*
X95439755Y-109234039D01*
X95434901Y-109234759D01*
X95430000Y-109235000D01*
X95330000Y-109235000D01*
X95325099Y-109234759D01*
X95320245Y-109234039D01*
X95315486Y-109232847D01*
X95310866Y-109231194D01*
X95306430Y-109229096D01*
X95302221Y-109226573D01*
X95298280Y-109223651D01*
X95294645Y-109220355D01*
X95291349Y-109216720D01*
X95288427Y-109212779D01*
X95285904Y-109208570D01*
X95283806Y-109204134D01*
X95282153Y-109199514D01*
X95280961Y-109194755D01*
X95280241Y-109189901D01*
X95280000Y-109185000D01*
X95280000Y-108435000D01*
X95280241Y-108430099D01*
X95280961Y-108425245D01*
X95282153Y-108420486D01*
X95283806Y-108415866D01*
X95285904Y-108411430D01*
X95288427Y-108407221D01*
X95291349Y-108403280D01*
X95294645Y-108399645D01*
X95298280Y-108396349D01*
X95302221Y-108393427D01*
X95306430Y-108390904D01*
X95310866Y-108388806D01*
X95315486Y-108387153D01*
X95320245Y-108385961D01*
X95325099Y-108385241D01*
X95330000Y-108385000D01*
X95430000Y-108385000D01*
X95434901Y-108385241D01*
X95434901Y-108385241D01*
G37*
D16*
X95380000Y-108810000D03*
D10*
G36*
X95834901Y-108385241D02*
G01*
X95839755Y-108385961D01*
X95844514Y-108387153D01*
X95849134Y-108388806D01*
X95853570Y-108390904D01*
X95857779Y-108393427D01*
X95861720Y-108396349D01*
X95865355Y-108399645D01*
X95868651Y-108403280D01*
X95871573Y-108407221D01*
X95874096Y-108411430D01*
X95876194Y-108415866D01*
X95877847Y-108420486D01*
X95879039Y-108425245D01*
X95879759Y-108430099D01*
X95880000Y-108435000D01*
X95880000Y-109185000D01*
X95879759Y-109189901D01*
X95879039Y-109194755D01*
X95877847Y-109199514D01*
X95876194Y-109204134D01*
X95874096Y-109208570D01*
X95871573Y-109212779D01*
X95868651Y-109216720D01*
X95865355Y-109220355D01*
X95861720Y-109223651D01*
X95857779Y-109226573D01*
X95853570Y-109229096D01*
X95849134Y-109231194D01*
X95844514Y-109232847D01*
X95839755Y-109234039D01*
X95834901Y-109234759D01*
X95830000Y-109235000D01*
X95730000Y-109235000D01*
X95725099Y-109234759D01*
X95720245Y-109234039D01*
X95715486Y-109232847D01*
X95710866Y-109231194D01*
X95706430Y-109229096D01*
X95702221Y-109226573D01*
X95698280Y-109223651D01*
X95694645Y-109220355D01*
X95691349Y-109216720D01*
X95688427Y-109212779D01*
X95685904Y-109208570D01*
X95683806Y-109204134D01*
X95682153Y-109199514D01*
X95680961Y-109194755D01*
X95680241Y-109189901D01*
X95680000Y-109185000D01*
X95680000Y-108435000D01*
X95680241Y-108430099D01*
X95680961Y-108425245D01*
X95682153Y-108420486D01*
X95683806Y-108415866D01*
X95685904Y-108411430D01*
X95688427Y-108407221D01*
X95691349Y-108403280D01*
X95694645Y-108399645D01*
X95698280Y-108396349D01*
X95702221Y-108393427D01*
X95706430Y-108390904D01*
X95710866Y-108388806D01*
X95715486Y-108387153D01*
X95720245Y-108385961D01*
X95725099Y-108385241D01*
X95730000Y-108385000D01*
X95830000Y-108385000D01*
X95834901Y-108385241D01*
X95834901Y-108385241D01*
G37*
D16*
X95780000Y-108810000D03*
D10*
G36*
X96234901Y-108385241D02*
G01*
X96239755Y-108385961D01*
X96244514Y-108387153D01*
X96249134Y-108388806D01*
X96253570Y-108390904D01*
X96257779Y-108393427D01*
X96261720Y-108396349D01*
X96265355Y-108399645D01*
X96268651Y-108403280D01*
X96271573Y-108407221D01*
X96274096Y-108411430D01*
X96276194Y-108415866D01*
X96277847Y-108420486D01*
X96279039Y-108425245D01*
X96279759Y-108430099D01*
X96280000Y-108435000D01*
X96280000Y-109185000D01*
X96279759Y-109189901D01*
X96279039Y-109194755D01*
X96277847Y-109199514D01*
X96276194Y-109204134D01*
X96274096Y-109208570D01*
X96271573Y-109212779D01*
X96268651Y-109216720D01*
X96265355Y-109220355D01*
X96261720Y-109223651D01*
X96257779Y-109226573D01*
X96253570Y-109229096D01*
X96249134Y-109231194D01*
X96244514Y-109232847D01*
X96239755Y-109234039D01*
X96234901Y-109234759D01*
X96230000Y-109235000D01*
X96130000Y-109235000D01*
X96125099Y-109234759D01*
X96120245Y-109234039D01*
X96115486Y-109232847D01*
X96110866Y-109231194D01*
X96106430Y-109229096D01*
X96102221Y-109226573D01*
X96098280Y-109223651D01*
X96094645Y-109220355D01*
X96091349Y-109216720D01*
X96088427Y-109212779D01*
X96085904Y-109208570D01*
X96083806Y-109204134D01*
X96082153Y-109199514D01*
X96080961Y-109194755D01*
X96080241Y-109189901D01*
X96080000Y-109185000D01*
X96080000Y-108435000D01*
X96080241Y-108430099D01*
X96080961Y-108425245D01*
X96082153Y-108420486D01*
X96083806Y-108415866D01*
X96085904Y-108411430D01*
X96088427Y-108407221D01*
X96091349Y-108403280D01*
X96094645Y-108399645D01*
X96098280Y-108396349D01*
X96102221Y-108393427D01*
X96106430Y-108390904D01*
X96110866Y-108388806D01*
X96115486Y-108387153D01*
X96120245Y-108385961D01*
X96125099Y-108385241D01*
X96130000Y-108385000D01*
X96230000Y-108385000D01*
X96234901Y-108385241D01*
X96234901Y-108385241D01*
G37*
D16*
X96180000Y-108810000D03*
D10*
G36*
X97309901Y-109460241D02*
G01*
X97314755Y-109460961D01*
X97319514Y-109462153D01*
X97324134Y-109463806D01*
X97328570Y-109465904D01*
X97332779Y-109468427D01*
X97336720Y-109471349D01*
X97340355Y-109474645D01*
X97343651Y-109478280D01*
X97346573Y-109482221D01*
X97349096Y-109486430D01*
X97351194Y-109490866D01*
X97352847Y-109495486D01*
X97354039Y-109500245D01*
X97354759Y-109505099D01*
X97355000Y-109510000D01*
X97355000Y-109610000D01*
X97354759Y-109614901D01*
X97354039Y-109619755D01*
X97352847Y-109624514D01*
X97351194Y-109629134D01*
X97349096Y-109633570D01*
X97346573Y-109637779D01*
X97343651Y-109641720D01*
X97340355Y-109645355D01*
X97336720Y-109648651D01*
X97332779Y-109651573D01*
X97328570Y-109654096D01*
X97324134Y-109656194D01*
X97319514Y-109657847D01*
X97314755Y-109659039D01*
X97309901Y-109659759D01*
X97305000Y-109660000D01*
X96555000Y-109660000D01*
X96550099Y-109659759D01*
X96545245Y-109659039D01*
X96540486Y-109657847D01*
X96535866Y-109656194D01*
X96531430Y-109654096D01*
X96527221Y-109651573D01*
X96523280Y-109648651D01*
X96519645Y-109645355D01*
X96516349Y-109641720D01*
X96513427Y-109637779D01*
X96510904Y-109633570D01*
X96508806Y-109629134D01*
X96507153Y-109624514D01*
X96505961Y-109619755D01*
X96505241Y-109614901D01*
X96505000Y-109610000D01*
X96505000Y-109510000D01*
X96505241Y-109505099D01*
X96505961Y-109500245D01*
X96507153Y-109495486D01*
X96508806Y-109490866D01*
X96510904Y-109486430D01*
X96513427Y-109482221D01*
X96516349Y-109478280D01*
X96519645Y-109474645D01*
X96523280Y-109471349D01*
X96527221Y-109468427D01*
X96531430Y-109465904D01*
X96535866Y-109463806D01*
X96540486Y-109462153D01*
X96545245Y-109460961D01*
X96550099Y-109460241D01*
X96555000Y-109460000D01*
X97305000Y-109460000D01*
X97309901Y-109460241D01*
X97309901Y-109460241D01*
G37*
D16*
X96930000Y-109560000D03*
D10*
G36*
X97309901Y-109860241D02*
G01*
X97314755Y-109860961D01*
X97319514Y-109862153D01*
X97324134Y-109863806D01*
X97328570Y-109865904D01*
X97332779Y-109868427D01*
X97336720Y-109871349D01*
X97340355Y-109874645D01*
X97343651Y-109878280D01*
X97346573Y-109882221D01*
X97349096Y-109886430D01*
X97351194Y-109890866D01*
X97352847Y-109895486D01*
X97354039Y-109900245D01*
X97354759Y-109905099D01*
X97355000Y-109910000D01*
X97355000Y-110010000D01*
X97354759Y-110014901D01*
X97354039Y-110019755D01*
X97352847Y-110024514D01*
X97351194Y-110029134D01*
X97349096Y-110033570D01*
X97346573Y-110037779D01*
X97343651Y-110041720D01*
X97340355Y-110045355D01*
X97336720Y-110048651D01*
X97332779Y-110051573D01*
X97328570Y-110054096D01*
X97324134Y-110056194D01*
X97319514Y-110057847D01*
X97314755Y-110059039D01*
X97309901Y-110059759D01*
X97305000Y-110060000D01*
X96555000Y-110060000D01*
X96550099Y-110059759D01*
X96545245Y-110059039D01*
X96540486Y-110057847D01*
X96535866Y-110056194D01*
X96531430Y-110054096D01*
X96527221Y-110051573D01*
X96523280Y-110048651D01*
X96519645Y-110045355D01*
X96516349Y-110041720D01*
X96513427Y-110037779D01*
X96510904Y-110033570D01*
X96508806Y-110029134D01*
X96507153Y-110024514D01*
X96505961Y-110019755D01*
X96505241Y-110014901D01*
X96505000Y-110010000D01*
X96505000Y-109910000D01*
X96505241Y-109905099D01*
X96505961Y-109900245D01*
X96507153Y-109895486D01*
X96508806Y-109890866D01*
X96510904Y-109886430D01*
X96513427Y-109882221D01*
X96516349Y-109878280D01*
X96519645Y-109874645D01*
X96523280Y-109871349D01*
X96527221Y-109868427D01*
X96531430Y-109865904D01*
X96535866Y-109863806D01*
X96540486Y-109862153D01*
X96545245Y-109860961D01*
X96550099Y-109860241D01*
X96555000Y-109860000D01*
X97305000Y-109860000D01*
X97309901Y-109860241D01*
X97309901Y-109860241D01*
G37*
D16*
X96930000Y-109960000D03*
D10*
G36*
X97309901Y-110260241D02*
G01*
X97314755Y-110260961D01*
X97319514Y-110262153D01*
X97324134Y-110263806D01*
X97328570Y-110265904D01*
X97332779Y-110268427D01*
X97336720Y-110271349D01*
X97340355Y-110274645D01*
X97343651Y-110278280D01*
X97346573Y-110282221D01*
X97349096Y-110286430D01*
X97351194Y-110290866D01*
X97352847Y-110295486D01*
X97354039Y-110300245D01*
X97354759Y-110305099D01*
X97355000Y-110310000D01*
X97355000Y-110410000D01*
X97354759Y-110414901D01*
X97354039Y-110419755D01*
X97352847Y-110424514D01*
X97351194Y-110429134D01*
X97349096Y-110433570D01*
X97346573Y-110437779D01*
X97343651Y-110441720D01*
X97340355Y-110445355D01*
X97336720Y-110448651D01*
X97332779Y-110451573D01*
X97328570Y-110454096D01*
X97324134Y-110456194D01*
X97319514Y-110457847D01*
X97314755Y-110459039D01*
X97309901Y-110459759D01*
X97305000Y-110460000D01*
X96555000Y-110460000D01*
X96550099Y-110459759D01*
X96545245Y-110459039D01*
X96540486Y-110457847D01*
X96535866Y-110456194D01*
X96531430Y-110454096D01*
X96527221Y-110451573D01*
X96523280Y-110448651D01*
X96519645Y-110445355D01*
X96516349Y-110441720D01*
X96513427Y-110437779D01*
X96510904Y-110433570D01*
X96508806Y-110429134D01*
X96507153Y-110424514D01*
X96505961Y-110419755D01*
X96505241Y-110414901D01*
X96505000Y-110410000D01*
X96505000Y-110310000D01*
X96505241Y-110305099D01*
X96505961Y-110300245D01*
X96507153Y-110295486D01*
X96508806Y-110290866D01*
X96510904Y-110286430D01*
X96513427Y-110282221D01*
X96516349Y-110278280D01*
X96519645Y-110274645D01*
X96523280Y-110271349D01*
X96527221Y-110268427D01*
X96531430Y-110265904D01*
X96535866Y-110263806D01*
X96540486Y-110262153D01*
X96545245Y-110260961D01*
X96550099Y-110260241D01*
X96555000Y-110260000D01*
X97305000Y-110260000D01*
X97309901Y-110260241D01*
X97309901Y-110260241D01*
G37*
D16*
X96930000Y-110360000D03*
D10*
G36*
X97309901Y-110660241D02*
G01*
X97314755Y-110660961D01*
X97319514Y-110662153D01*
X97324134Y-110663806D01*
X97328570Y-110665904D01*
X97332779Y-110668427D01*
X97336720Y-110671349D01*
X97340355Y-110674645D01*
X97343651Y-110678280D01*
X97346573Y-110682221D01*
X97349096Y-110686430D01*
X97351194Y-110690866D01*
X97352847Y-110695486D01*
X97354039Y-110700245D01*
X97354759Y-110705099D01*
X97355000Y-110710000D01*
X97355000Y-110810000D01*
X97354759Y-110814901D01*
X97354039Y-110819755D01*
X97352847Y-110824514D01*
X97351194Y-110829134D01*
X97349096Y-110833570D01*
X97346573Y-110837779D01*
X97343651Y-110841720D01*
X97340355Y-110845355D01*
X97336720Y-110848651D01*
X97332779Y-110851573D01*
X97328570Y-110854096D01*
X97324134Y-110856194D01*
X97319514Y-110857847D01*
X97314755Y-110859039D01*
X97309901Y-110859759D01*
X97305000Y-110860000D01*
X96555000Y-110860000D01*
X96550099Y-110859759D01*
X96545245Y-110859039D01*
X96540486Y-110857847D01*
X96535866Y-110856194D01*
X96531430Y-110854096D01*
X96527221Y-110851573D01*
X96523280Y-110848651D01*
X96519645Y-110845355D01*
X96516349Y-110841720D01*
X96513427Y-110837779D01*
X96510904Y-110833570D01*
X96508806Y-110829134D01*
X96507153Y-110824514D01*
X96505961Y-110819755D01*
X96505241Y-110814901D01*
X96505000Y-110810000D01*
X96505000Y-110710000D01*
X96505241Y-110705099D01*
X96505961Y-110700245D01*
X96507153Y-110695486D01*
X96508806Y-110690866D01*
X96510904Y-110686430D01*
X96513427Y-110682221D01*
X96516349Y-110678280D01*
X96519645Y-110674645D01*
X96523280Y-110671349D01*
X96527221Y-110668427D01*
X96531430Y-110665904D01*
X96535866Y-110663806D01*
X96540486Y-110662153D01*
X96545245Y-110660961D01*
X96550099Y-110660241D01*
X96555000Y-110660000D01*
X97305000Y-110660000D01*
X97309901Y-110660241D01*
X97309901Y-110660241D01*
G37*
D16*
X96930000Y-110760000D03*
D10*
G36*
X97309901Y-111060241D02*
G01*
X97314755Y-111060961D01*
X97319514Y-111062153D01*
X97324134Y-111063806D01*
X97328570Y-111065904D01*
X97332779Y-111068427D01*
X97336720Y-111071349D01*
X97340355Y-111074645D01*
X97343651Y-111078280D01*
X97346573Y-111082221D01*
X97349096Y-111086430D01*
X97351194Y-111090866D01*
X97352847Y-111095486D01*
X97354039Y-111100245D01*
X97354759Y-111105099D01*
X97355000Y-111110000D01*
X97355000Y-111210000D01*
X97354759Y-111214901D01*
X97354039Y-111219755D01*
X97352847Y-111224514D01*
X97351194Y-111229134D01*
X97349096Y-111233570D01*
X97346573Y-111237779D01*
X97343651Y-111241720D01*
X97340355Y-111245355D01*
X97336720Y-111248651D01*
X97332779Y-111251573D01*
X97328570Y-111254096D01*
X97324134Y-111256194D01*
X97319514Y-111257847D01*
X97314755Y-111259039D01*
X97309901Y-111259759D01*
X97305000Y-111260000D01*
X96555000Y-111260000D01*
X96550099Y-111259759D01*
X96545245Y-111259039D01*
X96540486Y-111257847D01*
X96535866Y-111256194D01*
X96531430Y-111254096D01*
X96527221Y-111251573D01*
X96523280Y-111248651D01*
X96519645Y-111245355D01*
X96516349Y-111241720D01*
X96513427Y-111237779D01*
X96510904Y-111233570D01*
X96508806Y-111229134D01*
X96507153Y-111224514D01*
X96505961Y-111219755D01*
X96505241Y-111214901D01*
X96505000Y-111210000D01*
X96505000Y-111110000D01*
X96505241Y-111105099D01*
X96505961Y-111100245D01*
X96507153Y-111095486D01*
X96508806Y-111090866D01*
X96510904Y-111086430D01*
X96513427Y-111082221D01*
X96516349Y-111078280D01*
X96519645Y-111074645D01*
X96523280Y-111071349D01*
X96527221Y-111068427D01*
X96531430Y-111065904D01*
X96535866Y-111063806D01*
X96540486Y-111062153D01*
X96545245Y-111060961D01*
X96550099Y-111060241D01*
X96555000Y-111060000D01*
X97305000Y-111060000D01*
X97309901Y-111060241D01*
X97309901Y-111060241D01*
G37*
D16*
X96930000Y-111160000D03*
D10*
G36*
X97309901Y-111460241D02*
G01*
X97314755Y-111460961D01*
X97319514Y-111462153D01*
X97324134Y-111463806D01*
X97328570Y-111465904D01*
X97332779Y-111468427D01*
X97336720Y-111471349D01*
X97340355Y-111474645D01*
X97343651Y-111478280D01*
X97346573Y-111482221D01*
X97349096Y-111486430D01*
X97351194Y-111490866D01*
X97352847Y-111495486D01*
X97354039Y-111500245D01*
X97354759Y-111505099D01*
X97355000Y-111510000D01*
X97355000Y-111610000D01*
X97354759Y-111614901D01*
X97354039Y-111619755D01*
X97352847Y-111624514D01*
X97351194Y-111629134D01*
X97349096Y-111633570D01*
X97346573Y-111637779D01*
X97343651Y-111641720D01*
X97340355Y-111645355D01*
X97336720Y-111648651D01*
X97332779Y-111651573D01*
X97328570Y-111654096D01*
X97324134Y-111656194D01*
X97319514Y-111657847D01*
X97314755Y-111659039D01*
X97309901Y-111659759D01*
X97305000Y-111660000D01*
X96555000Y-111660000D01*
X96550099Y-111659759D01*
X96545245Y-111659039D01*
X96540486Y-111657847D01*
X96535866Y-111656194D01*
X96531430Y-111654096D01*
X96527221Y-111651573D01*
X96523280Y-111648651D01*
X96519645Y-111645355D01*
X96516349Y-111641720D01*
X96513427Y-111637779D01*
X96510904Y-111633570D01*
X96508806Y-111629134D01*
X96507153Y-111624514D01*
X96505961Y-111619755D01*
X96505241Y-111614901D01*
X96505000Y-111610000D01*
X96505000Y-111510000D01*
X96505241Y-111505099D01*
X96505961Y-111500245D01*
X96507153Y-111495486D01*
X96508806Y-111490866D01*
X96510904Y-111486430D01*
X96513427Y-111482221D01*
X96516349Y-111478280D01*
X96519645Y-111474645D01*
X96523280Y-111471349D01*
X96527221Y-111468427D01*
X96531430Y-111465904D01*
X96535866Y-111463806D01*
X96540486Y-111462153D01*
X96545245Y-111460961D01*
X96550099Y-111460241D01*
X96555000Y-111460000D01*
X97305000Y-111460000D01*
X97309901Y-111460241D01*
X97309901Y-111460241D01*
G37*
D16*
X96930000Y-111560000D03*
D10*
G36*
X97309901Y-111860241D02*
G01*
X97314755Y-111860961D01*
X97319514Y-111862153D01*
X97324134Y-111863806D01*
X97328570Y-111865904D01*
X97332779Y-111868427D01*
X97336720Y-111871349D01*
X97340355Y-111874645D01*
X97343651Y-111878280D01*
X97346573Y-111882221D01*
X97349096Y-111886430D01*
X97351194Y-111890866D01*
X97352847Y-111895486D01*
X97354039Y-111900245D01*
X97354759Y-111905099D01*
X97355000Y-111910000D01*
X97355000Y-112010000D01*
X97354759Y-112014901D01*
X97354039Y-112019755D01*
X97352847Y-112024514D01*
X97351194Y-112029134D01*
X97349096Y-112033570D01*
X97346573Y-112037779D01*
X97343651Y-112041720D01*
X97340355Y-112045355D01*
X97336720Y-112048651D01*
X97332779Y-112051573D01*
X97328570Y-112054096D01*
X97324134Y-112056194D01*
X97319514Y-112057847D01*
X97314755Y-112059039D01*
X97309901Y-112059759D01*
X97305000Y-112060000D01*
X96555000Y-112060000D01*
X96550099Y-112059759D01*
X96545245Y-112059039D01*
X96540486Y-112057847D01*
X96535866Y-112056194D01*
X96531430Y-112054096D01*
X96527221Y-112051573D01*
X96523280Y-112048651D01*
X96519645Y-112045355D01*
X96516349Y-112041720D01*
X96513427Y-112037779D01*
X96510904Y-112033570D01*
X96508806Y-112029134D01*
X96507153Y-112024514D01*
X96505961Y-112019755D01*
X96505241Y-112014901D01*
X96505000Y-112010000D01*
X96505000Y-111910000D01*
X96505241Y-111905099D01*
X96505961Y-111900245D01*
X96507153Y-111895486D01*
X96508806Y-111890866D01*
X96510904Y-111886430D01*
X96513427Y-111882221D01*
X96516349Y-111878280D01*
X96519645Y-111874645D01*
X96523280Y-111871349D01*
X96527221Y-111868427D01*
X96531430Y-111865904D01*
X96535866Y-111863806D01*
X96540486Y-111862153D01*
X96545245Y-111860961D01*
X96550099Y-111860241D01*
X96555000Y-111860000D01*
X97305000Y-111860000D01*
X97309901Y-111860241D01*
X97309901Y-111860241D01*
G37*
D16*
X96930000Y-111960000D03*
D10*
G36*
X97309901Y-112260241D02*
G01*
X97314755Y-112260961D01*
X97319514Y-112262153D01*
X97324134Y-112263806D01*
X97328570Y-112265904D01*
X97332779Y-112268427D01*
X97336720Y-112271349D01*
X97340355Y-112274645D01*
X97343651Y-112278280D01*
X97346573Y-112282221D01*
X97349096Y-112286430D01*
X97351194Y-112290866D01*
X97352847Y-112295486D01*
X97354039Y-112300245D01*
X97354759Y-112305099D01*
X97355000Y-112310000D01*
X97355000Y-112410000D01*
X97354759Y-112414901D01*
X97354039Y-112419755D01*
X97352847Y-112424514D01*
X97351194Y-112429134D01*
X97349096Y-112433570D01*
X97346573Y-112437779D01*
X97343651Y-112441720D01*
X97340355Y-112445355D01*
X97336720Y-112448651D01*
X97332779Y-112451573D01*
X97328570Y-112454096D01*
X97324134Y-112456194D01*
X97319514Y-112457847D01*
X97314755Y-112459039D01*
X97309901Y-112459759D01*
X97305000Y-112460000D01*
X96555000Y-112460000D01*
X96550099Y-112459759D01*
X96545245Y-112459039D01*
X96540486Y-112457847D01*
X96535866Y-112456194D01*
X96531430Y-112454096D01*
X96527221Y-112451573D01*
X96523280Y-112448651D01*
X96519645Y-112445355D01*
X96516349Y-112441720D01*
X96513427Y-112437779D01*
X96510904Y-112433570D01*
X96508806Y-112429134D01*
X96507153Y-112424514D01*
X96505961Y-112419755D01*
X96505241Y-112414901D01*
X96505000Y-112410000D01*
X96505000Y-112310000D01*
X96505241Y-112305099D01*
X96505961Y-112300245D01*
X96507153Y-112295486D01*
X96508806Y-112290866D01*
X96510904Y-112286430D01*
X96513427Y-112282221D01*
X96516349Y-112278280D01*
X96519645Y-112274645D01*
X96523280Y-112271349D01*
X96527221Y-112268427D01*
X96531430Y-112265904D01*
X96535866Y-112263806D01*
X96540486Y-112262153D01*
X96545245Y-112260961D01*
X96550099Y-112260241D01*
X96555000Y-112260000D01*
X97305000Y-112260000D01*
X97309901Y-112260241D01*
X97309901Y-112260241D01*
G37*
D16*
X96930000Y-112360000D03*
D10*
G36*
X97309901Y-112660241D02*
G01*
X97314755Y-112660961D01*
X97319514Y-112662153D01*
X97324134Y-112663806D01*
X97328570Y-112665904D01*
X97332779Y-112668427D01*
X97336720Y-112671349D01*
X97340355Y-112674645D01*
X97343651Y-112678280D01*
X97346573Y-112682221D01*
X97349096Y-112686430D01*
X97351194Y-112690866D01*
X97352847Y-112695486D01*
X97354039Y-112700245D01*
X97354759Y-112705099D01*
X97355000Y-112710000D01*
X97355000Y-112810000D01*
X97354759Y-112814901D01*
X97354039Y-112819755D01*
X97352847Y-112824514D01*
X97351194Y-112829134D01*
X97349096Y-112833570D01*
X97346573Y-112837779D01*
X97343651Y-112841720D01*
X97340355Y-112845355D01*
X97336720Y-112848651D01*
X97332779Y-112851573D01*
X97328570Y-112854096D01*
X97324134Y-112856194D01*
X97319514Y-112857847D01*
X97314755Y-112859039D01*
X97309901Y-112859759D01*
X97305000Y-112860000D01*
X96555000Y-112860000D01*
X96550099Y-112859759D01*
X96545245Y-112859039D01*
X96540486Y-112857847D01*
X96535866Y-112856194D01*
X96531430Y-112854096D01*
X96527221Y-112851573D01*
X96523280Y-112848651D01*
X96519645Y-112845355D01*
X96516349Y-112841720D01*
X96513427Y-112837779D01*
X96510904Y-112833570D01*
X96508806Y-112829134D01*
X96507153Y-112824514D01*
X96505961Y-112819755D01*
X96505241Y-112814901D01*
X96505000Y-112810000D01*
X96505000Y-112710000D01*
X96505241Y-112705099D01*
X96505961Y-112700245D01*
X96507153Y-112695486D01*
X96508806Y-112690866D01*
X96510904Y-112686430D01*
X96513427Y-112682221D01*
X96516349Y-112678280D01*
X96519645Y-112674645D01*
X96523280Y-112671349D01*
X96527221Y-112668427D01*
X96531430Y-112665904D01*
X96535866Y-112663806D01*
X96540486Y-112662153D01*
X96545245Y-112660961D01*
X96550099Y-112660241D01*
X96555000Y-112660000D01*
X97305000Y-112660000D01*
X97309901Y-112660241D01*
X97309901Y-112660241D01*
G37*
D16*
X96930000Y-112760000D03*
D10*
G36*
X97309901Y-113060241D02*
G01*
X97314755Y-113060961D01*
X97319514Y-113062153D01*
X97324134Y-113063806D01*
X97328570Y-113065904D01*
X97332779Y-113068427D01*
X97336720Y-113071349D01*
X97340355Y-113074645D01*
X97343651Y-113078280D01*
X97346573Y-113082221D01*
X97349096Y-113086430D01*
X97351194Y-113090866D01*
X97352847Y-113095486D01*
X97354039Y-113100245D01*
X97354759Y-113105099D01*
X97355000Y-113110000D01*
X97355000Y-113210000D01*
X97354759Y-113214901D01*
X97354039Y-113219755D01*
X97352847Y-113224514D01*
X97351194Y-113229134D01*
X97349096Y-113233570D01*
X97346573Y-113237779D01*
X97343651Y-113241720D01*
X97340355Y-113245355D01*
X97336720Y-113248651D01*
X97332779Y-113251573D01*
X97328570Y-113254096D01*
X97324134Y-113256194D01*
X97319514Y-113257847D01*
X97314755Y-113259039D01*
X97309901Y-113259759D01*
X97305000Y-113260000D01*
X96555000Y-113260000D01*
X96550099Y-113259759D01*
X96545245Y-113259039D01*
X96540486Y-113257847D01*
X96535866Y-113256194D01*
X96531430Y-113254096D01*
X96527221Y-113251573D01*
X96523280Y-113248651D01*
X96519645Y-113245355D01*
X96516349Y-113241720D01*
X96513427Y-113237779D01*
X96510904Y-113233570D01*
X96508806Y-113229134D01*
X96507153Y-113224514D01*
X96505961Y-113219755D01*
X96505241Y-113214901D01*
X96505000Y-113210000D01*
X96505000Y-113110000D01*
X96505241Y-113105099D01*
X96505961Y-113100245D01*
X96507153Y-113095486D01*
X96508806Y-113090866D01*
X96510904Y-113086430D01*
X96513427Y-113082221D01*
X96516349Y-113078280D01*
X96519645Y-113074645D01*
X96523280Y-113071349D01*
X96527221Y-113068427D01*
X96531430Y-113065904D01*
X96535866Y-113063806D01*
X96540486Y-113062153D01*
X96545245Y-113060961D01*
X96550099Y-113060241D01*
X96555000Y-113060000D01*
X97305000Y-113060000D01*
X97309901Y-113060241D01*
X97309901Y-113060241D01*
G37*
D16*
X96930000Y-113160000D03*
D10*
G36*
X97309901Y-113460241D02*
G01*
X97314755Y-113460961D01*
X97319514Y-113462153D01*
X97324134Y-113463806D01*
X97328570Y-113465904D01*
X97332779Y-113468427D01*
X97336720Y-113471349D01*
X97340355Y-113474645D01*
X97343651Y-113478280D01*
X97346573Y-113482221D01*
X97349096Y-113486430D01*
X97351194Y-113490866D01*
X97352847Y-113495486D01*
X97354039Y-113500245D01*
X97354759Y-113505099D01*
X97355000Y-113510000D01*
X97355000Y-113610000D01*
X97354759Y-113614901D01*
X97354039Y-113619755D01*
X97352847Y-113624514D01*
X97351194Y-113629134D01*
X97349096Y-113633570D01*
X97346573Y-113637779D01*
X97343651Y-113641720D01*
X97340355Y-113645355D01*
X97336720Y-113648651D01*
X97332779Y-113651573D01*
X97328570Y-113654096D01*
X97324134Y-113656194D01*
X97319514Y-113657847D01*
X97314755Y-113659039D01*
X97309901Y-113659759D01*
X97305000Y-113660000D01*
X96555000Y-113660000D01*
X96550099Y-113659759D01*
X96545245Y-113659039D01*
X96540486Y-113657847D01*
X96535866Y-113656194D01*
X96531430Y-113654096D01*
X96527221Y-113651573D01*
X96523280Y-113648651D01*
X96519645Y-113645355D01*
X96516349Y-113641720D01*
X96513427Y-113637779D01*
X96510904Y-113633570D01*
X96508806Y-113629134D01*
X96507153Y-113624514D01*
X96505961Y-113619755D01*
X96505241Y-113614901D01*
X96505000Y-113610000D01*
X96505000Y-113510000D01*
X96505241Y-113505099D01*
X96505961Y-113500245D01*
X96507153Y-113495486D01*
X96508806Y-113490866D01*
X96510904Y-113486430D01*
X96513427Y-113482221D01*
X96516349Y-113478280D01*
X96519645Y-113474645D01*
X96523280Y-113471349D01*
X96527221Y-113468427D01*
X96531430Y-113465904D01*
X96535866Y-113463806D01*
X96540486Y-113462153D01*
X96545245Y-113460961D01*
X96550099Y-113460241D01*
X96555000Y-113460000D01*
X97305000Y-113460000D01*
X97309901Y-113460241D01*
X97309901Y-113460241D01*
G37*
D16*
X96930000Y-113560000D03*
D10*
G36*
X97309901Y-113860241D02*
G01*
X97314755Y-113860961D01*
X97319514Y-113862153D01*
X97324134Y-113863806D01*
X97328570Y-113865904D01*
X97332779Y-113868427D01*
X97336720Y-113871349D01*
X97340355Y-113874645D01*
X97343651Y-113878280D01*
X97346573Y-113882221D01*
X97349096Y-113886430D01*
X97351194Y-113890866D01*
X97352847Y-113895486D01*
X97354039Y-113900245D01*
X97354759Y-113905099D01*
X97355000Y-113910000D01*
X97355000Y-114010000D01*
X97354759Y-114014901D01*
X97354039Y-114019755D01*
X97352847Y-114024514D01*
X97351194Y-114029134D01*
X97349096Y-114033570D01*
X97346573Y-114037779D01*
X97343651Y-114041720D01*
X97340355Y-114045355D01*
X97336720Y-114048651D01*
X97332779Y-114051573D01*
X97328570Y-114054096D01*
X97324134Y-114056194D01*
X97319514Y-114057847D01*
X97314755Y-114059039D01*
X97309901Y-114059759D01*
X97305000Y-114060000D01*
X96555000Y-114060000D01*
X96550099Y-114059759D01*
X96545245Y-114059039D01*
X96540486Y-114057847D01*
X96535866Y-114056194D01*
X96531430Y-114054096D01*
X96527221Y-114051573D01*
X96523280Y-114048651D01*
X96519645Y-114045355D01*
X96516349Y-114041720D01*
X96513427Y-114037779D01*
X96510904Y-114033570D01*
X96508806Y-114029134D01*
X96507153Y-114024514D01*
X96505961Y-114019755D01*
X96505241Y-114014901D01*
X96505000Y-114010000D01*
X96505000Y-113910000D01*
X96505241Y-113905099D01*
X96505961Y-113900245D01*
X96507153Y-113895486D01*
X96508806Y-113890866D01*
X96510904Y-113886430D01*
X96513427Y-113882221D01*
X96516349Y-113878280D01*
X96519645Y-113874645D01*
X96523280Y-113871349D01*
X96527221Y-113868427D01*
X96531430Y-113865904D01*
X96535866Y-113863806D01*
X96540486Y-113862153D01*
X96545245Y-113860961D01*
X96550099Y-113860241D01*
X96555000Y-113860000D01*
X97305000Y-113860000D01*
X97309901Y-113860241D01*
X97309901Y-113860241D01*
G37*
D16*
X96930000Y-113960000D03*
D10*
G36*
X96234901Y-114285241D02*
G01*
X96239755Y-114285961D01*
X96244514Y-114287153D01*
X96249134Y-114288806D01*
X96253570Y-114290904D01*
X96257779Y-114293427D01*
X96261720Y-114296349D01*
X96265355Y-114299645D01*
X96268651Y-114303280D01*
X96271573Y-114307221D01*
X96274096Y-114311430D01*
X96276194Y-114315866D01*
X96277847Y-114320486D01*
X96279039Y-114325245D01*
X96279759Y-114330099D01*
X96280000Y-114335000D01*
X96280000Y-115085000D01*
X96279759Y-115089901D01*
X96279039Y-115094755D01*
X96277847Y-115099514D01*
X96276194Y-115104134D01*
X96274096Y-115108570D01*
X96271573Y-115112779D01*
X96268651Y-115116720D01*
X96265355Y-115120355D01*
X96261720Y-115123651D01*
X96257779Y-115126573D01*
X96253570Y-115129096D01*
X96249134Y-115131194D01*
X96244514Y-115132847D01*
X96239755Y-115134039D01*
X96234901Y-115134759D01*
X96230000Y-115135000D01*
X96130000Y-115135000D01*
X96125099Y-115134759D01*
X96120245Y-115134039D01*
X96115486Y-115132847D01*
X96110866Y-115131194D01*
X96106430Y-115129096D01*
X96102221Y-115126573D01*
X96098280Y-115123651D01*
X96094645Y-115120355D01*
X96091349Y-115116720D01*
X96088427Y-115112779D01*
X96085904Y-115108570D01*
X96083806Y-115104134D01*
X96082153Y-115099514D01*
X96080961Y-115094755D01*
X96080241Y-115089901D01*
X96080000Y-115085000D01*
X96080000Y-114335000D01*
X96080241Y-114330099D01*
X96080961Y-114325245D01*
X96082153Y-114320486D01*
X96083806Y-114315866D01*
X96085904Y-114311430D01*
X96088427Y-114307221D01*
X96091349Y-114303280D01*
X96094645Y-114299645D01*
X96098280Y-114296349D01*
X96102221Y-114293427D01*
X96106430Y-114290904D01*
X96110866Y-114288806D01*
X96115486Y-114287153D01*
X96120245Y-114285961D01*
X96125099Y-114285241D01*
X96130000Y-114285000D01*
X96230000Y-114285000D01*
X96234901Y-114285241D01*
X96234901Y-114285241D01*
G37*
D16*
X96180000Y-114710000D03*
D10*
G36*
X95834901Y-114285241D02*
G01*
X95839755Y-114285961D01*
X95844514Y-114287153D01*
X95849134Y-114288806D01*
X95853570Y-114290904D01*
X95857779Y-114293427D01*
X95861720Y-114296349D01*
X95865355Y-114299645D01*
X95868651Y-114303280D01*
X95871573Y-114307221D01*
X95874096Y-114311430D01*
X95876194Y-114315866D01*
X95877847Y-114320486D01*
X95879039Y-114325245D01*
X95879759Y-114330099D01*
X95880000Y-114335000D01*
X95880000Y-115085000D01*
X95879759Y-115089901D01*
X95879039Y-115094755D01*
X95877847Y-115099514D01*
X95876194Y-115104134D01*
X95874096Y-115108570D01*
X95871573Y-115112779D01*
X95868651Y-115116720D01*
X95865355Y-115120355D01*
X95861720Y-115123651D01*
X95857779Y-115126573D01*
X95853570Y-115129096D01*
X95849134Y-115131194D01*
X95844514Y-115132847D01*
X95839755Y-115134039D01*
X95834901Y-115134759D01*
X95830000Y-115135000D01*
X95730000Y-115135000D01*
X95725099Y-115134759D01*
X95720245Y-115134039D01*
X95715486Y-115132847D01*
X95710866Y-115131194D01*
X95706430Y-115129096D01*
X95702221Y-115126573D01*
X95698280Y-115123651D01*
X95694645Y-115120355D01*
X95691349Y-115116720D01*
X95688427Y-115112779D01*
X95685904Y-115108570D01*
X95683806Y-115104134D01*
X95682153Y-115099514D01*
X95680961Y-115094755D01*
X95680241Y-115089901D01*
X95680000Y-115085000D01*
X95680000Y-114335000D01*
X95680241Y-114330099D01*
X95680961Y-114325245D01*
X95682153Y-114320486D01*
X95683806Y-114315866D01*
X95685904Y-114311430D01*
X95688427Y-114307221D01*
X95691349Y-114303280D01*
X95694645Y-114299645D01*
X95698280Y-114296349D01*
X95702221Y-114293427D01*
X95706430Y-114290904D01*
X95710866Y-114288806D01*
X95715486Y-114287153D01*
X95720245Y-114285961D01*
X95725099Y-114285241D01*
X95730000Y-114285000D01*
X95830000Y-114285000D01*
X95834901Y-114285241D01*
X95834901Y-114285241D01*
G37*
D16*
X95780000Y-114710000D03*
D10*
G36*
X95434901Y-114285241D02*
G01*
X95439755Y-114285961D01*
X95444514Y-114287153D01*
X95449134Y-114288806D01*
X95453570Y-114290904D01*
X95457779Y-114293427D01*
X95461720Y-114296349D01*
X95465355Y-114299645D01*
X95468651Y-114303280D01*
X95471573Y-114307221D01*
X95474096Y-114311430D01*
X95476194Y-114315866D01*
X95477847Y-114320486D01*
X95479039Y-114325245D01*
X95479759Y-114330099D01*
X95480000Y-114335000D01*
X95480000Y-115085000D01*
X95479759Y-115089901D01*
X95479039Y-115094755D01*
X95477847Y-115099514D01*
X95476194Y-115104134D01*
X95474096Y-115108570D01*
X95471573Y-115112779D01*
X95468651Y-115116720D01*
X95465355Y-115120355D01*
X95461720Y-115123651D01*
X95457779Y-115126573D01*
X95453570Y-115129096D01*
X95449134Y-115131194D01*
X95444514Y-115132847D01*
X95439755Y-115134039D01*
X95434901Y-115134759D01*
X95430000Y-115135000D01*
X95330000Y-115135000D01*
X95325099Y-115134759D01*
X95320245Y-115134039D01*
X95315486Y-115132847D01*
X95310866Y-115131194D01*
X95306430Y-115129096D01*
X95302221Y-115126573D01*
X95298280Y-115123651D01*
X95294645Y-115120355D01*
X95291349Y-115116720D01*
X95288427Y-115112779D01*
X95285904Y-115108570D01*
X95283806Y-115104134D01*
X95282153Y-115099514D01*
X95280961Y-115094755D01*
X95280241Y-115089901D01*
X95280000Y-115085000D01*
X95280000Y-114335000D01*
X95280241Y-114330099D01*
X95280961Y-114325245D01*
X95282153Y-114320486D01*
X95283806Y-114315866D01*
X95285904Y-114311430D01*
X95288427Y-114307221D01*
X95291349Y-114303280D01*
X95294645Y-114299645D01*
X95298280Y-114296349D01*
X95302221Y-114293427D01*
X95306430Y-114290904D01*
X95310866Y-114288806D01*
X95315486Y-114287153D01*
X95320245Y-114285961D01*
X95325099Y-114285241D01*
X95330000Y-114285000D01*
X95430000Y-114285000D01*
X95434901Y-114285241D01*
X95434901Y-114285241D01*
G37*
D16*
X95380000Y-114710000D03*
D10*
G36*
X95034901Y-114285241D02*
G01*
X95039755Y-114285961D01*
X95044514Y-114287153D01*
X95049134Y-114288806D01*
X95053570Y-114290904D01*
X95057779Y-114293427D01*
X95061720Y-114296349D01*
X95065355Y-114299645D01*
X95068651Y-114303280D01*
X95071573Y-114307221D01*
X95074096Y-114311430D01*
X95076194Y-114315866D01*
X95077847Y-114320486D01*
X95079039Y-114325245D01*
X95079759Y-114330099D01*
X95080000Y-114335000D01*
X95080000Y-115085000D01*
X95079759Y-115089901D01*
X95079039Y-115094755D01*
X95077847Y-115099514D01*
X95076194Y-115104134D01*
X95074096Y-115108570D01*
X95071573Y-115112779D01*
X95068651Y-115116720D01*
X95065355Y-115120355D01*
X95061720Y-115123651D01*
X95057779Y-115126573D01*
X95053570Y-115129096D01*
X95049134Y-115131194D01*
X95044514Y-115132847D01*
X95039755Y-115134039D01*
X95034901Y-115134759D01*
X95030000Y-115135000D01*
X94930000Y-115135000D01*
X94925099Y-115134759D01*
X94920245Y-115134039D01*
X94915486Y-115132847D01*
X94910866Y-115131194D01*
X94906430Y-115129096D01*
X94902221Y-115126573D01*
X94898280Y-115123651D01*
X94894645Y-115120355D01*
X94891349Y-115116720D01*
X94888427Y-115112779D01*
X94885904Y-115108570D01*
X94883806Y-115104134D01*
X94882153Y-115099514D01*
X94880961Y-115094755D01*
X94880241Y-115089901D01*
X94880000Y-115085000D01*
X94880000Y-114335000D01*
X94880241Y-114330099D01*
X94880961Y-114325245D01*
X94882153Y-114320486D01*
X94883806Y-114315866D01*
X94885904Y-114311430D01*
X94888427Y-114307221D01*
X94891349Y-114303280D01*
X94894645Y-114299645D01*
X94898280Y-114296349D01*
X94902221Y-114293427D01*
X94906430Y-114290904D01*
X94910866Y-114288806D01*
X94915486Y-114287153D01*
X94920245Y-114285961D01*
X94925099Y-114285241D01*
X94930000Y-114285000D01*
X95030000Y-114285000D01*
X95034901Y-114285241D01*
X95034901Y-114285241D01*
G37*
D16*
X94980000Y-114710000D03*
D10*
G36*
X94634901Y-114285241D02*
G01*
X94639755Y-114285961D01*
X94644514Y-114287153D01*
X94649134Y-114288806D01*
X94653570Y-114290904D01*
X94657779Y-114293427D01*
X94661720Y-114296349D01*
X94665355Y-114299645D01*
X94668651Y-114303280D01*
X94671573Y-114307221D01*
X94674096Y-114311430D01*
X94676194Y-114315866D01*
X94677847Y-114320486D01*
X94679039Y-114325245D01*
X94679759Y-114330099D01*
X94680000Y-114335000D01*
X94680000Y-115085000D01*
X94679759Y-115089901D01*
X94679039Y-115094755D01*
X94677847Y-115099514D01*
X94676194Y-115104134D01*
X94674096Y-115108570D01*
X94671573Y-115112779D01*
X94668651Y-115116720D01*
X94665355Y-115120355D01*
X94661720Y-115123651D01*
X94657779Y-115126573D01*
X94653570Y-115129096D01*
X94649134Y-115131194D01*
X94644514Y-115132847D01*
X94639755Y-115134039D01*
X94634901Y-115134759D01*
X94630000Y-115135000D01*
X94530000Y-115135000D01*
X94525099Y-115134759D01*
X94520245Y-115134039D01*
X94515486Y-115132847D01*
X94510866Y-115131194D01*
X94506430Y-115129096D01*
X94502221Y-115126573D01*
X94498280Y-115123651D01*
X94494645Y-115120355D01*
X94491349Y-115116720D01*
X94488427Y-115112779D01*
X94485904Y-115108570D01*
X94483806Y-115104134D01*
X94482153Y-115099514D01*
X94480961Y-115094755D01*
X94480241Y-115089901D01*
X94480000Y-115085000D01*
X94480000Y-114335000D01*
X94480241Y-114330099D01*
X94480961Y-114325245D01*
X94482153Y-114320486D01*
X94483806Y-114315866D01*
X94485904Y-114311430D01*
X94488427Y-114307221D01*
X94491349Y-114303280D01*
X94494645Y-114299645D01*
X94498280Y-114296349D01*
X94502221Y-114293427D01*
X94506430Y-114290904D01*
X94510866Y-114288806D01*
X94515486Y-114287153D01*
X94520245Y-114285961D01*
X94525099Y-114285241D01*
X94530000Y-114285000D01*
X94630000Y-114285000D01*
X94634901Y-114285241D01*
X94634901Y-114285241D01*
G37*
D16*
X94580000Y-114710000D03*
D10*
G36*
X94234901Y-114285241D02*
G01*
X94239755Y-114285961D01*
X94244514Y-114287153D01*
X94249134Y-114288806D01*
X94253570Y-114290904D01*
X94257779Y-114293427D01*
X94261720Y-114296349D01*
X94265355Y-114299645D01*
X94268651Y-114303280D01*
X94271573Y-114307221D01*
X94274096Y-114311430D01*
X94276194Y-114315866D01*
X94277847Y-114320486D01*
X94279039Y-114325245D01*
X94279759Y-114330099D01*
X94280000Y-114335000D01*
X94280000Y-115085000D01*
X94279759Y-115089901D01*
X94279039Y-115094755D01*
X94277847Y-115099514D01*
X94276194Y-115104134D01*
X94274096Y-115108570D01*
X94271573Y-115112779D01*
X94268651Y-115116720D01*
X94265355Y-115120355D01*
X94261720Y-115123651D01*
X94257779Y-115126573D01*
X94253570Y-115129096D01*
X94249134Y-115131194D01*
X94244514Y-115132847D01*
X94239755Y-115134039D01*
X94234901Y-115134759D01*
X94230000Y-115135000D01*
X94130000Y-115135000D01*
X94125099Y-115134759D01*
X94120245Y-115134039D01*
X94115486Y-115132847D01*
X94110866Y-115131194D01*
X94106430Y-115129096D01*
X94102221Y-115126573D01*
X94098280Y-115123651D01*
X94094645Y-115120355D01*
X94091349Y-115116720D01*
X94088427Y-115112779D01*
X94085904Y-115108570D01*
X94083806Y-115104134D01*
X94082153Y-115099514D01*
X94080961Y-115094755D01*
X94080241Y-115089901D01*
X94080000Y-115085000D01*
X94080000Y-114335000D01*
X94080241Y-114330099D01*
X94080961Y-114325245D01*
X94082153Y-114320486D01*
X94083806Y-114315866D01*
X94085904Y-114311430D01*
X94088427Y-114307221D01*
X94091349Y-114303280D01*
X94094645Y-114299645D01*
X94098280Y-114296349D01*
X94102221Y-114293427D01*
X94106430Y-114290904D01*
X94110866Y-114288806D01*
X94115486Y-114287153D01*
X94120245Y-114285961D01*
X94125099Y-114285241D01*
X94130000Y-114285000D01*
X94230000Y-114285000D01*
X94234901Y-114285241D01*
X94234901Y-114285241D01*
G37*
D16*
X94180000Y-114710000D03*
D10*
G36*
X93834901Y-114285241D02*
G01*
X93839755Y-114285961D01*
X93844514Y-114287153D01*
X93849134Y-114288806D01*
X93853570Y-114290904D01*
X93857779Y-114293427D01*
X93861720Y-114296349D01*
X93865355Y-114299645D01*
X93868651Y-114303280D01*
X93871573Y-114307221D01*
X93874096Y-114311430D01*
X93876194Y-114315866D01*
X93877847Y-114320486D01*
X93879039Y-114325245D01*
X93879759Y-114330099D01*
X93880000Y-114335000D01*
X93880000Y-115085000D01*
X93879759Y-115089901D01*
X93879039Y-115094755D01*
X93877847Y-115099514D01*
X93876194Y-115104134D01*
X93874096Y-115108570D01*
X93871573Y-115112779D01*
X93868651Y-115116720D01*
X93865355Y-115120355D01*
X93861720Y-115123651D01*
X93857779Y-115126573D01*
X93853570Y-115129096D01*
X93849134Y-115131194D01*
X93844514Y-115132847D01*
X93839755Y-115134039D01*
X93834901Y-115134759D01*
X93830000Y-115135000D01*
X93730000Y-115135000D01*
X93725099Y-115134759D01*
X93720245Y-115134039D01*
X93715486Y-115132847D01*
X93710866Y-115131194D01*
X93706430Y-115129096D01*
X93702221Y-115126573D01*
X93698280Y-115123651D01*
X93694645Y-115120355D01*
X93691349Y-115116720D01*
X93688427Y-115112779D01*
X93685904Y-115108570D01*
X93683806Y-115104134D01*
X93682153Y-115099514D01*
X93680961Y-115094755D01*
X93680241Y-115089901D01*
X93680000Y-115085000D01*
X93680000Y-114335000D01*
X93680241Y-114330099D01*
X93680961Y-114325245D01*
X93682153Y-114320486D01*
X93683806Y-114315866D01*
X93685904Y-114311430D01*
X93688427Y-114307221D01*
X93691349Y-114303280D01*
X93694645Y-114299645D01*
X93698280Y-114296349D01*
X93702221Y-114293427D01*
X93706430Y-114290904D01*
X93710866Y-114288806D01*
X93715486Y-114287153D01*
X93720245Y-114285961D01*
X93725099Y-114285241D01*
X93730000Y-114285000D01*
X93830000Y-114285000D01*
X93834901Y-114285241D01*
X93834901Y-114285241D01*
G37*
D16*
X93780000Y-114710000D03*
D10*
G36*
X93434901Y-114285241D02*
G01*
X93439755Y-114285961D01*
X93444514Y-114287153D01*
X93449134Y-114288806D01*
X93453570Y-114290904D01*
X93457779Y-114293427D01*
X93461720Y-114296349D01*
X93465355Y-114299645D01*
X93468651Y-114303280D01*
X93471573Y-114307221D01*
X93474096Y-114311430D01*
X93476194Y-114315866D01*
X93477847Y-114320486D01*
X93479039Y-114325245D01*
X93479759Y-114330099D01*
X93480000Y-114335000D01*
X93480000Y-115085000D01*
X93479759Y-115089901D01*
X93479039Y-115094755D01*
X93477847Y-115099514D01*
X93476194Y-115104134D01*
X93474096Y-115108570D01*
X93471573Y-115112779D01*
X93468651Y-115116720D01*
X93465355Y-115120355D01*
X93461720Y-115123651D01*
X93457779Y-115126573D01*
X93453570Y-115129096D01*
X93449134Y-115131194D01*
X93444514Y-115132847D01*
X93439755Y-115134039D01*
X93434901Y-115134759D01*
X93430000Y-115135000D01*
X93330000Y-115135000D01*
X93325099Y-115134759D01*
X93320245Y-115134039D01*
X93315486Y-115132847D01*
X93310866Y-115131194D01*
X93306430Y-115129096D01*
X93302221Y-115126573D01*
X93298280Y-115123651D01*
X93294645Y-115120355D01*
X93291349Y-115116720D01*
X93288427Y-115112779D01*
X93285904Y-115108570D01*
X93283806Y-115104134D01*
X93282153Y-115099514D01*
X93280961Y-115094755D01*
X93280241Y-115089901D01*
X93280000Y-115085000D01*
X93280000Y-114335000D01*
X93280241Y-114330099D01*
X93280961Y-114325245D01*
X93282153Y-114320486D01*
X93283806Y-114315866D01*
X93285904Y-114311430D01*
X93288427Y-114307221D01*
X93291349Y-114303280D01*
X93294645Y-114299645D01*
X93298280Y-114296349D01*
X93302221Y-114293427D01*
X93306430Y-114290904D01*
X93310866Y-114288806D01*
X93315486Y-114287153D01*
X93320245Y-114285961D01*
X93325099Y-114285241D01*
X93330000Y-114285000D01*
X93430000Y-114285000D01*
X93434901Y-114285241D01*
X93434901Y-114285241D01*
G37*
D16*
X93380000Y-114710000D03*
D10*
G36*
X93034901Y-114285241D02*
G01*
X93039755Y-114285961D01*
X93044514Y-114287153D01*
X93049134Y-114288806D01*
X93053570Y-114290904D01*
X93057779Y-114293427D01*
X93061720Y-114296349D01*
X93065355Y-114299645D01*
X93068651Y-114303280D01*
X93071573Y-114307221D01*
X93074096Y-114311430D01*
X93076194Y-114315866D01*
X93077847Y-114320486D01*
X93079039Y-114325245D01*
X93079759Y-114330099D01*
X93080000Y-114335000D01*
X93080000Y-115085000D01*
X93079759Y-115089901D01*
X93079039Y-115094755D01*
X93077847Y-115099514D01*
X93076194Y-115104134D01*
X93074096Y-115108570D01*
X93071573Y-115112779D01*
X93068651Y-115116720D01*
X93065355Y-115120355D01*
X93061720Y-115123651D01*
X93057779Y-115126573D01*
X93053570Y-115129096D01*
X93049134Y-115131194D01*
X93044514Y-115132847D01*
X93039755Y-115134039D01*
X93034901Y-115134759D01*
X93030000Y-115135000D01*
X92930000Y-115135000D01*
X92925099Y-115134759D01*
X92920245Y-115134039D01*
X92915486Y-115132847D01*
X92910866Y-115131194D01*
X92906430Y-115129096D01*
X92902221Y-115126573D01*
X92898280Y-115123651D01*
X92894645Y-115120355D01*
X92891349Y-115116720D01*
X92888427Y-115112779D01*
X92885904Y-115108570D01*
X92883806Y-115104134D01*
X92882153Y-115099514D01*
X92880961Y-115094755D01*
X92880241Y-115089901D01*
X92880000Y-115085000D01*
X92880000Y-114335000D01*
X92880241Y-114330099D01*
X92880961Y-114325245D01*
X92882153Y-114320486D01*
X92883806Y-114315866D01*
X92885904Y-114311430D01*
X92888427Y-114307221D01*
X92891349Y-114303280D01*
X92894645Y-114299645D01*
X92898280Y-114296349D01*
X92902221Y-114293427D01*
X92906430Y-114290904D01*
X92910866Y-114288806D01*
X92915486Y-114287153D01*
X92920245Y-114285961D01*
X92925099Y-114285241D01*
X92930000Y-114285000D01*
X93030000Y-114285000D01*
X93034901Y-114285241D01*
X93034901Y-114285241D01*
G37*
D16*
X92980000Y-114710000D03*
D10*
G36*
X92634901Y-114285241D02*
G01*
X92639755Y-114285961D01*
X92644514Y-114287153D01*
X92649134Y-114288806D01*
X92653570Y-114290904D01*
X92657779Y-114293427D01*
X92661720Y-114296349D01*
X92665355Y-114299645D01*
X92668651Y-114303280D01*
X92671573Y-114307221D01*
X92674096Y-114311430D01*
X92676194Y-114315866D01*
X92677847Y-114320486D01*
X92679039Y-114325245D01*
X92679759Y-114330099D01*
X92680000Y-114335000D01*
X92680000Y-115085000D01*
X92679759Y-115089901D01*
X92679039Y-115094755D01*
X92677847Y-115099514D01*
X92676194Y-115104134D01*
X92674096Y-115108570D01*
X92671573Y-115112779D01*
X92668651Y-115116720D01*
X92665355Y-115120355D01*
X92661720Y-115123651D01*
X92657779Y-115126573D01*
X92653570Y-115129096D01*
X92649134Y-115131194D01*
X92644514Y-115132847D01*
X92639755Y-115134039D01*
X92634901Y-115134759D01*
X92630000Y-115135000D01*
X92530000Y-115135000D01*
X92525099Y-115134759D01*
X92520245Y-115134039D01*
X92515486Y-115132847D01*
X92510866Y-115131194D01*
X92506430Y-115129096D01*
X92502221Y-115126573D01*
X92498280Y-115123651D01*
X92494645Y-115120355D01*
X92491349Y-115116720D01*
X92488427Y-115112779D01*
X92485904Y-115108570D01*
X92483806Y-115104134D01*
X92482153Y-115099514D01*
X92480961Y-115094755D01*
X92480241Y-115089901D01*
X92480000Y-115085000D01*
X92480000Y-114335000D01*
X92480241Y-114330099D01*
X92480961Y-114325245D01*
X92482153Y-114320486D01*
X92483806Y-114315866D01*
X92485904Y-114311430D01*
X92488427Y-114307221D01*
X92491349Y-114303280D01*
X92494645Y-114299645D01*
X92498280Y-114296349D01*
X92502221Y-114293427D01*
X92506430Y-114290904D01*
X92510866Y-114288806D01*
X92515486Y-114287153D01*
X92520245Y-114285961D01*
X92525099Y-114285241D01*
X92530000Y-114285000D01*
X92630000Y-114285000D01*
X92634901Y-114285241D01*
X92634901Y-114285241D01*
G37*
D16*
X92580000Y-114710000D03*
D10*
G36*
X92234901Y-114285241D02*
G01*
X92239755Y-114285961D01*
X92244514Y-114287153D01*
X92249134Y-114288806D01*
X92253570Y-114290904D01*
X92257779Y-114293427D01*
X92261720Y-114296349D01*
X92265355Y-114299645D01*
X92268651Y-114303280D01*
X92271573Y-114307221D01*
X92274096Y-114311430D01*
X92276194Y-114315866D01*
X92277847Y-114320486D01*
X92279039Y-114325245D01*
X92279759Y-114330099D01*
X92280000Y-114335000D01*
X92280000Y-115085000D01*
X92279759Y-115089901D01*
X92279039Y-115094755D01*
X92277847Y-115099514D01*
X92276194Y-115104134D01*
X92274096Y-115108570D01*
X92271573Y-115112779D01*
X92268651Y-115116720D01*
X92265355Y-115120355D01*
X92261720Y-115123651D01*
X92257779Y-115126573D01*
X92253570Y-115129096D01*
X92249134Y-115131194D01*
X92244514Y-115132847D01*
X92239755Y-115134039D01*
X92234901Y-115134759D01*
X92230000Y-115135000D01*
X92130000Y-115135000D01*
X92125099Y-115134759D01*
X92120245Y-115134039D01*
X92115486Y-115132847D01*
X92110866Y-115131194D01*
X92106430Y-115129096D01*
X92102221Y-115126573D01*
X92098280Y-115123651D01*
X92094645Y-115120355D01*
X92091349Y-115116720D01*
X92088427Y-115112779D01*
X92085904Y-115108570D01*
X92083806Y-115104134D01*
X92082153Y-115099514D01*
X92080961Y-115094755D01*
X92080241Y-115089901D01*
X92080000Y-115085000D01*
X92080000Y-114335000D01*
X92080241Y-114330099D01*
X92080961Y-114325245D01*
X92082153Y-114320486D01*
X92083806Y-114315866D01*
X92085904Y-114311430D01*
X92088427Y-114307221D01*
X92091349Y-114303280D01*
X92094645Y-114299645D01*
X92098280Y-114296349D01*
X92102221Y-114293427D01*
X92106430Y-114290904D01*
X92110866Y-114288806D01*
X92115486Y-114287153D01*
X92120245Y-114285961D01*
X92125099Y-114285241D01*
X92130000Y-114285000D01*
X92230000Y-114285000D01*
X92234901Y-114285241D01*
X92234901Y-114285241D01*
G37*
D16*
X92180000Y-114710000D03*
D10*
G36*
X91834901Y-114285241D02*
G01*
X91839755Y-114285961D01*
X91844514Y-114287153D01*
X91849134Y-114288806D01*
X91853570Y-114290904D01*
X91857779Y-114293427D01*
X91861720Y-114296349D01*
X91865355Y-114299645D01*
X91868651Y-114303280D01*
X91871573Y-114307221D01*
X91874096Y-114311430D01*
X91876194Y-114315866D01*
X91877847Y-114320486D01*
X91879039Y-114325245D01*
X91879759Y-114330099D01*
X91880000Y-114335000D01*
X91880000Y-115085000D01*
X91879759Y-115089901D01*
X91879039Y-115094755D01*
X91877847Y-115099514D01*
X91876194Y-115104134D01*
X91874096Y-115108570D01*
X91871573Y-115112779D01*
X91868651Y-115116720D01*
X91865355Y-115120355D01*
X91861720Y-115123651D01*
X91857779Y-115126573D01*
X91853570Y-115129096D01*
X91849134Y-115131194D01*
X91844514Y-115132847D01*
X91839755Y-115134039D01*
X91834901Y-115134759D01*
X91830000Y-115135000D01*
X91730000Y-115135000D01*
X91725099Y-115134759D01*
X91720245Y-115134039D01*
X91715486Y-115132847D01*
X91710866Y-115131194D01*
X91706430Y-115129096D01*
X91702221Y-115126573D01*
X91698280Y-115123651D01*
X91694645Y-115120355D01*
X91691349Y-115116720D01*
X91688427Y-115112779D01*
X91685904Y-115108570D01*
X91683806Y-115104134D01*
X91682153Y-115099514D01*
X91680961Y-115094755D01*
X91680241Y-115089901D01*
X91680000Y-115085000D01*
X91680000Y-114335000D01*
X91680241Y-114330099D01*
X91680961Y-114325245D01*
X91682153Y-114320486D01*
X91683806Y-114315866D01*
X91685904Y-114311430D01*
X91688427Y-114307221D01*
X91691349Y-114303280D01*
X91694645Y-114299645D01*
X91698280Y-114296349D01*
X91702221Y-114293427D01*
X91706430Y-114290904D01*
X91710866Y-114288806D01*
X91715486Y-114287153D01*
X91720245Y-114285961D01*
X91725099Y-114285241D01*
X91730000Y-114285000D01*
X91830000Y-114285000D01*
X91834901Y-114285241D01*
X91834901Y-114285241D01*
G37*
D16*
X91780000Y-114710000D03*
D10*
G36*
X91409901Y-113860241D02*
G01*
X91414755Y-113860961D01*
X91419514Y-113862153D01*
X91424134Y-113863806D01*
X91428570Y-113865904D01*
X91432779Y-113868427D01*
X91436720Y-113871349D01*
X91440355Y-113874645D01*
X91443651Y-113878280D01*
X91446573Y-113882221D01*
X91449096Y-113886430D01*
X91451194Y-113890866D01*
X91452847Y-113895486D01*
X91454039Y-113900245D01*
X91454759Y-113905099D01*
X91455000Y-113910000D01*
X91455000Y-114010000D01*
X91454759Y-114014901D01*
X91454039Y-114019755D01*
X91452847Y-114024514D01*
X91451194Y-114029134D01*
X91449096Y-114033570D01*
X91446573Y-114037779D01*
X91443651Y-114041720D01*
X91440355Y-114045355D01*
X91436720Y-114048651D01*
X91432779Y-114051573D01*
X91428570Y-114054096D01*
X91424134Y-114056194D01*
X91419514Y-114057847D01*
X91414755Y-114059039D01*
X91409901Y-114059759D01*
X91405000Y-114060000D01*
X90655000Y-114060000D01*
X90650099Y-114059759D01*
X90645245Y-114059039D01*
X90640486Y-114057847D01*
X90635866Y-114056194D01*
X90631430Y-114054096D01*
X90627221Y-114051573D01*
X90623280Y-114048651D01*
X90619645Y-114045355D01*
X90616349Y-114041720D01*
X90613427Y-114037779D01*
X90610904Y-114033570D01*
X90608806Y-114029134D01*
X90607153Y-114024514D01*
X90605961Y-114019755D01*
X90605241Y-114014901D01*
X90605000Y-114010000D01*
X90605000Y-113910000D01*
X90605241Y-113905099D01*
X90605961Y-113900245D01*
X90607153Y-113895486D01*
X90608806Y-113890866D01*
X90610904Y-113886430D01*
X90613427Y-113882221D01*
X90616349Y-113878280D01*
X90619645Y-113874645D01*
X90623280Y-113871349D01*
X90627221Y-113868427D01*
X90631430Y-113865904D01*
X90635866Y-113863806D01*
X90640486Y-113862153D01*
X90645245Y-113860961D01*
X90650099Y-113860241D01*
X90655000Y-113860000D01*
X91405000Y-113860000D01*
X91409901Y-113860241D01*
X91409901Y-113860241D01*
G37*
D16*
X91030000Y-113960000D03*
D10*
G36*
X91409901Y-113460241D02*
G01*
X91414755Y-113460961D01*
X91419514Y-113462153D01*
X91424134Y-113463806D01*
X91428570Y-113465904D01*
X91432779Y-113468427D01*
X91436720Y-113471349D01*
X91440355Y-113474645D01*
X91443651Y-113478280D01*
X91446573Y-113482221D01*
X91449096Y-113486430D01*
X91451194Y-113490866D01*
X91452847Y-113495486D01*
X91454039Y-113500245D01*
X91454759Y-113505099D01*
X91455000Y-113510000D01*
X91455000Y-113610000D01*
X91454759Y-113614901D01*
X91454039Y-113619755D01*
X91452847Y-113624514D01*
X91451194Y-113629134D01*
X91449096Y-113633570D01*
X91446573Y-113637779D01*
X91443651Y-113641720D01*
X91440355Y-113645355D01*
X91436720Y-113648651D01*
X91432779Y-113651573D01*
X91428570Y-113654096D01*
X91424134Y-113656194D01*
X91419514Y-113657847D01*
X91414755Y-113659039D01*
X91409901Y-113659759D01*
X91405000Y-113660000D01*
X90655000Y-113660000D01*
X90650099Y-113659759D01*
X90645245Y-113659039D01*
X90640486Y-113657847D01*
X90635866Y-113656194D01*
X90631430Y-113654096D01*
X90627221Y-113651573D01*
X90623280Y-113648651D01*
X90619645Y-113645355D01*
X90616349Y-113641720D01*
X90613427Y-113637779D01*
X90610904Y-113633570D01*
X90608806Y-113629134D01*
X90607153Y-113624514D01*
X90605961Y-113619755D01*
X90605241Y-113614901D01*
X90605000Y-113610000D01*
X90605000Y-113510000D01*
X90605241Y-113505099D01*
X90605961Y-113500245D01*
X90607153Y-113495486D01*
X90608806Y-113490866D01*
X90610904Y-113486430D01*
X90613427Y-113482221D01*
X90616349Y-113478280D01*
X90619645Y-113474645D01*
X90623280Y-113471349D01*
X90627221Y-113468427D01*
X90631430Y-113465904D01*
X90635866Y-113463806D01*
X90640486Y-113462153D01*
X90645245Y-113460961D01*
X90650099Y-113460241D01*
X90655000Y-113460000D01*
X91405000Y-113460000D01*
X91409901Y-113460241D01*
X91409901Y-113460241D01*
G37*
D16*
X91030000Y-113560000D03*
D10*
G36*
X91409901Y-113060241D02*
G01*
X91414755Y-113060961D01*
X91419514Y-113062153D01*
X91424134Y-113063806D01*
X91428570Y-113065904D01*
X91432779Y-113068427D01*
X91436720Y-113071349D01*
X91440355Y-113074645D01*
X91443651Y-113078280D01*
X91446573Y-113082221D01*
X91449096Y-113086430D01*
X91451194Y-113090866D01*
X91452847Y-113095486D01*
X91454039Y-113100245D01*
X91454759Y-113105099D01*
X91455000Y-113110000D01*
X91455000Y-113210000D01*
X91454759Y-113214901D01*
X91454039Y-113219755D01*
X91452847Y-113224514D01*
X91451194Y-113229134D01*
X91449096Y-113233570D01*
X91446573Y-113237779D01*
X91443651Y-113241720D01*
X91440355Y-113245355D01*
X91436720Y-113248651D01*
X91432779Y-113251573D01*
X91428570Y-113254096D01*
X91424134Y-113256194D01*
X91419514Y-113257847D01*
X91414755Y-113259039D01*
X91409901Y-113259759D01*
X91405000Y-113260000D01*
X90655000Y-113260000D01*
X90650099Y-113259759D01*
X90645245Y-113259039D01*
X90640486Y-113257847D01*
X90635866Y-113256194D01*
X90631430Y-113254096D01*
X90627221Y-113251573D01*
X90623280Y-113248651D01*
X90619645Y-113245355D01*
X90616349Y-113241720D01*
X90613427Y-113237779D01*
X90610904Y-113233570D01*
X90608806Y-113229134D01*
X90607153Y-113224514D01*
X90605961Y-113219755D01*
X90605241Y-113214901D01*
X90605000Y-113210000D01*
X90605000Y-113110000D01*
X90605241Y-113105099D01*
X90605961Y-113100245D01*
X90607153Y-113095486D01*
X90608806Y-113090866D01*
X90610904Y-113086430D01*
X90613427Y-113082221D01*
X90616349Y-113078280D01*
X90619645Y-113074645D01*
X90623280Y-113071349D01*
X90627221Y-113068427D01*
X90631430Y-113065904D01*
X90635866Y-113063806D01*
X90640486Y-113062153D01*
X90645245Y-113060961D01*
X90650099Y-113060241D01*
X90655000Y-113060000D01*
X91405000Y-113060000D01*
X91409901Y-113060241D01*
X91409901Y-113060241D01*
G37*
D16*
X91030000Y-113160000D03*
D10*
G36*
X91409901Y-112660241D02*
G01*
X91414755Y-112660961D01*
X91419514Y-112662153D01*
X91424134Y-112663806D01*
X91428570Y-112665904D01*
X91432779Y-112668427D01*
X91436720Y-112671349D01*
X91440355Y-112674645D01*
X91443651Y-112678280D01*
X91446573Y-112682221D01*
X91449096Y-112686430D01*
X91451194Y-112690866D01*
X91452847Y-112695486D01*
X91454039Y-112700245D01*
X91454759Y-112705099D01*
X91455000Y-112710000D01*
X91455000Y-112810000D01*
X91454759Y-112814901D01*
X91454039Y-112819755D01*
X91452847Y-112824514D01*
X91451194Y-112829134D01*
X91449096Y-112833570D01*
X91446573Y-112837779D01*
X91443651Y-112841720D01*
X91440355Y-112845355D01*
X91436720Y-112848651D01*
X91432779Y-112851573D01*
X91428570Y-112854096D01*
X91424134Y-112856194D01*
X91419514Y-112857847D01*
X91414755Y-112859039D01*
X91409901Y-112859759D01*
X91405000Y-112860000D01*
X90655000Y-112860000D01*
X90650099Y-112859759D01*
X90645245Y-112859039D01*
X90640486Y-112857847D01*
X90635866Y-112856194D01*
X90631430Y-112854096D01*
X90627221Y-112851573D01*
X90623280Y-112848651D01*
X90619645Y-112845355D01*
X90616349Y-112841720D01*
X90613427Y-112837779D01*
X90610904Y-112833570D01*
X90608806Y-112829134D01*
X90607153Y-112824514D01*
X90605961Y-112819755D01*
X90605241Y-112814901D01*
X90605000Y-112810000D01*
X90605000Y-112710000D01*
X90605241Y-112705099D01*
X90605961Y-112700245D01*
X90607153Y-112695486D01*
X90608806Y-112690866D01*
X90610904Y-112686430D01*
X90613427Y-112682221D01*
X90616349Y-112678280D01*
X90619645Y-112674645D01*
X90623280Y-112671349D01*
X90627221Y-112668427D01*
X90631430Y-112665904D01*
X90635866Y-112663806D01*
X90640486Y-112662153D01*
X90645245Y-112660961D01*
X90650099Y-112660241D01*
X90655000Y-112660000D01*
X91405000Y-112660000D01*
X91409901Y-112660241D01*
X91409901Y-112660241D01*
G37*
D16*
X91030000Y-112760000D03*
D10*
G36*
X91409901Y-112260241D02*
G01*
X91414755Y-112260961D01*
X91419514Y-112262153D01*
X91424134Y-112263806D01*
X91428570Y-112265904D01*
X91432779Y-112268427D01*
X91436720Y-112271349D01*
X91440355Y-112274645D01*
X91443651Y-112278280D01*
X91446573Y-112282221D01*
X91449096Y-112286430D01*
X91451194Y-112290866D01*
X91452847Y-112295486D01*
X91454039Y-112300245D01*
X91454759Y-112305099D01*
X91455000Y-112310000D01*
X91455000Y-112410000D01*
X91454759Y-112414901D01*
X91454039Y-112419755D01*
X91452847Y-112424514D01*
X91451194Y-112429134D01*
X91449096Y-112433570D01*
X91446573Y-112437779D01*
X91443651Y-112441720D01*
X91440355Y-112445355D01*
X91436720Y-112448651D01*
X91432779Y-112451573D01*
X91428570Y-112454096D01*
X91424134Y-112456194D01*
X91419514Y-112457847D01*
X91414755Y-112459039D01*
X91409901Y-112459759D01*
X91405000Y-112460000D01*
X90655000Y-112460000D01*
X90650099Y-112459759D01*
X90645245Y-112459039D01*
X90640486Y-112457847D01*
X90635866Y-112456194D01*
X90631430Y-112454096D01*
X90627221Y-112451573D01*
X90623280Y-112448651D01*
X90619645Y-112445355D01*
X90616349Y-112441720D01*
X90613427Y-112437779D01*
X90610904Y-112433570D01*
X90608806Y-112429134D01*
X90607153Y-112424514D01*
X90605961Y-112419755D01*
X90605241Y-112414901D01*
X90605000Y-112410000D01*
X90605000Y-112310000D01*
X90605241Y-112305099D01*
X90605961Y-112300245D01*
X90607153Y-112295486D01*
X90608806Y-112290866D01*
X90610904Y-112286430D01*
X90613427Y-112282221D01*
X90616349Y-112278280D01*
X90619645Y-112274645D01*
X90623280Y-112271349D01*
X90627221Y-112268427D01*
X90631430Y-112265904D01*
X90635866Y-112263806D01*
X90640486Y-112262153D01*
X90645245Y-112260961D01*
X90650099Y-112260241D01*
X90655000Y-112260000D01*
X91405000Y-112260000D01*
X91409901Y-112260241D01*
X91409901Y-112260241D01*
G37*
D16*
X91030000Y-112360000D03*
D10*
G36*
X91409901Y-111860241D02*
G01*
X91414755Y-111860961D01*
X91419514Y-111862153D01*
X91424134Y-111863806D01*
X91428570Y-111865904D01*
X91432779Y-111868427D01*
X91436720Y-111871349D01*
X91440355Y-111874645D01*
X91443651Y-111878280D01*
X91446573Y-111882221D01*
X91449096Y-111886430D01*
X91451194Y-111890866D01*
X91452847Y-111895486D01*
X91454039Y-111900245D01*
X91454759Y-111905099D01*
X91455000Y-111910000D01*
X91455000Y-112010000D01*
X91454759Y-112014901D01*
X91454039Y-112019755D01*
X91452847Y-112024514D01*
X91451194Y-112029134D01*
X91449096Y-112033570D01*
X91446573Y-112037779D01*
X91443651Y-112041720D01*
X91440355Y-112045355D01*
X91436720Y-112048651D01*
X91432779Y-112051573D01*
X91428570Y-112054096D01*
X91424134Y-112056194D01*
X91419514Y-112057847D01*
X91414755Y-112059039D01*
X91409901Y-112059759D01*
X91405000Y-112060000D01*
X90655000Y-112060000D01*
X90650099Y-112059759D01*
X90645245Y-112059039D01*
X90640486Y-112057847D01*
X90635866Y-112056194D01*
X90631430Y-112054096D01*
X90627221Y-112051573D01*
X90623280Y-112048651D01*
X90619645Y-112045355D01*
X90616349Y-112041720D01*
X90613427Y-112037779D01*
X90610904Y-112033570D01*
X90608806Y-112029134D01*
X90607153Y-112024514D01*
X90605961Y-112019755D01*
X90605241Y-112014901D01*
X90605000Y-112010000D01*
X90605000Y-111910000D01*
X90605241Y-111905099D01*
X90605961Y-111900245D01*
X90607153Y-111895486D01*
X90608806Y-111890866D01*
X90610904Y-111886430D01*
X90613427Y-111882221D01*
X90616349Y-111878280D01*
X90619645Y-111874645D01*
X90623280Y-111871349D01*
X90627221Y-111868427D01*
X90631430Y-111865904D01*
X90635866Y-111863806D01*
X90640486Y-111862153D01*
X90645245Y-111860961D01*
X90650099Y-111860241D01*
X90655000Y-111860000D01*
X91405000Y-111860000D01*
X91409901Y-111860241D01*
X91409901Y-111860241D01*
G37*
D16*
X91030000Y-111960000D03*
D10*
G36*
X91409901Y-111460241D02*
G01*
X91414755Y-111460961D01*
X91419514Y-111462153D01*
X91424134Y-111463806D01*
X91428570Y-111465904D01*
X91432779Y-111468427D01*
X91436720Y-111471349D01*
X91440355Y-111474645D01*
X91443651Y-111478280D01*
X91446573Y-111482221D01*
X91449096Y-111486430D01*
X91451194Y-111490866D01*
X91452847Y-111495486D01*
X91454039Y-111500245D01*
X91454759Y-111505099D01*
X91455000Y-111510000D01*
X91455000Y-111610000D01*
X91454759Y-111614901D01*
X91454039Y-111619755D01*
X91452847Y-111624514D01*
X91451194Y-111629134D01*
X91449096Y-111633570D01*
X91446573Y-111637779D01*
X91443651Y-111641720D01*
X91440355Y-111645355D01*
X91436720Y-111648651D01*
X91432779Y-111651573D01*
X91428570Y-111654096D01*
X91424134Y-111656194D01*
X91419514Y-111657847D01*
X91414755Y-111659039D01*
X91409901Y-111659759D01*
X91405000Y-111660000D01*
X90655000Y-111660000D01*
X90650099Y-111659759D01*
X90645245Y-111659039D01*
X90640486Y-111657847D01*
X90635866Y-111656194D01*
X90631430Y-111654096D01*
X90627221Y-111651573D01*
X90623280Y-111648651D01*
X90619645Y-111645355D01*
X90616349Y-111641720D01*
X90613427Y-111637779D01*
X90610904Y-111633570D01*
X90608806Y-111629134D01*
X90607153Y-111624514D01*
X90605961Y-111619755D01*
X90605241Y-111614901D01*
X90605000Y-111610000D01*
X90605000Y-111510000D01*
X90605241Y-111505099D01*
X90605961Y-111500245D01*
X90607153Y-111495486D01*
X90608806Y-111490866D01*
X90610904Y-111486430D01*
X90613427Y-111482221D01*
X90616349Y-111478280D01*
X90619645Y-111474645D01*
X90623280Y-111471349D01*
X90627221Y-111468427D01*
X90631430Y-111465904D01*
X90635866Y-111463806D01*
X90640486Y-111462153D01*
X90645245Y-111460961D01*
X90650099Y-111460241D01*
X90655000Y-111460000D01*
X91405000Y-111460000D01*
X91409901Y-111460241D01*
X91409901Y-111460241D01*
G37*
D16*
X91030000Y-111560000D03*
D10*
G36*
X91409901Y-111060241D02*
G01*
X91414755Y-111060961D01*
X91419514Y-111062153D01*
X91424134Y-111063806D01*
X91428570Y-111065904D01*
X91432779Y-111068427D01*
X91436720Y-111071349D01*
X91440355Y-111074645D01*
X91443651Y-111078280D01*
X91446573Y-111082221D01*
X91449096Y-111086430D01*
X91451194Y-111090866D01*
X91452847Y-111095486D01*
X91454039Y-111100245D01*
X91454759Y-111105099D01*
X91455000Y-111110000D01*
X91455000Y-111210000D01*
X91454759Y-111214901D01*
X91454039Y-111219755D01*
X91452847Y-111224514D01*
X91451194Y-111229134D01*
X91449096Y-111233570D01*
X91446573Y-111237779D01*
X91443651Y-111241720D01*
X91440355Y-111245355D01*
X91436720Y-111248651D01*
X91432779Y-111251573D01*
X91428570Y-111254096D01*
X91424134Y-111256194D01*
X91419514Y-111257847D01*
X91414755Y-111259039D01*
X91409901Y-111259759D01*
X91405000Y-111260000D01*
X90655000Y-111260000D01*
X90650099Y-111259759D01*
X90645245Y-111259039D01*
X90640486Y-111257847D01*
X90635866Y-111256194D01*
X90631430Y-111254096D01*
X90627221Y-111251573D01*
X90623280Y-111248651D01*
X90619645Y-111245355D01*
X90616349Y-111241720D01*
X90613427Y-111237779D01*
X90610904Y-111233570D01*
X90608806Y-111229134D01*
X90607153Y-111224514D01*
X90605961Y-111219755D01*
X90605241Y-111214901D01*
X90605000Y-111210000D01*
X90605000Y-111110000D01*
X90605241Y-111105099D01*
X90605961Y-111100245D01*
X90607153Y-111095486D01*
X90608806Y-111090866D01*
X90610904Y-111086430D01*
X90613427Y-111082221D01*
X90616349Y-111078280D01*
X90619645Y-111074645D01*
X90623280Y-111071349D01*
X90627221Y-111068427D01*
X90631430Y-111065904D01*
X90635866Y-111063806D01*
X90640486Y-111062153D01*
X90645245Y-111060961D01*
X90650099Y-111060241D01*
X90655000Y-111060000D01*
X91405000Y-111060000D01*
X91409901Y-111060241D01*
X91409901Y-111060241D01*
G37*
D16*
X91030000Y-111160000D03*
D10*
G36*
X91409901Y-110660241D02*
G01*
X91414755Y-110660961D01*
X91419514Y-110662153D01*
X91424134Y-110663806D01*
X91428570Y-110665904D01*
X91432779Y-110668427D01*
X91436720Y-110671349D01*
X91440355Y-110674645D01*
X91443651Y-110678280D01*
X91446573Y-110682221D01*
X91449096Y-110686430D01*
X91451194Y-110690866D01*
X91452847Y-110695486D01*
X91454039Y-110700245D01*
X91454759Y-110705099D01*
X91455000Y-110710000D01*
X91455000Y-110810000D01*
X91454759Y-110814901D01*
X91454039Y-110819755D01*
X91452847Y-110824514D01*
X91451194Y-110829134D01*
X91449096Y-110833570D01*
X91446573Y-110837779D01*
X91443651Y-110841720D01*
X91440355Y-110845355D01*
X91436720Y-110848651D01*
X91432779Y-110851573D01*
X91428570Y-110854096D01*
X91424134Y-110856194D01*
X91419514Y-110857847D01*
X91414755Y-110859039D01*
X91409901Y-110859759D01*
X91405000Y-110860000D01*
X90655000Y-110860000D01*
X90650099Y-110859759D01*
X90645245Y-110859039D01*
X90640486Y-110857847D01*
X90635866Y-110856194D01*
X90631430Y-110854096D01*
X90627221Y-110851573D01*
X90623280Y-110848651D01*
X90619645Y-110845355D01*
X90616349Y-110841720D01*
X90613427Y-110837779D01*
X90610904Y-110833570D01*
X90608806Y-110829134D01*
X90607153Y-110824514D01*
X90605961Y-110819755D01*
X90605241Y-110814901D01*
X90605000Y-110810000D01*
X90605000Y-110710000D01*
X90605241Y-110705099D01*
X90605961Y-110700245D01*
X90607153Y-110695486D01*
X90608806Y-110690866D01*
X90610904Y-110686430D01*
X90613427Y-110682221D01*
X90616349Y-110678280D01*
X90619645Y-110674645D01*
X90623280Y-110671349D01*
X90627221Y-110668427D01*
X90631430Y-110665904D01*
X90635866Y-110663806D01*
X90640486Y-110662153D01*
X90645245Y-110660961D01*
X90650099Y-110660241D01*
X90655000Y-110660000D01*
X91405000Y-110660000D01*
X91409901Y-110660241D01*
X91409901Y-110660241D01*
G37*
D16*
X91030000Y-110760000D03*
D10*
G36*
X91409901Y-110260241D02*
G01*
X91414755Y-110260961D01*
X91419514Y-110262153D01*
X91424134Y-110263806D01*
X91428570Y-110265904D01*
X91432779Y-110268427D01*
X91436720Y-110271349D01*
X91440355Y-110274645D01*
X91443651Y-110278280D01*
X91446573Y-110282221D01*
X91449096Y-110286430D01*
X91451194Y-110290866D01*
X91452847Y-110295486D01*
X91454039Y-110300245D01*
X91454759Y-110305099D01*
X91455000Y-110310000D01*
X91455000Y-110410000D01*
X91454759Y-110414901D01*
X91454039Y-110419755D01*
X91452847Y-110424514D01*
X91451194Y-110429134D01*
X91449096Y-110433570D01*
X91446573Y-110437779D01*
X91443651Y-110441720D01*
X91440355Y-110445355D01*
X91436720Y-110448651D01*
X91432779Y-110451573D01*
X91428570Y-110454096D01*
X91424134Y-110456194D01*
X91419514Y-110457847D01*
X91414755Y-110459039D01*
X91409901Y-110459759D01*
X91405000Y-110460000D01*
X90655000Y-110460000D01*
X90650099Y-110459759D01*
X90645245Y-110459039D01*
X90640486Y-110457847D01*
X90635866Y-110456194D01*
X90631430Y-110454096D01*
X90627221Y-110451573D01*
X90623280Y-110448651D01*
X90619645Y-110445355D01*
X90616349Y-110441720D01*
X90613427Y-110437779D01*
X90610904Y-110433570D01*
X90608806Y-110429134D01*
X90607153Y-110424514D01*
X90605961Y-110419755D01*
X90605241Y-110414901D01*
X90605000Y-110410000D01*
X90605000Y-110310000D01*
X90605241Y-110305099D01*
X90605961Y-110300245D01*
X90607153Y-110295486D01*
X90608806Y-110290866D01*
X90610904Y-110286430D01*
X90613427Y-110282221D01*
X90616349Y-110278280D01*
X90619645Y-110274645D01*
X90623280Y-110271349D01*
X90627221Y-110268427D01*
X90631430Y-110265904D01*
X90635866Y-110263806D01*
X90640486Y-110262153D01*
X90645245Y-110260961D01*
X90650099Y-110260241D01*
X90655000Y-110260000D01*
X91405000Y-110260000D01*
X91409901Y-110260241D01*
X91409901Y-110260241D01*
G37*
D16*
X91030000Y-110360000D03*
D10*
G36*
X91409901Y-109860241D02*
G01*
X91414755Y-109860961D01*
X91419514Y-109862153D01*
X91424134Y-109863806D01*
X91428570Y-109865904D01*
X91432779Y-109868427D01*
X91436720Y-109871349D01*
X91440355Y-109874645D01*
X91443651Y-109878280D01*
X91446573Y-109882221D01*
X91449096Y-109886430D01*
X91451194Y-109890866D01*
X91452847Y-109895486D01*
X91454039Y-109900245D01*
X91454759Y-109905099D01*
X91455000Y-109910000D01*
X91455000Y-110010000D01*
X91454759Y-110014901D01*
X91454039Y-110019755D01*
X91452847Y-110024514D01*
X91451194Y-110029134D01*
X91449096Y-110033570D01*
X91446573Y-110037779D01*
X91443651Y-110041720D01*
X91440355Y-110045355D01*
X91436720Y-110048651D01*
X91432779Y-110051573D01*
X91428570Y-110054096D01*
X91424134Y-110056194D01*
X91419514Y-110057847D01*
X91414755Y-110059039D01*
X91409901Y-110059759D01*
X91405000Y-110060000D01*
X90655000Y-110060000D01*
X90650099Y-110059759D01*
X90645245Y-110059039D01*
X90640486Y-110057847D01*
X90635866Y-110056194D01*
X90631430Y-110054096D01*
X90627221Y-110051573D01*
X90623280Y-110048651D01*
X90619645Y-110045355D01*
X90616349Y-110041720D01*
X90613427Y-110037779D01*
X90610904Y-110033570D01*
X90608806Y-110029134D01*
X90607153Y-110024514D01*
X90605961Y-110019755D01*
X90605241Y-110014901D01*
X90605000Y-110010000D01*
X90605000Y-109910000D01*
X90605241Y-109905099D01*
X90605961Y-109900245D01*
X90607153Y-109895486D01*
X90608806Y-109890866D01*
X90610904Y-109886430D01*
X90613427Y-109882221D01*
X90616349Y-109878280D01*
X90619645Y-109874645D01*
X90623280Y-109871349D01*
X90627221Y-109868427D01*
X90631430Y-109865904D01*
X90635866Y-109863806D01*
X90640486Y-109862153D01*
X90645245Y-109860961D01*
X90650099Y-109860241D01*
X90655000Y-109860000D01*
X91405000Y-109860000D01*
X91409901Y-109860241D01*
X91409901Y-109860241D01*
G37*
D16*
X91030000Y-109960000D03*
D10*
G36*
X91409901Y-109460241D02*
G01*
X91414755Y-109460961D01*
X91419514Y-109462153D01*
X91424134Y-109463806D01*
X91428570Y-109465904D01*
X91432779Y-109468427D01*
X91436720Y-109471349D01*
X91440355Y-109474645D01*
X91443651Y-109478280D01*
X91446573Y-109482221D01*
X91449096Y-109486430D01*
X91451194Y-109490866D01*
X91452847Y-109495486D01*
X91454039Y-109500245D01*
X91454759Y-109505099D01*
X91455000Y-109510000D01*
X91455000Y-109610000D01*
X91454759Y-109614901D01*
X91454039Y-109619755D01*
X91452847Y-109624514D01*
X91451194Y-109629134D01*
X91449096Y-109633570D01*
X91446573Y-109637779D01*
X91443651Y-109641720D01*
X91440355Y-109645355D01*
X91436720Y-109648651D01*
X91432779Y-109651573D01*
X91428570Y-109654096D01*
X91424134Y-109656194D01*
X91419514Y-109657847D01*
X91414755Y-109659039D01*
X91409901Y-109659759D01*
X91405000Y-109660000D01*
X90655000Y-109660000D01*
X90650099Y-109659759D01*
X90645245Y-109659039D01*
X90640486Y-109657847D01*
X90635866Y-109656194D01*
X90631430Y-109654096D01*
X90627221Y-109651573D01*
X90623280Y-109648651D01*
X90619645Y-109645355D01*
X90616349Y-109641720D01*
X90613427Y-109637779D01*
X90610904Y-109633570D01*
X90608806Y-109629134D01*
X90607153Y-109624514D01*
X90605961Y-109619755D01*
X90605241Y-109614901D01*
X90605000Y-109610000D01*
X90605000Y-109510000D01*
X90605241Y-109505099D01*
X90605961Y-109500245D01*
X90607153Y-109495486D01*
X90608806Y-109490866D01*
X90610904Y-109486430D01*
X90613427Y-109482221D01*
X90616349Y-109478280D01*
X90619645Y-109474645D01*
X90623280Y-109471349D01*
X90627221Y-109468427D01*
X90631430Y-109465904D01*
X90635866Y-109463806D01*
X90640486Y-109462153D01*
X90645245Y-109460961D01*
X90650099Y-109460241D01*
X90655000Y-109460000D01*
X91405000Y-109460000D01*
X91409901Y-109460241D01*
X91409901Y-109460241D01*
G37*
D16*
X91030000Y-109560000D03*
D17*
X95817500Y-113597500D03*
D10*
G36*
X95943961Y-113387899D02*
G01*
X95963811Y-113393921D01*
X95982106Y-113403699D01*
X95998141Y-113416859D01*
X96011301Y-113432894D01*
X96021079Y-113451189D01*
X96027101Y-113471039D01*
X96029134Y-113491683D01*
X96029134Y-113703317D01*
X96027101Y-113723961D01*
X96021079Y-113743811D01*
X96011301Y-113762106D01*
X95998141Y-113778141D01*
X95982106Y-113791301D01*
X95963811Y-113801079D01*
X95943961Y-113807101D01*
X95923317Y-113809134D01*
X95711683Y-113809134D01*
X95691039Y-113807101D01*
X95671189Y-113801079D01*
X95652894Y-113791301D01*
X95636859Y-113778141D01*
X95623699Y-113762106D01*
X95613921Y-113743811D01*
X95607899Y-113723961D01*
X95605866Y-113703317D01*
X95605866Y-113610808D01*
X95607899Y-113590164D01*
X95613921Y-113570314D01*
X95623699Y-113552019D01*
X95636859Y-113535984D01*
X95755984Y-113416859D01*
X95772019Y-113403699D01*
X95790314Y-113393921D01*
X95810164Y-113387899D01*
X95830808Y-113385866D01*
X95923317Y-113385866D01*
X95943961Y-113387899D01*
X95943961Y-113387899D01*
G37*
D17*
X95817500Y-109922500D03*
D10*
G36*
X95943961Y-109712899D02*
G01*
X95963811Y-109718921D01*
X95982106Y-109728699D01*
X95998141Y-109741859D01*
X96011301Y-109757894D01*
X96021079Y-109776189D01*
X96027101Y-109796039D01*
X96029134Y-109816683D01*
X96029134Y-110028317D01*
X96027101Y-110048961D01*
X96021079Y-110068811D01*
X96011301Y-110087106D01*
X95998141Y-110103141D01*
X95982106Y-110116301D01*
X95963811Y-110126079D01*
X95943961Y-110132101D01*
X95923317Y-110134134D01*
X95830808Y-110134134D01*
X95810164Y-110132101D01*
X95790314Y-110126079D01*
X95772019Y-110116301D01*
X95755984Y-110103141D01*
X95636859Y-109984016D01*
X95623699Y-109967981D01*
X95613921Y-109949686D01*
X95607899Y-109929836D01*
X95605866Y-109909192D01*
X95605866Y-109816683D01*
X95607899Y-109796039D01*
X95613921Y-109776189D01*
X95623699Y-109757894D01*
X95636859Y-109741859D01*
X95652894Y-109728699D01*
X95671189Y-109718921D01*
X95691039Y-109712899D01*
X95711683Y-109710866D01*
X95923317Y-109710866D01*
X95943961Y-109712899D01*
X95943961Y-109712899D01*
G37*
D17*
X92142500Y-113597500D03*
D10*
G36*
X92149836Y-113387899D02*
G01*
X92169686Y-113393921D01*
X92187981Y-113403699D01*
X92204016Y-113416859D01*
X92323141Y-113535984D01*
X92336301Y-113552019D01*
X92346079Y-113570314D01*
X92352101Y-113590164D01*
X92354134Y-113610808D01*
X92354134Y-113703317D01*
X92352101Y-113723961D01*
X92346079Y-113743811D01*
X92336301Y-113762106D01*
X92323141Y-113778141D01*
X92307106Y-113791301D01*
X92288811Y-113801079D01*
X92268961Y-113807101D01*
X92248317Y-113809134D01*
X92036683Y-113809134D01*
X92016039Y-113807101D01*
X91996189Y-113801079D01*
X91977894Y-113791301D01*
X91961859Y-113778141D01*
X91948699Y-113762106D01*
X91938921Y-113743811D01*
X91932899Y-113723961D01*
X91930866Y-113703317D01*
X91930866Y-113491683D01*
X91932899Y-113471039D01*
X91938921Y-113451189D01*
X91948699Y-113432894D01*
X91961859Y-113416859D01*
X91977894Y-113403699D01*
X91996189Y-113393921D01*
X92016039Y-113387899D01*
X92036683Y-113385866D01*
X92129192Y-113385866D01*
X92149836Y-113387899D01*
X92149836Y-113387899D01*
G37*
D17*
X92142500Y-109922500D03*
D10*
G36*
X92268961Y-109712899D02*
G01*
X92288811Y-109718921D01*
X92307106Y-109728699D01*
X92323141Y-109741859D01*
X92336301Y-109757894D01*
X92346079Y-109776189D01*
X92352101Y-109796039D01*
X92354134Y-109816683D01*
X92354134Y-109909192D01*
X92352101Y-109929836D01*
X92346079Y-109949686D01*
X92336301Y-109967981D01*
X92323141Y-109984016D01*
X92204016Y-110103141D01*
X92187981Y-110116301D01*
X92169686Y-110126079D01*
X92149836Y-110132101D01*
X92129192Y-110134134D01*
X92036683Y-110134134D01*
X92016039Y-110132101D01*
X91996189Y-110126079D01*
X91977894Y-110116301D01*
X91961859Y-110103141D01*
X91948699Y-110087106D01*
X91938921Y-110068811D01*
X91932899Y-110048961D01*
X91930866Y-110028317D01*
X91930866Y-109816683D01*
X91932899Y-109796039D01*
X91938921Y-109776189D01*
X91948699Y-109757894D01*
X91961859Y-109741859D01*
X91977894Y-109728699D01*
X91996189Y-109718921D01*
X92016039Y-109712899D01*
X92036683Y-109710866D01*
X92248317Y-109710866D01*
X92268961Y-109712899D01*
X92268961Y-109712899D01*
G37*
D18*
X95030000Y-113597500D03*
D10*
G36*
X95302842Y-113387636D02*
G01*
X95320119Y-113392876D01*
X95336041Y-113401387D01*
X95349997Y-113412841D01*
X95426293Y-113489137D01*
X95437747Y-113503093D01*
X95446258Y-113519015D01*
X95451498Y-113536292D01*
X95453268Y-113554259D01*
X95453268Y-113717037D01*
X95451498Y-113735004D01*
X95446258Y-113752281D01*
X95437747Y-113768203D01*
X95426293Y-113782159D01*
X95412337Y-113793613D01*
X95396415Y-113802124D01*
X95379138Y-113807364D01*
X95361171Y-113809134D01*
X94698829Y-113809134D01*
X94680862Y-113807364D01*
X94663585Y-113802124D01*
X94647663Y-113793613D01*
X94633707Y-113782159D01*
X94622253Y-113768203D01*
X94613742Y-113752281D01*
X94608502Y-113735004D01*
X94606732Y-113717037D01*
X94606732Y-113554259D01*
X94608502Y-113536292D01*
X94613742Y-113519015D01*
X94622253Y-113503093D01*
X94633707Y-113489137D01*
X94710003Y-113412841D01*
X94723959Y-113401387D01*
X94739881Y-113392876D01*
X94757158Y-113387636D01*
X94775125Y-113385866D01*
X95284875Y-113385866D01*
X95302842Y-113387636D01*
X95302842Y-113387636D01*
G37*
D18*
X93980000Y-113597500D03*
D10*
G36*
X94252842Y-113387636D02*
G01*
X94270119Y-113392876D01*
X94286041Y-113401387D01*
X94299997Y-113412841D01*
X94376293Y-113489137D01*
X94387747Y-113503093D01*
X94396258Y-113519015D01*
X94401498Y-113536292D01*
X94403268Y-113554259D01*
X94403268Y-113717037D01*
X94401498Y-113735004D01*
X94396258Y-113752281D01*
X94387747Y-113768203D01*
X94376293Y-113782159D01*
X94362337Y-113793613D01*
X94346415Y-113802124D01*
X94329138Y-113807364D01*
X94311171Y-113809134D01*
X93648829Y-113809134D01*
X93630862Y-113807364D01*
X93613585Y-113802124D01*
X93597663Y-113793613D01*
X93583707Y-113782159D01*
X93572253Y-113768203D01*
X93563742Y-113752281D01*
X93558502Y-113735004D01*
X93556732Y-113717037D01*
X93556732Y-113554259D01*
X93558502Y-113536292D01*
X93563742Y-113519015D01*
X93572253Y-113503093D01*
X93583707Y-113489137D01*
X93660003Y-113412841D01*
X93673959Y-113401387D01*
X93689881Y-113392876D01*
X93707158Y-113387636D01*
X93725125Y-113385866D01*
X94234875Y-113385866D01*
X94252842Y-113387636D01*
X94252842Y-113387636D01*
G37*
D18*
X92930000Y-113597500D03*
D10*
G36*
X93202842Y-113387636D02*
G01*
X93220119Y-113392876D01*
X93236041Y-113401387D01*
X93249997Y-113412841D01*
X93326293Y-113489137D01*
X93337747Y-113503093D01*
X93346258Y-113519015D01*
X93351498Y-113536292D01*
X93353268Y-113554259D01*
X93353268Y-113717037D01*
X93351498Y-113735004D01*
X93346258Y-113752281D01*
X93337747Y-113768203D01*
X93326293Y-113782159D01*
X93312337Y-113793613D01*
X93296415Y-113802124D01*
X93279138Y-113807364D01*
X93261171Y-113809134D01*
X92598829Y-113809134D01*
X92580862Y-113807364D01*
X92563585Y-113802124D01*
X92547663Y-113793613D01*
X92533707Y-113782159D01*
X92522253Y-113768203D01*
X92513742Y-113752281D01*
X92508502Y-113735004D01*
X92506732Y-113717037D01*
X92506732Y-113554259D01*
X92508502Y-113536292D01*
X92513742Y-113519015D01*
X92522253Y-113503093D01*
X92533707Y-113489137D01*
X92610003Y-113412841D01*
X92623959Y-113401387D01*
X92639881Y-113392876D01*
X92657158Y-113387636D01*
X92675125Y-113385866D01*
X93184875Y-113385866D01*
X93202842Y-113387636D01*
X93202842Y-113387636D01*
G37*
D18*
X95030000Y-109922500D03*
D10*
G36*
X95379138Y-109712636D02*
G01*
X95396415Y-109717876D01*
X95412337Y-109726387D01*
X95426293Y-109737841D01*
X95437747Y-109751797D01*
X95446258Y-109767719D01*
X95451498Y-109784996D01*
X95453268Y-109802963D01*
X95453268Y-109965741D01*
X95451498Y-109983708D01*
X95446258Y-110000985D01*
X95437747Y-110016907D01*
X95426293Y-110030863D01*
X95349997Y-110107159D01*
X95336041Y-110118613D01*
X95320119Y-110127124D01*
X95302842Y-110132364D01*
X95284875Y-110134134D01*
X94775125Y-110134134D01*
X94757158Y-110132364D01*
X94739881Y-110127124D01*
X94723959Y-110118613D01*
X94710003Y-110107159D01*
X94633707Y-110030863D01*
X94622253Y-110016907D01*
X94613742Y-110000985D01*
X94608502Y-109983708D01*
X94606732Y-109965741D01*
X94606732Y-109802963D01*
X94608502Y-109784996D01*
X94613742Y-109767719D01*
X94622253Y-109751797D01*
X94633707Y-109737841D01*
X94647663Y-109726387D01*
X94663585Y-109717876D01*
X94680862Y-109712636D01*
X94698829Y-109710866D01*
X95361171Y-109710866D01*
X95379138Y-109712636D01*
X95379138Y-109712636D01*
G37*
D18*
X93980000Y-109922500D03*
D10*
G36*
X94329138Y-109712636D02*
G01*
X94346415Y-109717876D01*
X94362337Y-109726387D01*
X94376293Y-109737841D01*
X94387747Y-109751797D01*
X94396258Y-109767719D01*
X94401498Y-109784996D01*
X94403268Y-109802963D01*
X94403268Y-109965741D01*
X94401498Y-109983708D01*
X94396258Y-110000985D01*
X94387747Y-110016907D01*
X94376293Y-110030863D01*
X94299997Y-110107159D01*
X94286041Y-110118613D01*
X94270119Y-110127124D01*
X94252842Y-110132364D01*
X94234875Y-110134134D01*
X93725125Y-110134134D01*
X93707158Y-110132364D01*
X93689881Y-110127124D01*
X93673959Y-110118613D01*
X93660003Y-110107159D01*
X93583707Y-110030863D01*
X93572253Y-110016907D01*
X93563742Y-110000985D01*
X93558502Y-109983708D01*
X93556732Y-109965741D01*
X93556732Y-109802963D01*
X93558502Y-109784996D01*
X93563742Y-109767719D01*
X93572253Y-109751797D01*
X93583707Y-109737841D01*
X93597663Y-109726387D01*
X93613585Y-109717876D01*
X93630862Y-109712636D01*
X93648829Y-109710866D01*
X94311171Y-109710866D01*
X94329138Y-109712636D01*
X94329138Y-109712636D01*
G37*
D18*
X92930000Y-109922500D03*
D10*
G36*
X93279138Y-109712636D02*
G01*
X93296415Y-109717876D01*
X93312337Y-109726387D01*
X93326293Y-109737841D01*
X93337747Y-109751797D01*
X93346258Y-109767719D01*
X93351498Y-109784996D01*
X93353268Y-109802963D01*
X93353268Y-109965741D01*
X93351498Y-109983708D01*
X93346258Y-110000985D01*
X93337747Y-110016907D01*
X93326293Y-110030863D01*
X93249997Y-110107159D01*
X93236041Y-110118613D01*
X93220119Y-110127124D01*
X93202842Y-110132364D01*
X93184875Y-110134134D01*
X92675125Y-110134134D01*
X92657158Y-110132364D01*
X92639881Y-110127124D01*
X92623959Y-110118613D01*
X92610003Y-110107159D01*
X92533707Y-110030863D01*
X92522253Y-110016907D01*
X92513742Y-110000985D01*
X92508502Y-109983708D01*
X92506732Y-109965741D01*
X92506732Y-109802963D01*
X92508502Y-109784996D01*
X92513742Y-109767719D01*
X92522253Y-109751797D01*
X92533707Y-109737841D01*
X92547663Y-109726387D01*
X92563585Y-109717876D01*
X92580862Y-109712636D01*
X92598829Y-109710866D01*
X93261171Y-109710866D01*
X93279138Y-109712636D01*
X93279138Y-109712636D01*
G37*
D18*
X95817500Y-112810000D03*
D10*
G36*
X95955004Y-112388502D02*
G01*
X95972281Y-112393742D01*
X95988203Y-112402253D01*
X96002159Y-112413707D01*
X96013613Y-112427663D01*
X96022124Y-112443585D01*
X96027364Y-112460862D01*
X96029134Y-112478829D01*
X96029134Y-113141171D01*
X96027364Y-113159138D01*
X96022124Y-113176415D01*
X96013613Y-113192337D01*
X96002159Y-113206293D01*
X95988203Y-113217747D01*
X95972281Y-113226258D01*
X95955004Y-113231498D01*
X95937037Y-113233268D01*
X95774259Y-113233268D01*
X95756292Y-113231498D01*
X95739015Y-113226258D01*
X95723093Y-113217747D01*
X95709137Y-113206293D01*
X95632841Y-113129997D01*
X95621387Y-113116041D01*
X95612876Y-113100119D01*
X95607636Y-113082842D01*
X95605866Y-113064875D01*
X95605866Y-112555125D01*
X95607636Y-112537158D01*
X95612876Y-112519881D01*
X95621387Y-112503959D01*
X95632841Y-112490003D01*
X95709137Y-112413707D01*
X95723093Y-112402253D01*
X95739015Y-112393742D01*
X95756292Y-112388502D01*
X95774259Y-112386732D01*
X95937037Y-112386732D01*
X95955004Y-112388502D01*
X95955004Y-112388502D01*
G37*
D18*
X95817500Y-111760000D03*
D10*
G36*
X95955004Y-111338502D02*
G01*
X95972281Y-111343742D01*
X95988203Y-111352253D01*
X96002159Y-111363707D01*
X96013613Y-111377663D01*
X96022124Y-111393585D01*
X96027364Y-111410862D01*
X96029134Y-111428829D01*
X96029134Y-112091171D01*
X96027364Y-112109138D01*
X96022124Y-112126415D01*
X96013613Y-112142337D01*
X96002159Y-112156293D01*
X95988203Y-112167747D01*
X95972281Y-112176258D01*
X95955004Y-112181498D01*
X95937037Y-112183268D01*
X95774259Y-112183268D01*
X95756292Y-112181498D01*
X95739015Y-112176258D01*
X95723093Y-112167747D01*
X95709137Y-112156293D01*
X95632841Y-112079997D01*
X95621387Y-112066041D01*
X95612876Y-112050119D01*
X95607636Y-112032842D01*
X95605866Y-112014875D01*
X95605866Y-111505125D01*
X95607636Y-111487158D01*
X95612876Y-111469881D01*
X95621387Y-111453959D01*
X95632841Y-111440003D01*
X95709137Y-111363707D01*
X95723093Y-111352253D01*
X95739015Y-111343742D01*
X95756292Y-111338502D01*
X95774259Y-111336732D01*
X95937037Y-111336732D01*
X95955004Y-111338502D01*
X95955004Y-111338502D01*
G37*
D18*
X95817500Y-110710000D03*
D10*
G36*
X95955004Y-110288502D02*
G01*
X95972281Y-110293742D01*
X95988203Y-110302253D01*
X96002159Y-110313707D01*
X96013613Y-110327663D01*
X96022124Y-110343585D01*
X96027364Y-110360862D01*
X96029134Y-110378829D01*
X96029134Y-111041171D01*
X96027364Y-111059138D01*
X96022124Y-111076415D01*
X96013613Y-111092337D01*
X96002159Y-111106293D01*
X95988203Y-111117747D01*
X95972281Y-111126258D01*
X95955004Y-111131498D01*
X95937037Y-111133268D01*
X95774259Y-111133268D01*
X95756292Y-111131498D01*
X95739015Y-111126258D01*
X95723093Y-111117747D01*
X95709137Y-111106293D01*
X95632841Y-111029997D01*
X95621387Y-111016041D01*
X95612876Y-111000119D01*
X95607636Y-110982842D01*
X95605866Y-110964875D01*
X95605866Y-110455125D01*
X95607636Y-110437158D01*
X95612876Y-110419881D01*
X95621387Y-110403959D01*
X95632841Y-110390003D01*
X95709137Y-110313707D01*
X95723093Y-110302253D01*
X95739015Y-110293742D01*
X95756292Y-110288502D01*
X95774259Y-110286732D01*
X95937037Y-110286732D01*
X95955004Y-110288502D01*
X95955004Y-110288502D01*
G37*
D18*
X92142500Y-112810000D03*
D10*
G36*
X92203708Y-112388502D02*
G01*
X92220985Y-112393742D01*
X92236907Y-112402253D01*
X92250863Y-112413707D01*
X92327159Y-112490003D01*
X92338613Y-112503959D01*
X92347124Y-112519881D01*
X92352364Y-112537158D01*
X92354134Y-112555125D01*
X92354134Y-113064875D01*
X92352364Y-113082842D01*
X92347124Y-113100119D01*
X92338613Y-113116041D01*
X92327159Y-113129997D01*
X92250863Y-113206293D01*
X92236907Y-113217747D01*
X92220985Y-113226258D01*
X92203708Y-113231498D01*
X92185741Y-113233268D01*
X92022963Y-113233268D01*
X92004996Y-113231498D01*
X91987719Y-113226258D01*
X91971797Y-113217747D01*
X91957841Y-113206293D01*
X91946387Y-113192337D01*
X91937876Y-113176415D01*
X91932636Y-113159138D01*
X91930866Y-113141171D01*
X91930866Y-112478829D01*
X91932636Y-112460862D01*
X91937876Y-112443585D01*
X91946387Y-112427663D01*
X91957841Y-112413707D01*
X91971797Y-112402253D01*
X91987719Y-112393742D01*
X92004996Y-112388502D01*
X92022963Y-112386732D01*
X92185741Y-112386732D01*
X92203708Y-112388502D01*
X92203708Y-112388502D01*
G37*
D18*
X92142500Y-111760000D03*
D10*
G36*
X92203708Y-111338502D02*
G01*
X92220985Y-111343742D01*
X92236907Y-111352253D01*
X92250863Y-111363707D01*
X92327159Y-111440003D01*
X92338613Y-111453959D01*
X92347124Y-111469881D01*
X92352364Y-111487158D01*
X92354134Y-111505125D01*
X92354134Y-112014875D01*
X92352364Y-112032842D01*
X92347124Y-112050119D01*
X92338613Y-112066041D01*
X92327159Y-112079997D01*
X92250863Y-112156293D01*
X92236907Y-112167747D01*
X92220985Y-112176258D01*
X92203708Y-112181498D01*
X92185741Y-112183268D01*
X92022963Y-112183268D01*
X92004996Y-112181498D01*
X91987719Y-112176258D01*
X91971797Y-112167747D01*
X91957841Y-112156293D01*
X91946387Y-112142337D01*
X91937876Y-112126415D01*
X91932636Y-112109138D01*
X91930866Y-112091171D01*
X91930866Y-111428829D01*
X91932636Y-111410862D01*
X91937876Y-111393585D01*
X91946387Y-111377663D01*
X91957841Y-111363707D01*
X91971797Y-111352253D01*
X91987719Y-111343742D01*
X92004996Y-111338502D01*
X92022963Y-111336732D01*
X92185741Y-111336732D01*
X92203708Y-111338502D01*
X92203708Y-111338502D01*
G37*
D18*
X92142500Y-110710000D03*
D10*
G36*
X92203708Y-110288502D02*
G01*
X92220985Y-110293742D01*
X92236907Y-110302253D01*
X92250863Y-110313707D01*
X92327159Y-110390003D01*
X92338613Y-110403959D01*
X92347124Y-110419881D01*
X92352364Y-110437158D01*
X92354134Y-110455125D01*
X92354134Y-110964875D01*
X92352364Y-110982842D01*
X92347124Y-111000119D01*
X92338613Y-111016041D01*
X92327159Y-111029997D01*
X92250863Y-111106293D01*
X92236907Y-111117747D01*
X92220985Y-111126258D01*
X92203708Y-111131498D01*
X92185741Y-111133268D01*
X92022963Y-111133268D01*
X92004996Y-111131498D01*
X91987719Y-111126258D01*
X91971797Y-111117747D01*
X91957841Y-111106293D01*
X91946387Y-111092337D01*
X91937876Y-111076415D01*
X91932636Y-111059138D01*
X91930866Y-111041171D01*
X91930866Y-110378829D01*
X91932636Y-110360862D01*
X91937876Y-110343585D01*
X91946387Y-110327663D01*
X91957841Y-110313707D01*
X91971797Y-110302253D01*
X91987719Y-110293742D01*
X92004996Y-110288502D01*
X92022963Y-110286732D01*
X92185741Y-110286732D01*
X92203708Y-110288502D01*
X92203708Y-110288502D01*
G37*
G36*
X95262378Y-112387751D02*
G01*
X95282922Y-112390798D01*
X95303068Y-112395845D01*
X95322623Y-112402842D01*
X95341398Y-112411721D01*
X95359212Y-112422399D01*
X95375893Y-112434771D01*
X95391282Y-112448718D01*
X95405229Y-112464107D01*
X95417601Y-112480788D01*
X95428279Y-112498602D01*
X95437158Y-112517377D01*
X95444155Y-112536932D01*
X95449202Y-112557078D01*
X95452249Y-112577622D01*
X95453268Y-112598366D01*
X95453268Y-113021634D01*
X95452249Y-113042378D01*
X95449202Y-113062922D01*
X95444155Y-113083068D01*
X95437158Y-113102623D01*
X95428279Y-113121398D01*
X95417601Y-113139212D01*
X95405229Y-113155893D01*
X95391282Y-113171282D01*
X95375893Y-113185229D01*
X95359212Y-113197601D01*
X95341398Y-113208279D01*
X95322623Y-113217158D01*
X95303068Y-113224155D01*
X95282922Y-113229202D01*
X95262378Y-113232249D01*
X95241634Y-113233268D01*
X94818366Y-113233268D01*
X94797622Y-113232249D01*
X94777078Y-113229202D01*
X94756932Y-113224155D01*
X94737377Y-113217158D01*
X94718602Y-113208279D01*
X94700788Y-113197601D01*
X94684107Y-113185229D01*
X94668718Y-113171282D01*
X94654771Y-113155893D01*
X94642399Y-113139212D01*
X94631721Y-113121398D01*
X94622842Y-113102623D01*
X94615845Y-113083068D01*
X94610798Y-113062922D01*
X94607751Y-113042378D01*
X94606732Y-113021634D01*
X94606732Y-112598366D01*
X94607751Y-112577622D01*
X94610798Y-112557078D01*
X94615845Y-112536932D01*
X94622842Y-112517377D01*
X94631721Y-112498602D01*
X94642399Y-112480788D01*
X94654771Y-112464107D01*
X94668718Y-112448718D01*
X94684107Y-112434771D01*
X94700788Y-112422399D01*
X94718602Y-112411721D01*
X94737377Y-112402842D01*
X94756932Y-112395845D01*
X94777078Y-112390798D01*
X94797622Y-112387751D01*
X94818366Y-112386732D01*
X95241634Y-112386732D01*
X95262378Y-112387751D01*
X95262378Y-112387751D01*
G37*
D19*
X95030000Y-112810000D03*
D10*
G36*
X95262378Y-111337751D02*
G01*
X95282922Y-111340798D01*
X95303068Y-111345845D01*
X95322623Y-111352842D01*
X95341398Y-111361721D01*
X95359212Y-111372399D01*
X95375893Y-111384771D01*
X95391282Y-111398718D01*
X95405229Y-111414107D01*
X95417601Y-111430788D01*
X95428279Y-111448602D01*
X95437158Y-111467377D01*
X95444155Y-111486932D01*
X95449202Y-111507078D01*
X95452249Y-111527622D01*
X95453268Y-111548366D01*
X95453268Y-111971634D01*
X95452249Y-111992378D01*
X95449202Y-112012922D01*
X95444155Y-112033068D01*
X95437158Y-112052623D01*
X95428279Y-112071398D01*
X95417601Y-112089212D01*
X95405229Y-112105893D01*
X95391282Y-112121282D01*
X95375893Y-112135229D01*
X95359212Y-112147601D01*
X95341398Y-112158279D01*
X95322623Y-112167158D01*
X95303068Y-112174155D01*
X95282922Y-112179202D01*
X95262378Y-112182249D01*
X95241634Y-112183268D01*
X94818366Y-112183268D01*
X94797622Y-112182249D01*
X94777078Y-112179202D01*
X94756932Y-112174155D01*
X94737377Y-112167158D01*
X94718602Y-112158279D01*
X94700788Y-112147601D01*
X94684107Y-112135229D01*
X94668718Y-112121282D01*
X94654771Y-112105893D01*
X94642399Y-112089212D01*
X94631721Y-112071398D01*
X94622842Y-112052623D01*
X94615845Y-112033068D01*
X94610798Y-112012922D01*
X94607751Y-111992378D01*
X94606732Y-111971634D01*
X94606732Y-111548366D01*
X94607751Y-111527622D01*
X94610798Y-111507078D01*
X94615845Y-111486932D01*
X94622842Y-111467377D01*
X94631721Y-111448602D01*
X94642399Y-111430788D01*
X94654771Y-111414107D01*
X94668718Y-111398718D01*
X94684107Y-111384771D01*
X94700788Y-111372399D01*
X94718602Y-111361721D01*
X94737377Y-111352842D01*
X94756932Y-111345845D01*
X94777078Y-111340798D01*
X94797622Y-111337751D01*
X94818366Y-111336732D01*
X95241634Y-111336732D01*
X95262378Y-111337751D01*
X95262378Y-111337751D01*
G37*
D19*
X95030000Y-111760000D03*
D10*
G36*
X95262378Y-110287751D02*
G01*
X95282922Y-110290798D01*
X95303068Y-110295845D01*
X95322623Y-110302842D01*
X95341398Y-110311721D01*
X95359212Y-110322399D01*
X95375893Y-110334771D01*
X95391282Y-110348718D01*
X95405229Y-110364107D01*
X95417601Y-110380788D01*
X95428279Y-110398602D01*
X95437158Y-110417377D01*
X95444155Y-110436932D01*
X95449202Y-110457078D01*
X95452249Y-110477622D01*
X95453268Y-110498366D01*
X95453268Y-110921634D01*
X95452249Y-110942378D01*
X95449202Y-110962922D01*
X95444155Y-110983068D01*
X95437158Y-111002623D01*
X95428279Y-111021398D01*
X95417601Y-111039212D01*
X95405229Y-111055893D01*
X95391282Y-111071282D01*
X95375893Y-111085229D01*
X95359212Y-111097601D01*
X95341398Y-111108279D01*
X95322623Y-111117158D01*
X95303068Y-111124155D01*
X95282922Y-111129202D01*
X95262378Y-111132249D01*
X95241634Y-111133268D01*
X94818366Y-111133268D01*
X94797622Y-111132249D01*
X94777078Y-111129202D01*
X94756932Y-111124155D01*
X94737377Y-111117158D01*
X94718602Y-111108279D01*
X94700788Y-111097601D01*
X94684107Y-111085229D01*
X94668718Y-111071282D01*
X94654771Y-111055893D01*
X94642399Y-111039212D01*
X94631721Y-111021398D01*
X94622842Y-111002623D01*
X94615845Y-110983068D01*
X94610798Y-110962922D01*
X94607751Y-110942378D01*
X94606732Y-110921634D01*
X94606732Y-110498366D01*
X94607751Y-110477622D01*
X94610798Y-110457078D01*
X94615845Y-110436932D01*
X94622842Y-110417377D01*
X94631721Y-110398602D01*
X94642399Y-110380788D01*
X94654771Y-110364107D01*
X94668718Y-110348718D01*
X94684107Y-110334771D01*
X94700788Y-110322399D01*
X94718602Y-110311721D01*
X94737377Y-110302842D01*
X94756932Y-110295845D01*
X94777078Y-110290798D01*
X94797622Y-110287751D01*
X94818366Y-110286732D01*
X95241634Y-110286732D01*
X95262378Y-110287751D01*
X95262378Y-110287751D01*
G37*
D19*
X95030000Y-110710000D03*
D10*
G36*
X94212378Y-112387751D02*
G01*
X94232922Y-112390798D01*
X94253068Y-112395845D01*
X94272623Y-112402842D01*
X94291398Y-112411721D01*
X94309212Y-112422399D01*
X94325893Y-112434771D01*
X94341282Y-112448718D01*
X94355229Y-112464107D01*
X94367601Y-112480788D01*
X94378279Y-112498602D01*
X94387158Y-112517377D01*
X94394155Y-112536932D01*
X94399202Y-112557078D01*
X94402249Y-112577622D01*
X94403268Y-112598366D01*
X94403268Y-113021634D01*
X94402249Y-113042378D01*
X94399202Y-113062922D01*
X94394155Y-113083068D01*
X94387158Y-113102623D01*
X94378279Y-113121398D01*
X94367601Y-113139212D01*
X94355229Y-113155893D01*
X94341282Y-113171282D01*
X94325893Y-113185229D01*
X94309212Y-113197601D01*
X94291398Y-113208279D01*
X94272623Y-113217158D01*
X94253068Y-113224155D01*
X94232922Y-113229202D01*
X94212378Y-113232249D01*
X94191634Y-113233268D01*
X93768366Y-113233268D01*
X93747622Y-113232249D01*
X93727078Y-113229202D01*
X93706932Y-113224155D01*
X93687377Y-113217158D01*
X93668602Y-113208279D01*
X93650788Y-113197601D01*
X93634107Y-113185229D01*
X93618718Y-113171282D01*
X93604771Y-113155893D01*
X93592399Y-113139212D01*
X93581721Y-113121398D01*
X93572842Y-113102623D01*
X93565845Y-113083068D01*
X93560798Y-113062922D01*
X93557751Y-113042378D01*
X93556732Y-113021634D01*
X93556732Y-112598366D01*
X93557751Y-112577622D01*
X93560798Y-112557078D01*
X93565845Y-112536932D01*
X93572842Y-112517377D01*
X93581721Y-112498602D01*
X93592399Y-112480788D01*
X93604771Y-112464107D01*
X93618718Y-112448718D01*
X93634107Y-112434771D01*
X93650788Y-112422399D01*
X93668602Y-112411721D01*
X93687377Y-112402842D01*
X93706932Y-112395845D01*
X93727078Y-112390798D01*
X93747622Y-112387751D01*
X93768366Y-112386732D01*
X94191634Y-112386732D01*
X94212378Y-112387751D01*
X94212378Y-112387751D01*
G37*
D19*
X93980000Y-112810000D03*
D10*
G36*
X94212378Y-111337751D02*
G01*
X94232922Y-111340798D01*
X94253068Y-111345845D01*
X94272623Y-111352842D01*
X94291398Y-111361721D01*
X94309212Y-111372399D01*
X94325893Y-111384771D01*
X94341282Y-111398718D01*
X94355229Y-111414107D01*
X94367601Y-111430788D01*
X94378279Y-111448602D01*
X94387158Y-111467377D01*
X94394155Y-111486932D01*
X94399202Y-111507078D01*
X94402249Y-111527622D01*
X94403268Y-111548366D01*
X94403268Y-111971634D01*
X94402249Y-111992378D01*
X94399202Y-112012922D01*
X94394155Y-112033068D01*
X94387158Y-112052623D01*
X94378279Y-112071398D01*
X94367601Y-112089212D01*
X94355229Y-112105893D01*
X94341282Y-112121282D01*
X94325893Y-112135229D01*
X94309212Y-112147601D01*
X94291398Y-112158279D01*
X94272623Y-112167158D01*
X94253068Y-112174155D01*
X94232922Y-112179202D01*
X94212378Y-112182249D01*
X94191634Y-112183268D01*
X93768366Y-112183268D01*
X93747622Y-112182249D01*
X93727078Y-112179202D01*
X93706932Y-112174155D01*
X93687377Y-112167158D01*
X93668602Y-112158279D01*
X93650788Y-112147601D01*
X93634107Y-112135229D01*
X93618718Y-112121282D01*
X93604771Y-112105893D01*
X93592399Y-112089212D01*
X93581721Y-112071398D01*
X93572842Y-112052623D01*
X93565845Y-112033068D01*
X93560798Y-112012922D01*
X93557751Y-111992378D01*
X93556732Y-111971634D01*
X93556732Y-111548366D01*
X93557751Y-111527622D01*
X93560798Y-111507078D01*
X93565845Y-111486932D01*
X93572842Y-111467377D01*
X93581721Y-111448602D01*
X93592399Y-111430788D01*
X93604771Y-111414107D01*
X93618718Y-111398718D01*
X93634107Y-111384771D01*
X93650788Y-111372399D01*
X93668602Y-111361721D01*
X93687377Y-111352842D01*
X93706932Y-111345845D01*
X93727078Y-111340798D01*
X93747622Y-111337751D01*
X93768366Y-111336732D01*
X94191634Y-111336732D01*
X94212378Y-111337751D01*
X94212378Y-111337751D01*
G37*
D19*
X93980000Y-111760000D03*
D10*
G36*
X94212378Y-110287751D02*
G01*
X94232922Y-110290798D01*
X94253068Y-110295845D01*
X94272623Y-110302842D01*
X94291398Y-110311721D01*
X94309212Y-110322399D01*
X94325893Y-110334771D01*
X94341282Y-110348718D01*
X94355229Y-110364107D01*
X94367601Y-110380788D01*
X94378279Y-110398602D01*
X94387158Y-110417377D01*
X94394155Y-110436932D01*
X94399202Y-110457078D01*
X94402249Y-110477622D01*
X94403268Y-110498366D01*
X94403268Y-110921634D01*
X94402249Y-110942378D01*
X94399202Y-110962922D01*
X94394155Y-110983068D01*
X94387158Y-111002623D01*
X94378279Y-111021398D01*
X94367601Y-111039212D01*
X94355229Y-111055893D01*
X94341282Y-111071282D01*
X94325893Y-111085229D01*
X94309212Y-111097601D01*
X94291398Y-111108279D01*
X94272623Y-111117158D01*
X94253068Y-111124155D01*
X94232922Y-111129202D01*
X94212378Y-111132249D01*
X94191634Y-111133268D01*
X93768366Y-111133268D01*
X93747622Y-111132249D01*
X93727078Y-111129202D01*
X93706932Y-111124155D01*
X93687377Y-111117158D01*
X93668602Y-111108279D01*
X93650788Y-111097601D01*
X93634107Y-111085229D01*
X93618718Y-111071282D01*
X93604771Y-111055893D01*
X93592399Y-111039212D01*
X93581721Y-111021398D01*
X93572842Y-111002623D01*
X93565845Y-110983068D01*
X93560798Y-110962922D01*
X93557751Y-110942378D01*
X93556732Y-110921634D01*
X93556732Y-110498366D01*
X93557751Y-110477622D01*
X93560798Y-110457078D01*
X93565845Y-110436932D01*
X93572842Y-110417377D01*
X93581721Y-110398602D01*
X93592399Y-110380788D01*
X93604771Y-110364107D01*
X93618718Y-110348718D01*
X93634107Y-110334771D01*
X93650788Y-110322399D01*
X93668602Y-110311721D01*
X93687377Y-110302842D01*
X93706932Y-110295845D01*
X93727078Y-110290798D01*
X93747622Y-110287751D01*
X93768366Y-110286732D01*
X94191634Y-110286732D01*
X94212378Y-110287751D01*
X94212378Y-110287751D01*
G37*
D19*
X93980000Y-110710000D03*
D10*
G36*
X93162378Y-112387751D02*
G01*
X93182922Y-112390798D01*
X93203068Y-112395845D01*
X93222623Y-112402842D01*
X93241398Y-112411721D01*
X93259212Y-112422399D01*
X93275893Y-112434771D01*
X93291282Y-112448718D01*
X93305229Y-112464107D01*
X93317601Y-112480788D01*
X93328279Y-112498602D01*
X93337158Y-112517377D01*
X93344155Y-112536932D01*
X93349202Y-112557078D01*
X93352249Y-112577622D01*
X93353268Y-112598366D01*
X93353268Y-113021634D01*
X93352249Y-113042378D01*
X93349202Y-113062922D01*
X93344155Y-113083068D01*
X93337158Y-113102623D01*
X93328279Y-113121398D01*
X93317601Y-113139212D01*
X93305229Y-113155893D01*
X93291282Y-113171282D01*
X93275893Y-113185229D01*
X93259212Y-113197601D01*
X93241398Y-113208279D01*
X93222623Y-113217158D01*
X93203068Y-113224155D01*
X93182922Y-113229202D01*
X93162378Y-113232249D01*
X93141634Y-113233268D01*
X92718366Y-113233268D01*
X92697622Y-113232249D01*
X92677078Y-113229202D01*
X92656932Y-113224155D01*
X92637377Y-113217158D01*
X92618602Y-113208279D01*
X92600788Y-113197601D01*
X92584107Y-113185229D01*
X92568718Y-113171282D01*
X92554771Y-113155893D01*
X92542399Y-113139212D01*
X92531721Y-113121398D01*
X92522842Y-113102623D01*
X92515845Y-113083068D01*
X92510798Y-113062922D01*
X92507751Y-113042378D01*
X92506732Y-113021634D01*
X92506732Y-112598366D01*
X92507751Y-112577622D01*
X92510798Y-112557078D01*
X92515845Y-112536932D01*
X92522842Y-112517377D01*
X92531721Y-112498602D01*
X92542399Y-112480788D01*
X92554771Y-112464107D01*
X92568718Y-112448718D01*
X92584107Y-112434771D01*
X92600788Y-112422399D01*
X92618602Y-112411721D01*
X92637377Y-112402842D01*
X92656932Y-112395845D01*
X92677078Y-112390798D01*
X92697622Y-112387751D01*
X92718366Y-112386732D01*
X93141634Y-112386732D01*
X93162378Y-112387751D01*
X93162378Y-112387751D01*
G37*
D19*
X92930000Y-112810000D03*
D10*
G36*
X93162378Y-111337751D02*
G01*
X93182922Y-111340798D01*
X93203068Y-111345845D01*
X93222623Y-111352842D01*
X93241398Y-111361721D01*
X93259212Y-111372399D01*
X93275893Y-111384771D01*
X93291282Y-111398718D01*
X93305229Y-111414107D01*
X93317601Y-111430788D01*
X93328279Y-111448602D01*
X93337158Y-111467377D01*
X93344155Y-111486932D01*
X93349202Y-111507078D01*
X93352249Y-111527622D01*
X93353268Y-111548366D01*
X93353268Y-111971634D01*
X93352249Y-111992378D01*
X93349202Y-112012922D01*
X93344155Y-112033068D01*
X93337158Y-112052623D01*
X93328279Y-112071398D01*
X93317601Y-112089212D01*
X93305229Y-112105893D01*
X93291282Y-112121282D01*
X93275893Y-112135229D01*
X93259212Y-112147601D01*
X93241398Y-112158279D01*
X93222623Y-112167158D01*
X93203068Y-112174155D01*
X93182922Y-112179202D01*
X93162378Y-112182249D01*
X93141634Y-112183268D01*
X92718366Y-112183268D01*
X92697622Y-112182249D01*
X92677078Y-112179202D01*
X92656932Y-112174155D01*
X92637377Y-112167158D01*
X92618602Y-112158279D01*
X92600788Y-112147601D01*
X92584107Y-112135229D01*
X92568718Y-112121282D01*
X92554771Y-112105893D01*
X92542399Y-112089212D01*
X92531721Y-112071398D01*
X92522842Y-112052623D01*
X92515845Y-112033068D01*
X92510798Y-112012922D01*
X92507751Y-111992378D01*
X92506732Y-111971634D01*
X92506732Y-111548366D01*
X92507751Y-111527622D01*
X92510798Y-111507078D01*
X92515845Y-111486932D01*
X92522842Y-111467377D01*
X92531721Y-111448602D01*
X92542399Y-111430788D01*
X92554771Y-111414107D01*
X92568718Y-111398718D01*
X92584107Y-111384771D01*
X92600788Y-111372399D01*
X92618602Y-111361721D01*
X92637377Y-111352842D01*
X92656932Y-111345845D01*
X92677078Y-111340798D01*
X92697622Y-111337751D01*
X92718366Y-111336732D01*
X93141634Y-111336732D01*
X93162378Y-111337751D01*
X93162378Y-111337751D01*
G37*
D19*
X92930000Y-111760000D03*
D10*
G36*
X93162378Y-110287751D02*
G01*
X93182922Y-110290798D01*
X93203068Y-110295845D01*
X93222623Y-110302842D01*
X93241398Y-110311721D01*
X93259212Y-110322399D01*
X93275893Y-110334771D01*
X93291282Y-110348718D01*
X93305229Y-110364107D01*
X93317601Y-110380788D01*
X93328279Y-110398602D01*
X93337158Y-110417377D01*
X93344155Y-110436932D01*
X93349202Y-110457078D01*
X93352249Y-110477622D01*
X93353268Y-110498366D01*
X93353268Y-110921634D01*
X93352249Y-110942378D01*
X93349202Y-110962922D01*
X93344155Y-110983068D01*
X93337158Y-111002623D01*
X93328279Y-111021398D01*
X93317601Y-111039212D01*
X93305229Y-111055893D01*
X93291282Y-111071282D01*
X93275893Y-111085229D01*
X93259212Y-111097601D01*
X93241398Y-111108279D01*
X93222623Y-111117158D01*
X93203068Y-111124155D01*
X93182922Y-111129202D01*
X93162378Y-111132249D01*
X93141634Y-111133268D01*
X92718366Y-111133268D01*
X92697622Y-111132249D01*
X92677078Y-111129202D01*
X92656932Y-111124155D01*
X92637377Y-111117158D01*
X92618602Y-111108279D01*
X92600788Y-111097601D01*
X92584107Y-111085229D01*
X92568718Y-111071282D01*
X92554771Y-111055893D01*
X92542399Y-111039212D01*
X92531721Y-111021398D01*
X92522842Y-111002623D01*
X92515845Y-110983068D01*
X92510798Y-110962922D01*
X92507751Y-110942378D01*
X92506732Y-110921634D01*
X92506732Y-110498366D01*
X92507751Y-110477622D01*
X92510798Y-110457078D01*
X92515845Y-110436932D01*
X92522842Y-110417377D01*
X92531721Y-110398602D01*
X92542399Y-110380788D01*
X92554771Y-110364107D01*
X92568718Y-110348718D01*
X92584107Y-110334771D01*
X92600788Y-110322399D01*
X92618602Y-110311721D01*
X92637377Y-110302842D01*
X92656932Y-110295845D01*
X92677078Y-110290798D01*
X92697622Y-110287751D01*
X92718366Y-110286732D01*
X93141634Y-110286732D01*
X93162378Y-110287751D01*
X93162378Y-110287751D01*
G37*
D19*
X92930000Y-110710000D03*
D10*
G36*
X101180158Y-115276110D02*
G01*
X101194476Y-115278234D01*
X101208517Y-115281751D01*
X101222146Y-115286628D01*
X101235231Y-115292817D01*
X101247647Y-115300258D01*
X101259273Y-115308881D01*
X101269998Y-115318602D01*
X101279719Y-115329327D01*
X101288342Y-115340953D01*
X101295783Y-115353369D01*
X101301972Y-115366454D01*
X101306849Y-115380083D01*
X101310366Y-115394124D01*
X101312490Y-115408442D01*
X101313200Y-115422900D01*
X101313200Y-115767900D01*
X101312490Y-115782358D01*
X101310366Y-115796676D01*
X101306849Y-115810717D01*
X101301972Y-115824346D01*
X101295783Y-115837431D01*
X101288342Y-115849847D01*
X101279719Y-115861473D01*
X101269998Y-115872198D01*
X101259273Y-115881919D01*
X101247647Y-115890542D01*
X101235231Y-115897983D01*
X101222146Y-115904172D01*
X101208517Y-115909049D01*
X101194476Y-115912566D01*
X101180158Y-115914690D01*
X101165700Y-115915400D01*
X100870700Y-115915400D01*
X100856242Y-115914690D01*
X100841924Y-115912566D01*
X100827883Y-115909049D01*
X100814254Y-115904172D01*
X100801169Y-115897983D01*
X100788753Y-115890542D01*
X100777127Y-115881919D01*
X100766402Y-115872198D01*
X100756681Y-115861473D01*
X100748058Y-115849847D01*
X100740617Y-115837431D01*
X100734428Y-115824346D01*
X100729551Y-115810717D01*
X100726034Y-115796676D01*
X100723910Y-115782358D01*
X100723200Y-115767900D01*
X100723200Y-115422900D01*
X100723910Y-115408442D01*
X100726034Y-115394124D01*
X100729551Y-115380083D01*
X100734428Y-115366454D01*
X100740617Y-115353369D01*
X100748058Y-115340953D01*
X100756681Y-115329327D01*
X100766402Y-115318602D01*
X100777127Y-115308881D01*
X100788753Y-115300258D01*
X100801169Y-115292817D01*
X100814254Y-115286628D01*
X100827883Y-115281751D01*
X100841924Y-115278234D01*
X100856242Y-115276110D01*
X100870700Y-115275400D01*
X101165700Y-115275400D01*
X101180158Y-115276110D01*
X101180158Y-115276110D01*
G37*
D11*
X101018200Y-115595400D03*
D10*
G36*
X100210158Y-115276110D02*
G01*
X100224476Y-115278234D01*
X100238517Y-115281751D01*
X100252146Y-115286628D01*
X100265231Y-115292817D01*
X100277647Y-115300258D01*
X100289273Y-115308881D01*
X100299998Y-115318602D01*
X100309719Y-115329327D01*
X100318342Y-115340953D01*
X100325783Y-115353369D01*
X100331972Y-115366454D01*
X100336849Y-115380083D01*
X100340366Y-115394124D01*
X100342490Y-115408442D01*
X100343200Y-115422900D01*
X100343200Y-115767900D01*
X100342490Y-115782358D01*
X100340366Y-115796676D01*
X100336849Y-115810717D01*
X100331972Y-115824346D01*
X100325783Y-115837431D01*
X100318342Y-115849847D01*
X100309719Y-115861473D01*
X100299998Y-115872198D01*
X100289273Y-115881919D01*
X100277647Y-115890542D01*
X100265231Y-115897983D01*
X100252146Y-115904172D01*
X100238517Y-115909049D01*
X100224476Y-115912566D01*
X100210158Y-115914690D01*
X100195700Y-115915400D01*
X99900700Y-115915400D01*
X99886242Y-115914690D01*
X99871924Y-115912566D01*
X99857883Y-115909049D01*
X99844254Y-115904172D01*
X99831169Y-115897983D01*
X99818753Y-115890542D01*
X99807127Y-115881919D01*
X99796402Y-115872198D01*
X99786681Y-115861473D01*
X99778058Y-115849847D01*
X99770617Y-115837431D01*
X99764428Y-115824346D01*
X99759551Y-115810717D01*
X99756034Y-115796676D01*
X99753910Y-115782358D01*
X99753200Y-115767900D01*
X99753200Y-115422900D01*
X99753910Y-115408442D01*
X99756034Y-115394124D01*
X99759551Y-115380083D01*
X99764428Y-115366454D01*
X99770617Y-115353369D01*
X99778058Y-115340953D01*
X99786681Y-115329327D01*
X99796402Y-115318602D01*
X99807127Y-115308881D01*
X99818753Y-115300258D01*
X99831169Y-115292817D01*
X99844254Y-115286628D01*
X99857883Y-115281751D01*
X99871924Y-115278234D01*
X99886242Y-115276110D01*
X99900700Y-115275400D01*
X100195700Y-115275400D01*
X100210158Y-115276110D01*
X100210158Y-115276110D01*
G37*
D11*
X100048200Y-115595400D03*
D10*
G36*
X98327478Y-107589950D02*
G01*
X98341796Y-107592074D01*
X98355837Y-107595591D01*
X98369466Y-107600468D01*
X98382551Y-107606657D01*
X98394967Y-107614098D01*
X98406593Y-107622721D01*
X98417318Y-107632442D01*
X98427039Y-107643167D01*
X98435662Y-107654793D01*
X98443103Y-107667209D01*
X98449292Y-107680294D01*
X98454169Y-107693923D01*
X98457686Y-107707964D01*
X98459810Y-107722282D01*
X98460520Y-107736740D01*
X98460520Y-108031740D01*
X98459810Y-108046198D01*
X98457686Y-108060516D01*
X98454169Y-108074557D01*
X98449292Y-108088186D01*
X98443103Y-108101271D01*
X98435662Y-108113687D01*
X98427039Y-108125313D01*
X98417318Y-108136038D01*
X98406593Y-108145759D01*
X98394967Y-108154382D01*
X98382551Y-108161823D01*
X98369466Y-108168012D01*
X98355837Y-108172889D01*
X98341796Y-108176406D01*
X98327478Y-108178530D01*
X98313020Y-108179240D01*
X97968020Y-108179240D01*
X97953562Y-108178530D01*
X97939244Y-108176406D01*
X97925203Y-108172889D01*
X97911574Y-108168012D01*
X97898489Y-108161823D01*
X97886073Y-108154382D01*
X97874447Y-108145759D01*
X97863722Y-108136038D01*
X97854001Y-108125313D01*
X97845378Y-108113687D01*
X97837937Y-108101271D01*
X97831748Y-108088186D01*
X97826871Y-108074557D01*
X97823354Y-108060516D01*
X97821230Y-108046198D01*
X97820520Y-108031740D01*
X97820520Y-107736740D01*
X97821230Y-107722282D01*
X97823354Y-107707964D01*
X97826871Y-107693923D01*
X97831748Y-107680294D01*
X97837937Y-107667209D01*
X97845378Y-107654793D01*
X97854001Y-107643167D01*
X97863722Y-107632442D01*
X97874447Y-107622721D01*
X97886073Y-107614098D01*
X97898489Y-107606657D01*
X97911574Y-107600468D01*
X97925203Y-107595591D01*
X97939244Y-107592074D01*
X97953562Y-107589950D01*
X97968020Y-107589240D01*
X98313020Y-107589240D01*
X98327478Y-107589950D01*
X98327478Y-107589950D01*
G37*
D11*
X98140520Y-107884240D03*
D10*
G36*
X98327478Y-108559950D02*
G01*
X98341796Y-108562074D01*
X98355837Y-108565591D01*
X98369466Y-108570468D01*
X98382551Y-108576657D01*
X98394967Y-108584098D01*
X98406593Y-108592721D01*
X98417318Y-108602442D01*
X98427039Y-108613167D01*
X98435662Y-108624793D01*
X98443103Y-108637209D01*
X98449292Y-108650294D01*
X98454169Y-108663923D01*
X98457686Y-108677964D01*
X98459810Y-108692282D01*
X98460520Y-108706740D01*
X98460520Y-109001740D01*
X98459810Y-109016198D01*
X98457686Y-109030516D01*
X98454169Y-109044557D01*
X98449292Y-109058186D01*
X98443103Y-109071271D01*
X98435662Y-109083687D01*
X98427039Y-109095313D01*
X98417318Y-109106038D01*
X98406593Y-109115759D01*
X98394967Y-109124382D01*
X98382551Y-109131823D01*
X98369466Y-109138012D01*
X98355837Y-109142889D01*
X98341796Y-109146406D01*
X98327478Y-109148530D01*
X98313020Y-109149240D01*
X97968020Y-109149240D01*
X97953562Y-109148530D01*
X97939244Y-109146406D01*
X97925203Y-109142889D01*
X97911574Y-109138012D01*
X97898489Y-109131823D01*
X97886073Y-109124382D01*
X97874447Y-109115759D01*
X97863722Y-109106038D01*
X97854001Y-109095313D01*
X97845378Y-109083687D01*
X97837937Y-109071271D01*
X97831748Y-109058186D01*
X97826871Y-109044557D01*
X97823354Y-109030516D01*
X97821230Y-109016198D01*
X97820520Y-109001740D01*
X97820520Y-108706740D01*
X97821230Y-108692282D01*
X97823354Y-108677964D01*
X97826871Y-108663923D01*
X97831748Y-108650294D01*
X97837937Y-108637209D01*
X97845378Y-108624793D01*
X97854001Y-108613167D01*
X97863722Y-108602442D01*
X97874447Y-108592721D01*
X97886073Y-108584098D01*
X97898489Y-108576657D01*
X97911574Y-108570468D01*
X97925203Y-108565591D01*
X97939244Y-108562074D01*
X97953562Y-108559950D01*
X97968020Y-108559240D01*
X98313020Y-108559240D01*
X98327478Y-108559950D01*
X98327478Y-108559950D01*
G37*
D11*
X98140520Y-108854240D03*
D10*
G36*
X99739011Y-106568573D02*
G01*
X99760246Y-106571723D01*
X99781070Y-106576939D01*
X99801282Y-106584171D01*
X99820688Y-106593350D01*
X99839101Y-106604386D01*
X99856344Y-106617174D01*
X99872250Y-106631590D01*
X99886666Y-106647496D01*
X99899454Y-106664739D01*
X99910490Y-106683152D01*
X99919669Y-106702558D01*
X99926901Y-106722770D01*
X99932117Y-106743594D01*
X99935267Y-106764829D01*
X99936320Y-106786270D01*
X99936320Y-107223770D01*
X99935267Y-107245211D01*
X99932117Y-107266446D01*
X99926901Y-107287270D01*
X99919669Y-107307482D01*
X99910490Y-107326888D01*
X99899454Y-107345301D01*
X99886666Y-107362544D01*
X99872250Y-107378450D01*
X99856344Y-107392866D01*
X99839101Y-107405654D01*
X99820688Y-107416690D01*
X99801282Y-107425869D01*
X99781070Y-107433101D01*
X99760246Y-107438317D01*
X99739011Y-107441467D01*
X99717570Y-107442520D01*
X99205070Y-107442520D01*
X99183629Y-107441467D01*
X99162394Y-107438317D01*
X99141570Y-107433101D01*
X99121358Y-107425869D01*
X99101952Y-107416690D01*
X99083539Y-107405654D01*
X99066296Y-107392866D01*
X99050390Y-107378450D01*
X99035974Y-107362544D01*
X99023186Y-107345301D01*
X99012150Y-107326888D01*
X99002971Y-107307482D01*
X98995739Y-107287270D01*
X98990523Y-107266446D01*
X98987373Y-107245211D01*
X98986320Y-107223770D01*
X98986320Y-106786270D01*
X98987373Y-106764829D01*
X98990523Y-106743594D01*
X98995739Y-106722770D01*
X99002971Y-106702558D01*
X99012150Y-106683152D01*
X99023186Y-106664739D01*
X99035974Y-106647496D01*
X99050390Y-106631590D01*
X99066296Y-106617174D01*
X99083539Y-106604386D01*
X99101952Y-106593350D01*
X99121358Y-106584171D01*
X99141570Y-106576939D01*
X99162394Y-106571723D01*
X99183629Y-106568573D01*
X99205070Y-106567520D01*
X99717570Y-106567520D01*
X99739011Y-106568573D01*
X99739011Y-106568573D01*
G37*
D20*
X99461320Y-107005020D03*
D10*
G36*
X99739011Y-108143573D02*
G01*
X99760246Y-108146723D01*
X99781070Y-108151939D01*
X99801282Y-108159171D01*
X99820688Y-108168350D01*
X99839101Y-108179386D01*
X99856344Y-108192174D01*
X99872250Y-108206590D01*
X99886666Y-108222496D01*
X99899454Y-108239739D01*
X99910490Y-108258152D01*
X99919669Y-108277558D01*
X99926901Y-108297770D01*
X99932117Y-108318594D01*
X99935267Y-108339829D01*
X99936320Y-108361270D01*
X99936320Y-108798770D01*
X99935267Y-108820211D01*
X99932117Y-108841446D01*
X99926901Y-108862270D01*
X99919669Y-108882482D01*
X99910490Y-108901888D01*
X99899454Y-108920301D01*
X99886666Y-108937544D01*
X99872250Y-108953450D01*
X99856344Y-108967866D01*
X99839101Y-108980654D01*
X99820688Y-108991690D01*
X99801282Y-109000869D01*
X99781070Y-109008101D01*
X99760246Y-109013317D01*
X99739011Y-109016467D01*
X99717570Y-109017520D01*
X99205070Y-109017520D01*
X99183629Y-109016467D01*
X99162394Y-109013317D01*
X99141570Y-109008101D01*
X99121358Y-109000869D01*
X99101952Y-108991690D01*
X99083539Y-108980654D01*
X99066296Y-108967866D01*
X99050390Y-108953450D01*
X99035974Y-108937544D01*
X99023186Y-108920301D01*
X99012150Y-108901888D01*
X99002971Y-108882482D01*
X98995739Y-108862270D01*
X98990523Y-108841446D01*
X98987373Y-108820211D01*
X98986320Y-108798770D01*
X98986320Y-108361270D01*
X98987373Y-108339829D01*
X98990523Y-108318594D01*
X98995739Y-108297770D01*
X99002971Y-108277558D01*
X99012150Y-108258152D01*
X99023186Y-108239739D01*
X99035974Y-108222496D01*
X99050390Y-108206590D01*
X99066296Y-108192174D01*
X99083539Y-108179386D01*
X99101952Y-108168350D01*
X99121358Y-108159171D01*
X99141570Y-108151939D01*
X99162394Y-108146723D01*
X99183629Y-108143573D01*
X99205070Y-108142520D01*
X99717570Y-108142520D01*
X99739011Y-108143573D01*
X99739011Y-108143573D01*
G37*
D20*
X99461320Y-108580020D03*
D10*
G36*
X93814158Y-120216410D02*
G01*
X93828476Y-120218534D01*
X93842517Y-120222051D01*
X93856146Y-120226928D01*
X93869231Y-120233117D01*
X93881647Y-120240558D01*
X93893273Y-120249181D01*
X93903998Y-120258902D01*
X93913719Y-120269627D01*
X93922342Y-120281253D01*
X93929783Y-120293669D01*
X93935972Y-120306754D01*
X93940849Y-120320383D01*
X93944366Y-120334424D01*
X93946490Y-120348742D01*
X93947200Y-120363200D01*
X93947200Y-120708200D01*
X93946490Y-120722658D01*
X93944366Y-120736976D01*
X93940849Y-120751017D01*
X93935972Y-120764646D01*
X93929783Y-120777731D01*
X93922342Y-120790147D01*
X93913719Y-120801773D01*
X93903998Y-120812498D01*
X93893273Y-120822219D01*
X93881647Y-120830842D01*
X93869231Y-120838283D01*
X93856146Y-120844472D01*
X93842517Y-120849349D01*
X93828476Y-120852866D01*
X93814158Y-120854990D01*
X93799700Y-120855700D01*
X93504700Y-120855700D01*
X93490242Y-120854990D01*
X93475924Y-120852866D01*
X93461883Y-120849349D01*
X93448254Y-120844472D01*
X93435169Y-120838283D01*
X93422753Y-120830842D01*
X93411127Y-120822219D01*
X93400402Y-120812498D01*
X93390681Y-120801773D01*
X93382058Y-120790147D01*
X93374617Y-120777731D01*
X93368428Y-120764646D01*
X93363551Y-120751017D01*
X93360034Y-120736976D01*
X93357910Y-120722658D01*
X93357200Y-120708200D01*
X93357200Y-120363200D01*
X93357910Y-120348742D01*
X93360034Y-120334424D01*
X93363551Y-120320383D01*
X93368428Y-120306754D01*
X93374617Y-120293669D01*
X93382058Y-120281253D01*
X93390681Y-120269627D01*
X93400402Y-120258902D01*
X93411127Y-120249181D01*
X93422753Y-120240558D01*
X93435169Y-120233117D01*
X93448254Y-120226928D01*
X93461883Y-120222051D01*
X93475924Y-120218534D01*
X93490242Y-120216410D01*
X93504700Y-120215700D01*
X93799700Y-120215700D01*
X93814158Y-120216410D01*
X93814158Y-120216410D01*
G37*
D11*
X93652200Y-120535700D03*
D10*
G36*
X92844158Y-120216410D02*
G01*
X92858476Y-120218534D01*
X92872517Y-120222051D01*
X92886146Y-120226928D01*
X92899231Y-120233117D01*
X92911647Y-120240558D01*
X92923273Y-120249181D01*
X92933998Y-120258902D01*
X92943719Y-120269627D01*
X92952342Y-120281253D01*
X92959783Y-120293669D01*
X92965972Y-120306754D01*
X92970849Y-120320383D01*
X92974366Y-120334424D01*
X92976490Y-120348742D01*
X92977200Y-120363200D01*
X92977200Y-120708200D01*
X92976490Y-120722658D01*
X92974366Y-120736976D01*
X92970849Y-120751017D01*
X92965972Y-120764646D01*
X92959783Y-120777731D01*
X92952342Y-120790147D01*
X92943719Y-120801773D01*
X92933998Y-120812498D01*
X92923273Y-120822219D01*
X92911647Y-120830842D01*
X92899231Y-120838283D01*
X92886146Y-120844472D01*
X92872517Y-120849349D01*
X92858476Y-120852866D01*
X92844158Y-120854990D01*
X92829700Y-120855700D01*
X92534700Y-120855700D01*
X92520242Y-120854990D01*
X92505924Y-120852866D01*
X92491883Y-120849349D01*
X92478254Y-120844472D01*
X92465169Y-120838283D01*
X92452753Y-120830842D01*
X92441127Y-120822219D01*
X92430402Y-120812498D01*
X92420681Y-120801773D01*
X92412058Y-120790147D01*
X92404617Y-120777731D01*
X92398428Y-120764646D01*
X92393551Y-120751017D01*
X92390034Y-120736976D01*
X92387910Y-120722658D01*
X92387200Y-120708200D01*
X92387200Y-120363200D01*
X92387910Y-120348742D01*
X92390034Y-120334424D01*
X92393551Y-120320383D01*
X92398428Y-120306754D01*
X92404617Y-120293669D01*
X92412058Y-120281253D01*
X92420681Y-120269627D01*
X92430402Y-120258902D01*
X92441127Y-120249181D01*
X92452753Y-120240558D01*
X92465169Y-120233117D01*
X92478254Y-120226928D01*
X92491883Y-120222051D01*
X92505924Y-120218534D01*
X92520242Y-120216410D01*
X92534700Y-120215700D01*
X92829700Y-120215700D01*
X92844158Y-120216410D01*
X92844158Y-120216410D01*
G37*
D11*
X92682200Y-120535700D03*
D10*
G36*
X93814158Y-119200410D02*
G01*
X93828476Y-119202534D01*
X93842517Y-119206051D01*
X93856146Y-119210928D01*
X93869231Y-119217117D01*
X93881647Y-119224558D01*
X93893273Y-119233181D01*
X93903998Y-119242902D01*
X93913719Y-119253627D01*
X93922342Y-119265253D01*
X93929783Y-119277669D01*
X93935972Y-119290754D01*
X93940849Y-119304383D01*
X93944366Y-119318424D01*
X93946490Y-119332742D01*
X93947200Y-119347200D01*
X93947200Y-119692200D01*
X93946490Y-119706658D01*
X93944366Y-119720976D01*
X93940849Y-119735017D01*
X93935972Y-119748646D01*
X93929783Y-119761731D01*
X93922342Y-119774147D01*
X93913719Y-119785773D01*
X93903998Y-119796498D01*
X93893273Y-119806219D01*
X93881647Y-119814842D01*
X93869231Y-119822283D01*
X93856146Y-119828472D01*
X93842517Y-119833349D01*
X93828476Y-119836866D01*
X93814158Y-119838990D01*
X93799700Y-119839700D01*
X93504700Y-119839700D01*
X93490242Y-119838990D01*
X93475924Y-119836866D01*
X93461883Y-119833349D01*
X93448254Y-119828472D01*
X93435169Y-119822283D01*
X93422753Y-119814842D01*
X93411127Y-119806219D01*
X93400402Y-119796498D01*
X93390681Y-119785773D01*
X93382058Y-119774147D01*
X93374617Y-119761731D01*
X93368428Y-119748646D01*
X93363551Y-119735017D01*
X93360034Y-119720976D01*
X93357910Y-119706658D01*
X93357200Y-119692200D01*
X93357200Y-119347200D01*
X93357910Y-119332742D01*
X93360034Y-119318424D01*
X93363551Y-119304383D01*
X93368428Y-119290754D01*
X93374617Y-119277669D01*
X93382058Y-119265253D01*
X93390681Y-119253627D01*
X93400402Y-119242902D01*
X93411127Y-119233181D01*
X93422753Y-119224558D01*
X93435169Y-119217117D01*
X93448254Y-119210928D01*
X93461883Y-119206051D01*
X93475924Y-119202534D01*
X93490242Y-119200410D01*
X93504700Y-119199700D01*
X93799700Y-119199700D01*
X93814158Y-119200410D01*
X93814158Y-119200410D01*
G37*
D11*
X93652200Y-119519700D03*
D10*
G36*
X92844158Y-119200410D02*
G01*
X92858476Y-119202534D01*
X92872517Y-119206051D01*
X92886146Y-119210928D01*
X92899231Y-119217117D01*
X92911647Y-119224558D01*
X92923273Y-119233181D01*
X92933998Y-119242902D01*
X92943719Y-119253627D01*
X92952342Y-119265253D01*
X92959783Y-119277669D01*
X92965972Y-119290754D01*
X92970849Y-119304383D01*
X92974366Y-119318424D01*
X92976490Y-119332742D01*
X92977200Y-119347200D01*
X92977200Y-119692200D01*
X92976490Y-119706658D01*
X92974366Y-119720976D01*
X92970849Y-119735017D01*
X92965972Y-119748646D01*
X92959783Y-119761731D01*
X92952342Y-119774147D01*
X92943719Y-119785773D01*
X92933998Y-119796498D01*
X92923273Y-119806219D01*
X92911647Y-119814842D01*
X92899231Y-119822283D01*
X92886146Y-119828472D01*
X92872517Y-119833349D01*
X92858476Y-119836866D01*
X92844158Y-119838990D01*
X92829700Y-119839700D01*
X92534700Y-119839700D01*
X92520242Y-119838990D01*
X92505924Y-119836866D01*
X92491883Y-119833349D01*
X92478254Y-119828472D01*
X92465169Y-119822283D01*
X92452753Y-119814842D01*
X92441127Y-119806219D01*
X92430402Y-119796498D01*
X92420681Y-119785773D01*
X92412058Y-119774147D01*
X92404617Y-119761731D01*
X92398428Y-119748646D01*
X92393551Y-119735017D01*
X92390034Y-119720976D01*
X92387910Y-119706658D01*
X92387200Y-119692200D01*
X92387200Y-119347200D01*
X92387910Y-119332742D01*
X92390034Y-119318424D01*
X92393551Y-119304383D01*
X92398428Y-119290754D01*
X92404617Y-119277669D01*
X92412058Y-119265253D01*
X92420681Y-119253627D01*
X92430402Y-119242902D01*
X92441127Y-119233181D01*
X92452753Y-119224558D01*
X92465169Y-119217117D01*
X92478254Y-119210928D01*
X92491883Y-119206051D01*
X92505924Y-119202534D01*
X92520242Y-119200410D01*
X92534700Y-119199700D01*
X92829700Y-119199700D01*
X92844158Y-119200410D01*
X92844158Y-119200410D01*
G37*
D11*
X92682200Y-119519700D03*
D10*
G36*
X87601058Y-114257310D02*
G01*
X87615376Y-114259434D01*
X87629417Y-114262951D01*
X87643046Y-114267828D01*
X87656131Y-114274017D01*
X87668547Y-114281458D01*
X87680173Y-114290081D01*
X87690898Y-114299802D01*
X87700619Y-114310527D01*
X87709242Y-114322153D01*
X87716683Y-114334569D01*
X87722872Y-114347654D01*
X87727749Y-114361283D01*
X87731266Y-114375324D01*
X87733390Y-114389642D01*
X87734100Y-114404100D01*
X87734100Y-114699100D01*
X87733390Y-114713558D01*
X87731266Y-114727876D01*
X87727749Y-114741917D01*
X87722872Y-114755546D01*
X87716683Y-114768631D01*
X87709242Y-114781047D01*
X87700619Y-114792673D01*
X87690898Y-114803398D01*
X87680173Y-114813119D01*
X87668547Y-114821742D01*
X87656131Y-114829183D01*
X87643046Y-114835372D01*
X87629417Y-114840249D01*
X87615376Y-114843766D01*
X87601058Y-114845890D01*
X87586600Y-114846600D01*
X87241600Y-114846600D01*
X87227142Y-114845890D01*
X87212824Y-114843766D01*
X87198783Y-114840249D01*
X87185154Y-114835372D01*
X87172069Y-114829183D01*
X87159653Y-114821742D01*
X87148027Y-114813119D01*
X87137302Y-114803398D01*
X87127581Y-114792673D01*
X87118958Y-114781047D01*
X87111517Y-114768631D01*
X87105328Y-114755546D01*
X87100451Y-114741917D01*
X87096934Y-114727876D01*
X87094810Y-114713558D01*
X87094100Y-114699100D01*
X87094100Y-114404100D01*
X87094810Y-114389642D01*
X87096934Y-114375324D01*
X87100451Y-114361283D01*
X87105328Y-114347654D01*
X87111517Y-114334569D01*
X87118958Y-114322153D01*
X87127581Y-114310527D01*
X87137302Y-114299802D01*
X87148027Y-114290081D01*
X87159653Y-114281458D01*
X87172069Y-114274017D01*
X87185154Y-114267828D01*
X87198783Y-114262951D01*
X87212824Y-114259434D01*
X87227142Y-114257310D01*
X87241600Y-114256600D01*
X87586600Y-114256600D01*
X87601058Y-114257310D01*
X87601058Y-114257310D01*
G37*
D11*
X87414100Y-114551600D03*
D10*
G36*
X87601058Y-115227310D02*
G01*
X87615376Y-115229434D01*
X87629417Y-115232951D01*
X87643046Y-115237828D01*
X87656131Y-115244017D01*
X87668547Y-115251458D01*
X87680173Y-115260081D01*
X87690898Y-115269802D01*
X87700619Y-115280527D01*
X87709242Y-115292153D01*
X87716683Y-115304569D01*
X87722872Y-115317654D01*
X87727749Y-115331283D01*
X87731266Y-115345324D01*
X87733390Y-115359642D01*
X87734100Y-115374100D01*
X87734100Y-115669100D01*
X87733390Y-115683558D01*
X87731266Y-115697876D01*
X87727749Y-115711917D01*
X87722872Y-115725546D01*
X87716683Y-115738631D01*
X87709242Y-115751047D01*
X87700619Y-115762673D01*
X87690898Y-115773398D01*
X87680173Y-115783119D01*
X87668547Y-115791742D01*
X87656131Y-115799183D01*
X87643046Y-115805372D01*
X87629417Y-115810249D01*
X87615376Y-115813766D01*
X87601058Y-115815890D01*
X87586600Y-115816600D01*
X87241600Y-115816600D01*
X87227142Y-115815890D01*
X87212824Y-115813766D01*
X87198783Y-115810249D01*
X87185154Y-115805372D01*
X87172069Y-115799183D01*
X87159653Y-115791742D01*
X87148027Y-115783119D01*
X87137302Y-115773398D01*
X87127581Y-115762673D01*
X87118958Y-115751047D01*
X87111517Y-115738631D01*
X87105328Y-115725546D01*
X87100451Y-115711917D01*
X87096934Y-115697876D01*
X87094810Y-115683558D01*
X87094100Y-115669100D01*
X87094100Y-115374100D01*
X87094810Y-115359642D01*
X87096934Y-115345324D01*
X87100451Y-115331283D01*
X87105328Y-115317654D01*
X87111517Y-115304569D01*
X87118958Y-115292153D01*
X87127581Y-115280527D01*
X87137302Y-115269802D01*
X87148027Y-115260081D01*
X87159653Y-115251458D01*
X87172069Y-115244017D01*
X87185154Y-115237828D01*
X87198783Y-115232951D01*
X87212824Y-115229434D01*
X87227142Y-115227310D01*
X87241600Y-115226600D01*
X87586600Y-115226600D01*
X87601058Y-115227310D01*
X87601058Y-115227310D01*
G37*
D11*
X87414100Y-115521600D03*
D10*
G36*
X88731358Y-114257310D02*
G01*
X88745676Y-114259434D01*
X88759717Y-114262951D01*
X88773346Y-114267828D01*
X88786431Y-114274017D01*
X88798847Y-114281458D01*
X88810473Y-114290081D01*
X88821198Y-114299802D01*
X88830919Y-114310527D01*
X88839542Y-114322153D01*
X88846983Y-114334569D01*
X88853172Y-114347654D01*
X88858049Y-114361283D01*
X88861566Y-114375324D01*
X88863690Y-114389642D01*
X88864400Y-114404100D01*
X88864400Y-114699100D01*
X88863690Y-114713558D01*
X88861566Y-114727876D01*
X88858049Y-114741917D01*
X88853172Y-114755546D01*
X88846983Y-114768631D01*
X88839542Y-114781047D01*
X88830919Y-114792673D01*
X88821198Y-114803398D01*
X88810473Y-114813119D01*
X88798847Y-114821742D01*
X88786431Y-114829183D01*
X88773346Y-114835372D01*
X88759717Y-114840249D01*
X88745676Y-114843766D01*
X88731358Y-114845890D01*
X88716900Y-114846600D01*
X88371900Y-114846600D01*
X88357442Y-114845890D01*
X88343124Y-114843766D01*
X88329083Y-114840249D01*
X88315454Y-114835372D01*
X88302369Y-114829183D01*
X88289953Y-114821742D01*
X88278327Y-114813119D01*
X88267602Y-114803398D01*
X88257881Y-114792673D01*
X88249258Y-114781047D01*
X88241817Y-114768631D01*
X88235628Y-114755546D01*
X88230751Y-114741917D01*
X88227234Y-114727876D01*
X88225110Y-114713558D01*
X88224400Y-114699100D01*
X88224400Y-114404100D01*
X88225110Y-114389642D01*
X88227234Y-114375324D01*
X88230751Y-114361283D01*
X88235628Y-114347654D01*
X88241817Y-114334569D01*
X88249258Y-114322153D01*
X88257881Y-114310527D01*
X88267602Y-114299802D01*
X88278327Y-114290081D01*
X88289953Y-114281458D01*
X88302369Y-114274017D01*
X88315454Y-114267828D01*
X88329083Y-114262951D01*
X88343124Y-114259434D01*
X88357442Y-114257310D01*
X88371900Y-114256600D01*
X88716900Y-114256600D01*
X88731358Y-114257310D01*
X88731358Y-114257310D01*
G37*
D11*
X88544400Y-114551600D03*
D10*
G36*
X88731358Y-115227310D02*
G01*
X88745676Y-115229434D01*
X88759717Y-115232951D01*
X88773346Y-115237828D01*
X88786431Y-115244017D01*
X88798847Y-115251458D01*
X88810473Y-115260081D01*
X88821198Y-115269802D01*
X88830919Y-115280527D01*
X88839542Y-115292153D01*
X88846983Y-115304569D01*
X88853172Y-115317654D01*
X88858049Y-115331283D01*
X88861566Y-115345324D01*
X88863690Y-115359642D01*
X88864400Y-115374100D01*
X88864400Y-115669100D01*
X88863690Y-115683558D01*
X88861566Y-115697876D01*
X88858049Y-115711917D01*
X88853172Y-115725546D01*
X88846983Y-115738631D01*
X88839542Y-115751047D01*
X88830919Y-115762673D01*
X88821198Y-115773398D01*
X88810473Y-115783119D01*
X88798847Y-115791742D01*
X88786431Y-115799183D01*
X88773346Y-115805372D01*
X88759717Y-115810249D01*
X88745676Y-115813766D01*
X88731358Y-115815890D01*
X88716900Y-115816600D01*
X88371900Y-115816600D01*
X88357442Y-115815890D01*
X88343124Y-115813766D01*
X88329083Y-115810249D01*
X88315454Y-115805372D01*
X88302369Y-115799183D01*
X88289953Y-115791742D01*
X88278327Y-115783119D01*
X88267602Y-115773398D01*
X88257881Y-115762673D01*
X88249258Y-115751047D01*
X88241817Y-115738631D01*
X88235628Y-115725546D01*
X88230751Y-115711917D01*
X88227234Y-115697876D01*
X88225110Y-115683558D01*
X88224400Y-115669100D01*
X88224400Y-115374100D01*
X88225110Y-115359642D01*
X88227234Y-115345324D01*
X88230751Y-115331283D01*
X88235628Y-115317654D01*
X88241817Y-115304569D01*
X88249258Y-115292153D01*
X88257881Y-115280527D01*
X88267602Y-115269802D01*
X88278327Y-115260081D01*
X88289953Y-115251458D01*
X88302369Y-115244017D01*
X88315454Y-115237828D01*
X88329083Y-115232951D01*
X88343124Y-115229434D01*
X88357442Y-115227310D01*
X88371900Y-115226600D01*
X88716900Y-115226600D01*
X88731358Y-115227310D01*
X88731358Y-115227310D01*
G37*
D11*
X88544400Y-115521600D03*
D10*
G36*
X90923638Y-105156750D02*
G01*
X90937956Y-105158874D01*
X90951997Y-105162391D01*
X90965626Y-105167268D01*
X90978711Y-105173457D01*
X90991127Y-105180898D01*
X91002753Y-105189521D01*
X91013478Y-105199242D01*
X91023199Y-105209967D01*
X91031822Y-105221593D01*
X91039263Y-105234009D01*
X91045452Y-105247094D01*
X91050329Y-105260723D01*
X91053846Y-105274764D01*
X91055970Y-105289082D01*
X91056680Y-105303540D01*
X91056680Y-105648540D01*
X91055970Y-105662998D01*
X91053846Y-105677316D01*
X91050329Y-105691357D01*
X91045452Y-105704986D01*
X91039263Y-105718071D01*
X91031822Y-105730487D01*
X91023199Y-105742113D01*
X91013478Y-105752838D01*
X91002753Y-105762559D01*
X90991127Y-105771182D01*
X90978711Y-105778623D01*
X90965626Y-105784812D01*
X90951997Y-105789689D01*
X90937956Y-105793206D01*
X90923638Y-105795330D01*
X90909180Y-105796040D01*
X90614180Y-105796040D01*
X90599722Y-105795330D01*
X90585404Y-105793206D01*
X90571363Y-105789689D01*
X90557734Y-105784812D01*
X90544649Y-105778623D01*
X90532233Y-105771182D01*
X90520607Y-105762559D01*
X90509882Y-105752838D01*
X90500161Y-105742113D01*
X90491538Y-105730487D01*
X90484097Y-105718071D01*
X90477908Y-105704986D01*
X90473031Y-105691357D01*
X90469514Y-105677316D01*
X90467390Y-105662998D01*
X90466680Y-105648540D01*
X90466680Y-105303540D01*
X90467390Y-105289082D01*
X90469514Y-105274764D01*
X90473031Y-105260723D01*
X90477908Y-105247094D01*
X90484097Y-105234009D01*
X90491538Y-105221593D01*
X90500161Y-105209967D01*
X90509882Y-105199242D01*
X90520607Y-105189521D01*
X90532233Y-105180898D01*
X90544649Y-105173457D01*
X90557734Y-105167268D01*
X90571363Y-105162391D01*
X90585404Y-105158874D01*
X90599722Y-105156750D01*
X90614180Y-105156040D01*
X90909180Y-105156040D01*
X90923638Y-105156750D01*
X90923638Y-105156750D01*
G37*
D11*
X90761680Y-105476040D03*
D10*
G36*
X89953638Y-105156750D02*
G01*
X89967956Y-105158874D01*
X89981997Y-105162391D01*
X89995626Y-105167268D01*
X90008711Y-105173457D01*
X90021127Y-105180898D01*
X90032753Y-105189521D01*
X90043478Y-105199242D01*
X90053199Y-105209967D01*
X90061822Y-105221593D01*
X90069263Y-105234009D01*
X90075452Y-105247094D01*
X90080329Y-105260723D01*
X90083846Y-105274764D01*
X90085970Y-105289082D01*
X90086680Y-105303540D01*
X90086680Y-105648540D01*
X90085970Y-105662998D01*
X90083846Y-105677316D01*
X90080329Y-105691357D01*
X90075452Y-105704986D01*
X90069263Y-105718071D01*
X90061822Y-105730487D01*
X90053199Y-105742113D01*
X90043478Y-105752838D01*
X90032753Y-105762559D01*
X90021127Y-105771182D01*
X90008711Y-105778623D01*
X89995626Y-105784812D01*
X89981997Y-105789689D01*
X89967956Y-105793206D01*
X89953638Y-105795330D01*
X89939180Y-105796040D01*
X89644180Y-105796040D01*
X89629722Y-105795330D01*
X89615404Y-105793206D01*
X89601363Y-105789689D01*
X89587734Y-105784812D01*
X89574649Y-105778623D01*
X89562233Y-105771182D01*
X89550607Y-105762559D01*
X89539882Y-105752838D01*
X89530161Y-105742113D01*
X89521538Y-105730487D01*
X89514097Y-105718071D01*
X89507908Y-105704986D01*
X89503031Y-105691357D01*
X89499514Y-105677316D01*
X89497390Y-105662998D01*
X89496680Y-105648540D01*
X89496680Y-105303540D01*
X89497390Y-105289082D01*
X89499514Y-105274764D01*
X89503031Y-105260723D01*
X89507908Y-105247094D01*
X89514097Y-105234009D01*
X89521538Y-105221593D01*
X89530161Y-105209967D01*
X89539882Y-105199242D01*
X89550607Y-105189521D01*
X89562233Y-105180898D01*
X89574649Y-105173457D01*
X89587734Y-105167268D01*
X89601363Y-105162391D01*
X89615404Y-105158874D01*
X89629722Y-105156750D01*
X89644180Y-105156040D01*
X89939180Y-105156040D01*
X89953638Y-105156750D01*
X89953638Y-105156750D01*
G37*
D11*
X89791680Y-105476040D03*
D10*
G36*
X90928718Y-106182910D02*
G01*
X90943036Y-106185034D01*
X90957077Y-106188551D01*
X90970706Y-106193428D01*
X90983791Y-106199617D01*
X90996207Y-106207058D01*
X91007833Y-106215681D01*
X91018558Y-106225402D01*
X91028279Y-106236127D01*
X91036902Y-106247753D01*
X91044343Y-106260169D01*
X91050532Y-106273254D01*
X91055409Y-106286883D01*
X91058926Y-106300924D01*
X91061050Y-106315242D01*
X91061760Y-106329700D01*
X91061760Y-106674700D01*
X91061050Y-106689158D01*
X91058926Y-106703476D01*
X91055409Y-106717517D01*
X91050532Y-106731146D01*
X91044343Y-106744231D01*
X91036902Y-106756647D01*
X91028279Y-106768273D01*
X91018558Y-106778998D01*
X91007833Y-106788719D01*
X90996207Y-106797342D01*
X90983791Y-106804783D01*
X90970706Y-106810972D01*
X90957077Y-106815849D01*
X90943036Y-106819366D01*
X90928718Y-106821490D01*
X90914260Y-106822200D01*
X90619260Y-106822200D01*
X90604802Y-106821490D01*
X90590484Y-106819366D01*
X90576443Y-106815849D01*
X90562814Y-106810972D01*
X90549729Y-106804783D01*
X90537313Y-106797342D01*
X90525687Y-106788719D01*
X90514962Y-106778998D01*
X90505241Y-106768273D01*
X90496618Y-106756647D01*
X90489177Y-106744231D01*
X90482988Y-106731146D01*
X90478111Y-106717517D01*
X90474594Y-106703476D01*
X90472470Y-106689158D01*
X90471760Y-106674700D01*
X90471760Y-106329700D01*
X90472470Y-106315242D01*
X90474594Y-106300924D01*
X90478111Y-106286883D01*
X90482988Y-106273254D01*
X90489177Y-106260169D01*
X90496618Y-106247753D01*
X90505241Y-106236127D01*
X90514962Y-106225402D01*
X90525687Y-106215681D01*
X90537313Y-106207058D01*
X90549729Y-106199617D01*
X90562814Y-106193428D01*
X90576443Y-106188551D01*
X90590484Y-106185034D01*
X90604802Y-106182910D01*
X90619260Y-106182200D01*
X90914260Y-106182200D01*
X90928718Y-106182910D01*
X90928718Y-106182910D01*
G37*
D11*
X90766760Y-106502200D03*
D10*
G36*
X89958718Y-106182910D02*
G01*
X89973036Y-106185034D01*
X89987077Y-106188551D01*
X90000706Y-106193428D01*
X90013791Y-106199617D01*
X90026207Y-106207058D01*
X90037833Y-106215681D01*
X90048558Y-106225402D01*
X90058279Y-106236127D01*
X90066902Y-106247753D01*
X90074343Y-106260169D01*
X90080532Y-106273254D01*
X90085409Y-106286883D01*
X90088926Y-106300924D01*
X90091050Y-106315242D01*
X90091760Y-106329700D01*
X90091760Y-106674700D01*
X90091050Y-106689158D01*
X90088926Y-106703476D01*
X90085409Y-106717517D01*
X90080532Y-106731146D01*
X90074343Y-106744231D01*
X90066902Y-106756647D01*
X90058279Y-106768273D01*
X90048558Y-106778998D01*
X90037833Y-106788719D01*
X90026207Y-106797342D01*
X90013791Y-106804783D01*
X90000706Y-106810972D01*
X89987077Y-106815849D01*
X89973036Y-106819366D01*
X89958718Y-106821490D01*
X89944260Y-106822200D01*
X89649260Y-106822200D01*
X89634802Y-106821490D01*
X89620484Y-106819366D01*
X89606443Y-106815849D01*
X89592814Y-106810972D01*
X89579729Y-106804783D01*
X89567313Y-106797342D01*
X89555687Y-106788719D01*
X89544962Y-106778998D01*
X89535241Y-106768273D01*
X89526618Y-106756647D01*
X89519177Y-106744231D01*
X89512988Y-106731146D01*
X89508111Y-106717517D01*
X89504594Y-106703476D01*
X89502470Y-106689158D01*
X89501760Y-106674700D01*
X89501760Y-106329700D01*
X89502470Y-106315242D01*
X89504594Y-106300924D01*
X89508111Y-106286883D01*
X89512988Y-106273254D01*
X89519177Y-106260169D01*
X89526618Y-106247753D01*
X89535241Y-106236127D01*
X89544962Y-106225402D01*
X89555687Y-106215681D01*
X89567313Y-106207058D01*
X89579729Y-106199617D01*
X89592814Y-106193428D01*
X89606443Y-106188551D01*
X89620484Y-106185034D01*
X89634802Y-106182910D01*
X89649260Y-106182200D01*
X89944260Y-106182200D01*
X89958718Y-106182910D01*
X89958718Y-106182910D01*
G37*
D11*
X89796760Y-106502200D03*
D10*
G36*
X101180158Y-114260110D02*
G01*
X101194476Y-114262234D01*
X101208517Y-114265751D01*
X101222146Y-114270628D01*
X101235231Y-114276817D01*
X101247647Y-114284258D01*
X101259273Y-114292881D01*
X101269998Y-114302602D01*
X101279719Y-114313327D01*
X101288342Y-114324953D01*
X101295783Y-114337369D01*
X101301972Y-114350454D01*
X101306849Y-114364083D01*
X101310366Y-114378124D01*
X101312490Y-114392442D01*
X101313200Y-114406900D01*
X101313200Y-114751900D01*
X101312490Y-114766358D01*
X101310366Y-114780676D01*
X101306849Y-114794717D01*
X101301972Y-114808346D01*
X101295783Y-114821431D01*
X101288342Y-114833847D01*
X101279719Y-114845473D01*
X101269998Y-114856198D01*
X101259273Y-114865919D01*
X101247647Y-114874542D01*
X101235231Y-114881983D01*
X101222146Y-114888172D01*
X101208517Y-114893049D01*
X101194476Y-114896566D01*
X101180158Y-114898690D01*
X101165700Y-114899400D01*
X100870700Y-114899400D01*
X100856242Y-114898690D01*
X100841924Y-114896566D01*
X100827883Y-114893049D01*
X100814254Y-114888172D01*
X100801169Y-114881983D01*
X100788753Y-114874542D01*
X100777127Y-114865919D01*
X100766402Y-114856198D01*
X100756681Y-114845473D01*
X100748058Y-114833847D01*
X100740617Y-114821431D01*
X100734428Y-114808346D01*
X100729551Y-114794717D01*
X100726034Y-114780676D01*
X100723910Y-114766358D01*
X100723200Y-114751900D01*
X100723200Y-114406900D01*
X100723910Y-114392442D01*
X100726034Y-114378124D01*
X100729551Y-114364083D01*
X100734428Y-114350454D01*
X100740617Y-114337369D01*
X100748058Y-114324953D01*
X100756681Y-114313327D01*
X100766402Y-114302602D01*
X100777127Y-114292881D01*
X100788753Y-114284258D01*
X100801169Y-114276817D01*
X100814254Y-114270628D01*
X100827883Y-114265751D01*
X100841924Y-114262234D01*
X100856242Y-114260110D01*
X100870700Y-114259400D01*
X101165700Y-114259400D01*
X101180158Y-114260110D01*
X101180158Y-114260110D01*
G37*
D11*
X101018200Y-114579400D03*
D10*
G36*
X100210158Y-114260110D02*
G01*
X100224476Y-114262234D01*
X100238517Y-114265751D01*
X100252146Y-114270628D01*
X100265231Y-114276817D01*
X100277647Y-114284258D01*
X100289273Y-114292881D01*
X100299998Y-114302602D01*
X100309719Y-114313327D01*
X100318342Y-114324953D01*
X100325783Y-114337369D01*
X100331972Y-114350454D01*
X100336849Y-114364083D01*
X100340366Y-114378124D01*
X100342490Y-114392442D01*
X100343200Y-114406900D01*
X100343200Y-114751900D01*
X100342490Y-114766358D01*
X100340366Y-114780676D01*
X100336849Y-114794717D01*
X100331972Y-114808346D01*
X100325783Y-114821431D01*
X100318342Y-114833847D01*
X100309719Y-114845473D01*
X100299998Y-114856198D01*
X100289273Y-114865919D01*
X100277647Y-114874542D01*
X100265231Y-114881983D01*
X100252146Y-114888172D01*
X100238517Y-114893049D01*
X100224476Y-114896566D01*
X100210158Y-114898690D01*
X100195700Y-114899400D01*
X99900700Y-114899400D01*
X99886242Y-114898690D01*
X99871924Y-114896566D01*
X99857883Y-114893049D01*
X99844254Y-114888172D01*
X99831169Y-114881983D01*
X99818753Y-114874542D01*
X99807127Y-114865919D01*
X99796402Y-114856198D01*
X99786681Y-114845473D01*
X99778058Y-114833847D01*
X99770617Y-114821431D01*
X99764428Y-114808346D01*
X99759551Y-114794717D01*
X99756034Y-114780676D01*
X99753910Y-114766358D01*
X99753200Y-114751900D01*
X99753200Y-114406900D01*
X99753910Y-114392442D01*
X99756034Y-114378124D01*
X99759551Y-114364083D01*
X99764428Y-114350454D01*
X99770617Y-114337369D01*
X99778058Y-114324953D01*
X99786681Y-114313327D01*
X99796402Y-114302602D01*
X99807127Y-114292881D01*
X99818753Y-114284258D01*
X99831169Y-114276817D01*
X99844254Y-114270628D01*
X99857883Y-114265751D01*
X99871924Y-114262234D01*
X99886242Y-114260110D01*
X99900700Y-114259400D01*
X100195700Y-114259400D01*
X100210158Y-114260110D01*
X100210158Y-114260110D01*
G37*
D11*
X100048200Y-114579400D03*
D10*
G36*
X101180158Y-113244110D02*
G01*
X101194476Y-113246234D01*
X101208517Y-113249751D01*
X101222146Y-113254628D01*
X101235231Y-113260817D01*
X101247647Y-113268258D01*
X101259273Y-113276881D01*
X101269998Y-113286602D01*
X101279719Y-113297327D01*
X101288342Y-113308953D01*
X101295783Y-113321369D01*
X101301972Y-113334454D01*
X101306849Y-113348083D01*
X101310366Y-113362124D01*
X101312490Y-113376442D01*
X101313200Y-113390900D01*
X101313200Y-113735900D01*
X101312490Y-113750358D01*
X101310366Y-113764676D01*
X101306849Y-113778717D01*
X101301972Y-113792346D01*
X101295783Y-113805431D01*
X101288342Y-113817847D01*
X101279719Y-113829473D01*
X101269998Y-113840198D01*
X101259273Y-113849919D01*
X101247647Y-113858542D01*
X101235231Y-113865983D01*
X101222146Y-113872172D01*
X101208517Y-113877049D01*
X101194476Y-113880566D01*
X101180158Y-113882690D01*
X101165700Y-113883400D01*
X100870700Y-113883400D01*
X100856242Y-113882690D01*
X100841924Y-113880566D01*
X100827883Y-113877049D01*
X100814254Y-113872172D01*
X100801169Y-113865983D01*
X100788753Y-113858542D01*
X100777127Y-113849919D01*
X100766402Y-113840198D01*
X100756681Y-113829473D01*
X100748058Y-113817847D01*
X100740617Y-113805431D01*
X100734428Y-113792346D01*
X100729551Y-113778717D01*
X100726034Y-113764676D01*
X100723910Y-113750358D01*
X100723200Y-113735900D01*
X100723200Y-113390900D01*
X100723910Y-113376442D01*
X100726034Y-113362124D01*
X100729551Y-113348083D01*
X100734428Y-113334454D01*
X100740617Y-113321369D01*
X100748058Y-113308953D01*
X100756681Y-113297327D01*
X100766402Y-113286602D01*
X100777127Y-113276881D01*
X100788753Y-113268258D01*
X100801169Y-113260817D01*
X100814254Y-113254628D01*
X100827883Y-113249751D01*
X100841924Y-113246234D01*
X100856242Y-113244110D01*
X100870700Y-113243400D01*
X101165700Y-113243400D01*
X101180158Y-113244110D01*
X101180158Y-113244110D01*
G37*
D11*
X101018200Y-113563400D03*
D10*
G36*
X100210158Y-113244110D02*
G01*
X100224476Y-113246234D01*
X100238517Y-113249751D01*
X100252146Y-113254628D01*
X100265231Y-113260817D01*
X100277647Y-113268258D01*
X100289273Y-113276881D01*
X100299998Y-113286602D01*
X100309719Y-113297327D01*
X100318342Y-113308953D01*
X100325783Y-113321369D01*
X100331972Y-113334454D01*
X100336849Y-113348083D01*
X100340366Y-113362124D01*
X100342490Y-113376442D01*
X100343200Y-113390900D01*
X100343200Y-113735900D01*
X100342490Y-113750358D01*
X100340366Y-113764676D01*
X100336849Y-113778717D01*
X100331972Y-113792346D01*
X100325783Y-113805431D01*
X100318342Y-113817847D01*
X100309719Y-113829473D01*
X100299998Y-113840198D01*
X100289273Y-113849919D01*
X100277647Y-113858542D01*
X100265231Y-113865983D01*
X100252146Y-113872172D01*
X100238517Y-113877049D01*
X100224476Y-113880566D01*
X100210158Y-113882690D01*
X100195700Y-113883400D01*
X99900700Y-113883400D01*
X99886242Y-113882690D01*
X99871924Y-113880566D01*
X99857883Y-113877049D01*
X99844254Y-113872172D01*
X99831169Y-113865983D01*
X99818753Y-113858542D01*
X99807127Y-113849919D01*
X99796402Y-113840198D01*
X99786681Y-113829473D01*
X99778058Y-113817847D01*
X99770617Y-113805431D01*
X99764428Y-113792346D01*
X99759551Y-113778717D01*
X99756034Y-113764676D01*
X99753910Y-113750358D01*
X99753200Y-113735900D01*
X99753200Y-113390900D01*
X99753910Y-113376442D01*
X99756034Y-113362124D01*
X99759551Y-113348083D01*
X99764428Y-113334454D01*
X99770617Y-113321369D01*
X99778058Y-113308953D01*
X99786681Y-113297327D01*
X99796402Y-113286602D01*
X99807127Y-113276881D01*
X99818753Y-113268258D01*
X99831169Y-113260817D01*
X99844254Y-113254628D01*
X99857883Y-113249751D01*
X99871924Y-113246234D01*
X99886242Y-113244110D01*
X99900700Y-113243400D01*
X100195700Y-113243400D01*
X100210158Y-113244110D01*
X100210158Y-113244110D01*
G37*
D11*
X100048200Y-113563400D03*
M02*
