G04 #@! TF.GenerationSoftware,KiCad,Pcbnew,5.1.4+dfsg1-1*
G04 #@! TF.CreationDate,2019-09-03T18:12:52+09:00*
G04 #@! TF.ProjectId,axp192breakout,61787031-3932-4627-9265-616b6f75742e,rev?*
G04 #@! TF.SameCoordinates,Original*
G04 #@! TF.FileFunction,Legend,Top*
G04 #@! TF.FilePolarity,Positive*
%FSLAX46Y46*%
G04 Gerber Fmt 4.6, Leading zero omitted, Abs format (unit mm)*
G04 Created by KiCad (PCBNEW 5.1.4+dfsg1-1) date 2019-09-03 18:12:52*
%MOMM*%
%LPD*%
G04 APERTURE LIST*
%ADD10C,0.120000*%
%ADD11C,0.150000*%
G04 APERTURE END LIST*
D10*
X102930000Y-124460000D02*
X102930000Y-125790000D01*
X102930000Y-125790000D02*
X101600000Y-125790000D01*
X100330000Y-125790000D02*
X95190000Y-125790000D01*
X95190000Y-123130000D02*
X95190000Y-125790000D01*
X100330000Y-123130000D02*
X95190000Y-123130000D01*
X100330000Y-123130000D02*
X100330000Y-125790000D01*
X87570000Y-124460000D02*
X87570000Y-123130000D01*
X87570000Y-123130000D02*
X88900000Y-123130000D01*
X90170000Y-123130000D02*
X92770000Y-123130000D01*
X92770000Y-125790000D02*
X92770000Y-123130000D01*
X90170000Y-125790000D02*
X92770000Y-125790000D01*
X90170000Y-125790000D02*
X90170000Y-123130000D01*
D11*
X109084000Y-125562000D02*
X109084000Y-126412000D01*
X109084000Y-117262000D02*
X109084000Y-116412000D01*
X109084000Y-125112000D02*
X108184000Y-125112000D01*
X109084000Y-117712000D02*
X108184000Y-117712000D01*
X104084000Y-125112000D02*
X105634000Y-125112000D01*
X104084000Y-117712000D02*
X105634000Y-117712000D01*
X104084000Y-119612000D02*
X104084000Y-117712000D01*
X109084000Y-125112000D02*
X109734000Y-125712000D01*
X109084000Y-117712000D02*
X109734000Y-117112000D01*
X104084000Y-123212000D02*
X104084000Y-125112000D01*
X109084000Y-125112000D02*
X109084000Y-117712000D01*
D10*
X91976700Y-118752800D02*
X93976700Y-118752800D01*
X91976700Y-116552800D02*
X93976700Y-116552800D01*
X86911000Y-111750600D02*
X86911000Y-113750600D01*
X89111000Y-111750600D02*
X89111000Y-113750600D01*
X93583000Y-104833240D02*
X91583000Y-104833240D01*
X93583000Y-107033240D02*
X91583000Y-107033240D01*
X79950000Y-110430000D02*
X81280000Y-110430000D01*
X79950000Y-111760000D02*
X79950000Y-110430000D01*
X82550000Y-110430000D02*
X85150000Y-110430000D01*
X82550000Y-113030000D02*
X82550000Y-110430000D01*
X79950000Y-113030000D02*
X82550000Y-113030000D01*
X85150000Y-110430000D02*
X85150000Y-125790000D01*
X79950000Y-113030000D02*
X79950000Y-125790000D01*
X79950000Y-125790000D02*
X85150000Y-125790000D01*
X91420000Y-108650000D02*
X90870000Y-108650000D01*
X97090000Y-114870000D02*
X97090000Y-114320000D01*
X96540000Y-114870000D02*
X97090000Y-114870000D01*
X90870000Y-114870000D02*
X90870000Y-114320000D01*
X91420000Y-114870000D02*
X90870000Y-114870000D01*
X97090000Y-108650000D02*
X97090000Y-109200000D01*
X96540000Y-108650000D02*
X97090000Y-108650000D01*
X82490000Y-102930000D02*
X82490000Y-101600000D01*
X83820000Y-102930000D02*
X82490000Y-102930000D01*
X82490000Y-100330000D02*
X82490000Y-97730000D01*
X85090000Y-100330000D02*
X82490000Y-100330000D01*
X85090000Y-102930000D02*
X85090000Y-100330000D01*
X82490000Y-97730000D02*
X102930000Y-97730000D01*
X85090000Y-102930000D02*
X102930000Y-102930000D01*
X102930000Y-102930000D02*
X102930000Y-97730000D01*
X108010000Y-105470000D02*
X106680000Y-105470000D01*
X108010000Y-104140000D02*
X108010000Y-105470000D01*
X108010000Y-102870000D02*
X105350000Y-102870000D01*
X105350000Y-102870000D02*
X105350000Y-97730000D01*
X108010000Y-102870000D02*
X108010000Y-97730000D01*
X108010000Y-97730000D02*
X105350000Y-97730000D01*
X105350000Y-113090000D02*
X105350000Y-111760000D01*
X106680000Y-113090000D02*
X105350000Y-113090000D01*
X105350000Y-110490000D02*
X105350000Y-107890000D01*
X107950000Y-110490000D02*
X105350000Y-110490000D01*
X107950000Y-113090000D02*
X107950000Y-110490000D01*
X105350000Y-107890000D02*
X108010000Y-107890000D01*
X107950000Y-113090000D02*
X108010000Y-113090000D01*
X108010000Y-113090000D02*
X108010000Y-107890000D01*
X100196320Y-109277520D02*
X100196320Y-106992520D01*
X98726320Y-109277520D02*
X100196320Y-109277520D01*
X98726320Y-106992520D02*
X98726320Y-109277520D01*
D11*
X93533980Y-124996533D02*
X94248266Y-124996533D01*
X94391123Y-125044152D01*
X94486361Y-125139390D01*
X94533980Y-125282247D01*
X94533980Y-125377485D01*
X93533980Y-124091771D02*
X93533980Y-124282247D01*
X93581600Y-124377485D01*
X93629219Y-124425104D01*
X93772076Y-124520342D01*
X93962552Y-124567961D01*
X94343504Y-124567961D01*
X94438742Y-124520342D01*
X94486361Y-124472723D01*
X94533980Y-124377485D01*
X94533980Y-124187009D01*
X94486361Y-124091771D01*
X94438742Y-124044152D01*
X94343504Y-123996533D01*
X94105409Y-123996533D01*
X94010171Y-124044152D01*
X93962552Y-124091771D01*
X93914933Y-124187009D01*
X93914933Y-124377485D01*
X93962552Y-124472723D01*
X94010171Y-124520342D01*
X94105409Y-124567961D01*
X96318342Y-121064257D02*
X96365961Y-121111876D01*
X96413580Y-121254733D01*
X96413580Y-121349971D01*
X96365961Y-121492828D01*
X96270723Y-121588066D01*
X96175485Y-121635685D01*
X95985009Y-121683304D01*
X95842152Y-121683304D01*
X95651676Y-121635685D01*
X95556438Y-121588066D01*
X95461200Y-121492828D01*
X95413580Y-121349971D01*
X95413580Y-121254733D01*
X95461200Y-121111876D01*
X95508819Y-121064257D01*
X96413580Y-120111876D02*
X96413580Y-120683304D01*
X96413580Y-120397590D02*
X95413580Y-120397590D01*
X95556438Y-120492828D01*
X95651676Y-120588066D01*
X95699295Y-120683304D01*
X95413580Y-119778542D02*
X95413580Y-119159495D01*
X95794533Y-119492828D01*
X95794533Y-119349971D01*
X95842152Y-119254733D01*
X95889771Y-119207114D01*
X95985009Y-119159495D01*
X96223104Y-119159495D01*
X96318342Y-119207114D01*
X96365961Y-119254733D01*
X96413580Y-119349971D01*
X96413580Y-119635685D01*
X96365961Y-119730923D01*
X96318342Y-119778542D01*
X86866361Y-125767933D02*
X86913980Y-125625076D01*
X86913980Y-125386980D01*
X86866361Y-125291742D01*
X86818742Y-125244123D01*
X86723504Y-125196504D01*
X86628266Y-125196504D01*
X86533028Y-125244123D01*
X86485409Y-125291742D01*
X86437790Y-125386980D01*
X86390171Y-125577457D01*
X86342552Y-125672695D01*
X86294933Y-125720314D01*
X86199695Y-125767933D01*
X86104457Y-125767933D01*
X86009219Y-125720314D01*
X85961600Y-125672695D01*
X85913980Y-125577457D01*
X85913980Y-125339361D01*
X85961600Y-125196504D01*
X85913980Y-124863171D02*
X86913980Y-124625076D01*
X86199695Y-124434600D01*
X86913980Y-124244123D01*
X85913980Y-124006028D01*
X86913980Y-123101266D02*
X86913980Y-123672695D01*
X86913980Y-123386980D02*
X85913980Y-123386980D01*
X86056838Y-123482219D01*
X86152076Y-123577457D01*
X86199695Y-123672695D01*
X89723933Y-121508780D02*
X89390600Y-121032590D01*
X89152504Y-121508780D02*
X89152504Y-120508780D01*
X89533457Y-120508780D01*
X89628695Y-120556400D01*
X89676314Y-120604019D01*
X89723933Y-120699257D01*
X89723933Y-120842114D01*
X89676314Y-120937352D01*
X89628695Y-120984971D01*
X89533457Y-121032590D01*
X89152504Y-121032590D01*
X90057266Y-120508780D02*
X90676314Y-120508780D01*
X90342980Y-120889733D01*
X90485838Y-120889733D01*
X90581076Y-120937352D01*
X90628695Y-120984971D01*
X90676314Y-121080209D01*
X90676314Y-121318304D01*
X90628695Y-121413542D01*
X90581076Y-121461161D01*
X90485838Y-121508780D01*
X90200123Y-121508780D01*
X90104885Y-121461161D01*
X90057266Y-121413542D01*
X86910942Y-121388142D02*
X86863323Y-121435761D01*
X86720466Y-121483380D01*
X86625228Y-121483380D01*
X86482371Y-121435761D01*
X86387133Y-121340523D01*
X86339514Y-121245285D01*
X86291895Y-121054809D01*
X86291895Y-120911952D01*
X86339514Y-120721476D01*
X86387133Y-120626238D01*
X86482371Y-120531000D01*
X86625228Y-120483380D01*
X86720466Y-120483380D01*
X86863323Y-120531000D01*
X86910942Y-120578619D01*
X87863323Y-121483380D02*
X87291895Y-121483380D01*
X87577609Y-121483380D02*
X87577609Y-120483380D01*
X87482371Y-120626238D01*
X87387133Y-120721476D01*
X87291895Y-120769095D01*
X88244276Y-120578619D02*
X88291895Y-120531000D01*
X88387133Y-120483380D01*
X88625228Y-120483380D01*
X88720466Y-120531000D01*
X88768085Y-120578619D01*
X88815704Y-120673857D01*
X88815704Y-120769095D01*
X88768085Y-120911952D01*
X88196657Y-121483380D01*
X88815704Y-121483380D01*
X98475562Y-117415582D02*
X98427943Y-117463201D01*
X98285086Y-117510820D01*
X98189848Y-117510820D01*
X98046991Y-117463201D01*
X97951753Y-117367963D01*
X97904134Y-117272725D01*
X97856515Y-117082249D01*
X97856515Y-116939392D01*
X97904134Y-116748916D01*
X97951753Y-116653678D01*
X98046991Y-116558440D01*
X98189848Y-116510820D01*
X98285086Y-116510820D01*
X98427943Y-116558440D01*
X98475562Y-116606059D01*
X99427943Y-117510820D02*
X98856515Y-117510820D01*
X99142229Y-117510820D02*
X99142229Y-116510820D01*
X99046991Y-116653678D01*
X98951753Y-116748916D01*
X98856515Y-116796535D01*
X100380324Y-117510820D02*
X99808896Y-117510820D01*
X100094610Y-117510820D02*
X100094610Y-116510820D01*
X99999372Y-116653678D01*
X99904134Y-116748916D01*
X99808896Y-116796535D01*
X89878502Y-118643637D02*
X89926121Y-118691256D01*
X89973740Y-118834113D01*
X89973740Y-118929351D01*
X89926121Y-119072208D01*
X89830883Y-119167446D01*
X89735645Y-119215065D01*
X89545169Y-119262684D01*
X89402312Y-119262684D01*
X89211836Y-119215065D01*
X89116598Y-119167446D01*
X89021360Y-119072208D01*
X88973740Y-118929351D01*
X88973740Y-118834113D01*
X89021360Y-118691256D01*
X89068979Y-118643637D01*
X89973740Y-117691256D02*
X89973740Y-118262684D01*
X89973740Y-117976970D02*
X88973740Y-117976970D01*
X89116598Y-118072208D01*
X89211836Y-118167446D01*
X89259455Y-118262684D01*
X88973740Y-117072208D02*
X88973740Y-116976970D01*
X89021360Y-116881732D01*
X89068979Y-116834113D01*
X89164217Y-116786494D01*
X89354693Y-116738875D01*
X89592788Y-116738875D01*
X89783264Y-116786494D01*
X89878502Y-116834113D01*
X89926121Y-116881732D01*
X89973740Y-116976970D01*
X89973740Y-117072208D01*
X89926121Y-117167446D01*
X89878502Y-117215065D01*
X89783264Y-117262684D01*
X89592788Y-117310303D01*
X89354693Y-117310303D01*
X89164217Y-117262684D01*
X89068979Y-117215065D01*
X89021360Y-117167446D01*
X88973740Y-117072208D01*
X86460033Y-118482382D02*
X86412414Y-118530001D01*
X86269557Y-118577620D01*
X86174319Y-118577620D01*
X86031461Y-118530001D01*
X85936223Y-118434763D01*
X85888604Y-118339525D01*
X85840985Y-118149049D01*
X85840985Y-118006192D01*
X85888604Y-117815716D01*
X85936223Y-117720478D01*
X86031461Y-117625240D01*
X86174319Y-117577620D01*
X86269557Y-117577620D01*
X86412414Y-117625240D01*
X86460033Y-117672859D01*
X86936223Y-118577620D02*
X87126700Y-118577620D01*
X87221938Y-118530001D01*
X87269557Y-118482382D01*
X87364795Y-118339525D01*
X87412414Y-118149049D01*
X87412414Y-117768097D01*
X87364795Y-117672859D01*
X87317176Y-117625240D01*
X87221938Y-117577620D01*
X87031461Y-117577620D01*
X86936223Y-117625240D01*
X86888604Y-117672859D01*
X86840985Y-117768097D01*
X86840985Y-118006192D01*
X86888604Y-118101430D01*
X86936223Y-118149049D01*
X87031461Y-118196668D01*
X87221938Y-118196668D01*
X87317176Y-118149049D01*
X87364795Y-118101430D01*
X87412414Y-118006192D01*
X104354380Y-116995533D02*
X105068666Y-116995533D01*
X105211523Y-117043152D01*
X105306761Y-117138390D01*
X105354380Y-117281247D01*
X105354380Y-117376485D01*
X105354380Y-115995533D02*
X105354380Y-116566961D01*
X105354380Y-116281247D02*
X104354380Y-116281247D01*
X104497238Y-116376485D01*
X104592476Y-116471723D01*
X104640095Y-116566961D01*
X95014753Y-118102640D02*
X94538562Y-118102640D01*
X94538562Y-117102640D01*
X95252848Y-117102640D02*
X95871896Y-117102640D01*
X95538562Y-117483593D01*
X95681420Y-117483593D01*
X95776658Y-117531212D01*
X95824277Y-117578831D01*
X95871896Y-117674069D01*
X95871896Y-117912164D01*
X95824277Y-118007402D01*
X95776658Y-118055021D01*
X95681420Y-118102640D01*
X95395705Y-118102640D01*
X95300467Y-118055021D01*
X95252848Y-118007402D01*
X89098380Y-110440766D02*
X89098380Y-110916957D01*
X88098380Y-110916957D01*
X88193619Y-110155052D02*
X88146000Y-110107433D01*
X88098380Y-110012195D01*
X88098380Y-109774100D01*
X88146000Y-109678861D01*
X88193619Y-109631242D01*
X88288857Y-109583623D01*
X88384095Y-109583623D01*
X88526952Y-109631242D01*
X89098380Y-110202671D01*
X89098380Y-109583623D01*
X92543333Y-104353620D02*
X92067142Y-104353620D01*
X92067142Y-103353620D01*
X93400476Y-104353620D02*
X92829047Y-104353620D01*
X93114761Y-104353620D02*
X93114761Y-103353620D01*
X93019523Y-103496478D01*
X92924285Y-103591716D01*
X92829047Y-103639335D01*
X82216666Y-108882380D02*
X82216666Y-109596666D01*
X82169047Y-109739523D01*
X82073809Y-109834761D01*
X81930952Y-109882380D01*
X81835714Y-109882380D01*
X82645238Y-108977619D02*
X82692857Y-108930000D01*
X82788095Y-108882380D01*
X83026190Y-108882380D01*
X83121428Y-108930000D01*
X83169047Y-108977619D01*
X83216666Y-109072857D01*
X83216666Y-109168095D01*
X83169047Y-109310952D01*
X82597619Y-109882380D01*
X83216666Y-109882380D01*
X95948595Y-106830880D02*
X95948595Y-107640404D01*
X95996214Y-107735642D01*
X96043833Y-107783261D01*
X96139071Y-107830880D01*
X96329547Y-107830880D01*
X96424785Y-107783261D01*
X96472404Y-107735642D01*
X96520023Y-107640404D01*
X96520023Y-106830880D01*
X97520023Y-107830880D02*
X96948595Y-107830880D01*
X97234309Y-107830880D02*
X97234309Y-106830880D01*
X97139071Y-106973738D01*
X97043833Y-107068976D01*
X96948595Y-107116595D01*
X102423933Y-116675160D02*
X102090600Y-116198970D01*
X101852504Y-116675160D02*
X101852504Y-115675160D01*
X102233457Y-115675160D01*
X102328695Y-115722780D01*
X102376314Y-115770399D01*
X102423933Y-115865637D01*
X102423933Y-116008494D01*
X102376314Y-116103732D01*
X102328695Y-116151351D01*
X102233457Y-116198970D01*
X101852504Y-116198970D01*
X102804885Y-115770399D02*
X102852504Y-115722780D01*
X102947742Y-115675160D01*
X103185838Y-115675160D01*
X103281076Y-115722780D01*
X103328695Y-115770399D01*
X103376314Y-115865637D01*
X103376314Y-115960875D01*
X103328695Y-116103732D01*
X102757266Y-116675160D01*
X103376314Y-116675160D01*
X98440500Y-106582506D02*
X97964310Y-106915840D01*
X98440500Y-107153935D02*
X97440500Y-107153935D01*
X97440500Y-106772982D01*
X97488120Y-106677744D01*
X97535739Y-106630125D01*
X97630977Y-106582506D01*
X97773834Y-106582506D01*
X97869072Y-106630125D01*
X97916691Y-106677744D01*
X97964310Y-106772982D01*
X97964310Y-107153935D01*
X98440500Y-105630125D02*
X98440500Y-106201554D01*
X98440500Y-105915840D02*
X97440500Y-105915840D01*
X97583358Y-106011078D01*
X97678596Y-106106316D01*
X97726215Y-106201554D01*
X80942380Y-100663333D02*
X81656666Y-100663333D01*
X81799523Y-100710952D01*
X81894761Y-100806190D01*
X81942380Y-100949047D01*
X81942380Y-101044285D01*
X80942380Y-99710952D02*
X80942380Y-100187142D01*
X81418571Y-100234761D01*
X81370952Y-100187142D01*
X81323333Y-100091904D01*
X81323333Y-99853809D01*
X81370952Y-99758571D01*
X81418571Y-99710952D01*
X81513809Y-99663333D01*
X81751904Y-99663333D01*
X81847142Y-99710952D01*
X81894761Y-99758571D01*
X81942380Y-99853809D01*
X81942380Y-100091904D01*
X81894761Y-100187142D01*
X81847142Y-100234761D01*
X103594920Y-101930793D02*
X104309206Y-101930793D01*
X104452063Y-101978412D01*
X104547301Y-102073650D01*
X104594920Y-102216507D01*
X104594920Y-102311745D01*
X103928254Y-101026031D02*
X104594920Y-101026031D01*
X103547301Y-101264126D02*
X104261587Y-101502221D01*
X104261587Y-100883174D01*
X106346666Y-106132380D02*
X106346666Y-106846666D01*
X106299047Y-106989523D01*
X106203809Y-107084761D01*
X106060952Y-107132380D01*
X105965714Y-107132380D01*
X106727619Y-106132380D02*
X107346666Y-106132380D01*
X107013333Y-106513333D01*
X107156190Y-106513333D01*
X107251428Y-106560952D01*
X107299047Y-106608571D01*
X107346666Y-106703809D01*
X107346666Y-106941904D01*
X107299047Y-107037142D01*
X107251428Y-107084761D01*
X107156190Y-107132380D01*
X106870476Y-107132380D01*
X106775238Y-107084761D01*
X106727619Y-107037142D01*
X101445320Y-108634755D02*
X100445320Y-108634755D01*
X100445320Y-108396660D01*
X100492940Y-108253802D01*
X100588178Y-108158564D01*
X100683416Y-108110945D01*
X100873892Y-108063326D01*
X101016749Y-108063326D01*
X101207225Y-108110945D01*
X101302463Y-108158564D01*
X101397701Y-108253802D01*
X101445320Y-108396660D01*
X101445320Y-108634755D01*
X101445320Y-107110945D02*
X101445320Y-107682374D01*
X101445320Y-107396660D02*
X100445320Y-107396660D01*
X100588178Y-107491898D01*
X100683416Y-107587136D01*
X100731035Y-107682374D01*
X93000533Y-122099342D02*
X92952914Y-122146961D01*
X92810057Y-122194580D01*
X92714819Y-122194580D01*
X92571961Y-122146961D01*
X92476723Y-122051723D01*
X92429104Y-121956485D01*
X92381485Y-121766009D01*
X92381485Y-121623152D01*
X92429104Y-121432676D01*
X92476723Y-121337438D01*
X92571961Y-121242200D01*
X92714819Y-121194580D01*
X92810057Y-121194580D01*
X92952914Y-121242200D01*
X93000533Y-121289819D01*
X93571961Y-121623152D02*
X93476723Y-121575533D01*
X93429104Y-121527914D01*
X93381485Y-121432676D01*
X93381485Y-121385057D01*
X93429104Y-121289819D01*
X93476723Y-121242200D01*
X93571961Y-121194580D01*
X93762438Y-121194580D01*
X93857676Y-121242200D01*
X93905295Y-121289819D01*
X93952914Y-121385057D01*
X93952914Y-121432676D01*
X93905295Y-121527914D01*
X93857676Y-121575533D01*
X93762438Y-121623152D01*
X93571961Y-121623152D01*
X93476723Y-121670771D01*
X93429104Y-121718390D01*
X93381485Y-121813628D01*
X93381485Y-122004104D01*
X93429104Y-122099342D01*
X93476723Y-122146961D01*
X93571961Y-122194580D01*
X93762438Y-122194580D01*
X93857676Y-122146961D01*
X93905295Y-122099342D01*
X93952914Y-122004104D01*
X93952914Y-121813628D01*
X93905295Y-121718390D01*
X93857676Y-121670771D01*
X93762438Y-121623152D01*
X91044733Y-120067342D02*
X90997114Y-120114961D01*
X90854257Y-120162580D01*
X90759019Y-120162580D01*
X90616161Y-120114961D01*
X90520923Y-120019723D01*
X90473304Y-119924485D01*
X90425685Y-119734009D01*
X90425685Y-119591152D01*
X90473304Y-119400676D01*
X90520923Y-119305438D01*
X90616161Y-119210200D01*
X90759019Y-119162580D01*
X90854257Y-119162580D01*
X90997114Y-119210200D01*
X91044733Y-119257819D01*
X91378066Y-119162580D02*
X92044733Y-119162580D01*
X91616161Y-120162580D01*
X86671242Y-115203266D02*
X86718861Y-115250885D01*
X86766480Y-115393742D01*
X86766480Y-115488980D01*
X86718861Y-115631838D01*
X86623623Y-115727076D01*
X86528385Y-115774695D01*
X86337909Y-115822314D01*
X86195052Y-115822314D01*
X86004576Y-115774695D01*
X85909338Y-115727076D01*
X85814100Y-115631838D01*
X85766480Y-115488980D01*
X85766480Y-115393742D01*
X85814100Y-115250885D01*
X85861719Y-115203266D01*
X85766480Y-114346123D02*
X85766480Y-114536600D01*
X85814100Y-114631838D01*
X85861719Y-114679457D01*
X86004576Y-114774695D01*
X86195052Y-114822314D01*
X86576004Y-114822314D01*
X86671242Y-114774695D01*
X86718861Y-114727076D01*
X86766480Y-114631838D01*
X86766480Y-114441361D01*
X86718861Y-114346123D01*
X86671242Y-114298504D01*
X86576004Y-114250885D01*
X86337909Y-114250885D01*
X86242671Y-114298504D01*
X86195052Y-114346123D01*
X86147433Y-114441361D01*
X86147433Y-114631838D01*
X86195052Y-114727076D01*
X86242671Y-114774695D01*
X86337909Y-114822314D01*
X90201542Y-115203266D02*
X90249161Y-115250885D01*
X90296780Y-115393742D01*
X90296780Y-115488980D01*
X90249161Y-115631838D01*
X90153923Y-115727076D01*
X90058685Y-115774695D01*
X89868209Y-115822314D01*
X89725352Y-115822314D01*
X89534876Y-115774695D01*
X89439638Y-115727076D01*
X89344400Y-115631838D01*
X89296780Y-115488980D01*
X89296780Y-115393742D01*
X89344400Y-115250885D01*
X89392019Y-115203266D01*
X89296780Y-114298504D02*
X89296780Y-114774695D01*
X89772971Y-114822314D01*
X89725352Y-114774695D01*
X89677733Y-114679457D01*
X89677733Y-114441361D01*
X89725352Y-114346123D01*
X89772971Y-114298504D01*
X89868209Y-114250885D01*
X90106304Y-114250885D01*
X90201542Y-114298504D01*
X90249161Y-114346123D01*
X90296780Y-114441361D01*
X90296780Y-114679457D01*
X90249161Y-114774695D01*
X90201542Y-114822314D01*
X88098333Y-105629982D02*
X88050714Y-105677601D01*
X87907857Y-105725220D01*
X87812619Y-105725220D01*
X87669761Y-105677601D01*
X87574523Y-105582363D01*
X87526904Y-105487125D01*
X87479285Y-105296649D01*
X87479285Y-105153792D01*
X87526904Y-104963316D01*
X87574523Y-104868078D01*
X87669761Y-104772840D01*
X87812619Y-104725220D01*
X87907857Y-104725220D01*
X88050714Y-104772840D01*
X88098333Y-104820459D01*
X88955476Y-105058554D02*
X88955476Y-105725220D01*
X88717380Y-104677601D02*
X88479285Y-105391887D01*
X89098333Y-105391887D01*
X88098333Y-107037142D02*
X88050714Y-107084761D01*
X87907857Y-107132380D01*
X87812619Y-107132380D01*
X87669761Y-107084761D01*
X87574523Y-106989523D01*
X87526904Y-106894285D01*
X87479285Y-106703809D01*
X87479285Y-106560952D01*
X87526904Y-106370476D01*
X87574523Y-106275238D01*
X87669761Y-106180000D01*
X87812619Y-106132380D01*
X87907857Y-106132380D01*
X88050714Y-106180000D01*
X88098333Y-106227619D01*
X88431666Y-106132380D02*
X89050714Y-106132380D01*
X88717380Y-106513333D01*
X88860238Y-106513333D01*
X88955476Y-106560952D01*
X89003095Y-106608571D01*
X89050714Y-106703809D01*
X89050714Y-106941904D01*
X89003095Y-107037142D01*
X88955476Y-107084761D01*
X88860238Y-107132380D01*
X88574523Y-107132380D01*
X88479285Y-107084761D01*
X88431666Y-107037142D01*
X102434093Y-115309922D02*
X102386474Y-115357541D01*
X102243617Y-115405160D01*
X102148379Y-115405160D01*
X102005521Y-115357541D01*
X101910283Y-115262303D01*
X101862664Y-115167065D01*
X101815045Y-114976589D01*
X101815045Y-114833732D01*
X101862664Y-114643256D01*
X101910283Y-114548018D01*
X102005521Y-114452780D01*
X102148379Y-114405160D01*
X102243617Y-114405160D01*
X102386474Y-114452780D01*
X102434093Y-114500399D01*
X102815045Y-114500399D02*
X102862664Y-114452780D01*
X102957902Y-114405160D01*
X103195998Y-114405160D01*
X103291236Y-114452780D01*
X103338855Y-114500399D01*
X103386474Y-114595637D01*
X103386474Y-114690875D01*
X103338855Y-114833732D01*
X102767426Y-115405160D01*
X103386474Y-115405160D01*
X102492513Y-113877362D02*
X102444894Y-113924981D01*
X102302037Y-113972600D01*
X102206799Y-113972600D01*
X102063941Y-113924981D01*
X101968703Y-113829743D01*
X101921084Y-113734505D01*
X101873465Y-113544029D01*
X101873465Y-113401172D01*
X101921084Y-113210696D01*
X101968703Y-113115458D01*
X102063941Y-113020220D01*
X102206799Y-112972600D01*
X102302037Y-112972600D01*
X102444894Y-113020220D01*
X102492513Y-113067839D01*
X103444894Y-113972600D02*
X102873465Y-113972600D01*
X103159180Y-113972600D02*
X103159180Y-112972600D01*
X103063941Y-113115458D01*
X102968703Y-113210696D01*
X102873465Y-113258315D01*
M02*
