M48
; DRILL file {KiCad 5.1.4+dfsg1-1} date Tue 03 Sep 2019 18:21:23 JST
; FORMAT={-:-/ absolute / inch / decimal}
; #@! TF.CreationDate,2019-09-03T18:21:23+09:00
; #@! TF.GenerationSoftware,Kicad,Pcbnew,5.1.4+dfsg1-1
FMAT,2
INCH
T1C0.0079
T2C0.0118
T3C0.0157
T4C0.0394
T5C0.0217
%
G90
G05
T1
X3.638Y-4.338
X3.638Y-4.3793
X3.638Y-4.4207
X3.638Y-4.462
X3.6793Y-4.338
X3.6793Y-4.3793
X3.6793Y-4.4207
X3.6793Y-4.462
X3.7207Y-4.338
X3.7207Y-4.3793
X3.7207Y-4.4207
X3.7207Y-4.462
X3.762Y-4.338
X3.762Y-4.3793
X3.762Y-4.4207
X3.762Y-4.462
T2
X3.2Y-3.9
X3.2Y-4.0
X3.2Y-4.1
X3.2Y-4.2
X3.2Y-4.3
X3.317Y-4.226
X3.35Y-4.223
X3.4Y-4.8
X3.402Y-4.437
X3.405Y-4.354
X3.407Y-4.548
X3.439Y-4.339
X3.4785Y-4.7002
X3.5166Y-4.2928
X3.5179Y-4.3214
X3.529Y-4.25
X3.53Y-4.439
X3.5354Y-4.116
X3.5447Y-4.283
X3.5905Y-4.5557
X3.6Y-4.1
X3.645Y-4.2352
X3.649Y-4.7775
X3.6605Y-4.5665
X3.7017Y-4.1969
X3.7278Y-4.6628
X3.74Y-4.635
X3.763Y-4.744
X3.7717Y-4.6693
X3.7913Y-4.612
X3.8158Y-4.5918
X3.8753Y-4.2192
X3.894Y-4.608
X3.8941Y-4.6701
X3.9Y-4.8
X3.941Y-4.589
X3.942Y-4.092
X3.985Y-4.389
X4.0Y-4.8
X4.011Y-4.444
X4.047Y-4.41
X4.092Y-4.699
X4.1Y-3.9
X4.1Y-4.1
X4.2Y-4.5
T3
X3.786Y-4.187
T4
X3.8Y-4.9
X3.9Y-4.9
X4.0Y-4.9
X4.2Y-4.3
X4.2Y-4.4
X3.2Y-4.4
X3.2Y-4.5
X3.2Y-4.6
X3.2Y-4.7
X3.2Y-4.8
X3.2Y-4.9
X3.3Y-4.4
X3.3Y-4.5
X3.3Y-4.6
X3.3Y-4.7
X3.3Y-4.8
X3.3Y-4.9
X3.3Y-3.9
X3.3Y-4.0
X3.4Y-3.9
X3.4Y-4.0
X3.5Y-3.9
X3.5Y-4.0
X3.6Y-3.9
X3.6Y-4.0
X3.7Y-3.9
X3.7Y-4.0
X3.8Y-3.9
X3.8Y-4.0
X3.9Y-3.9
X3.9Y-4.0
X4.0Y-3.9
X4.0Y-4.0
X3.5Y-4.9
X3.6Y-4.9
X4.2Y-3.9
X4.2Y-4.0
X4.2Y-4.1
T5
X4.1254Y-4.7013
X4.1254Y-4.8587
T0
M30
